<?xml version="1.0" standalone="no"?><!DOCTYPE svg PUBLIC "-//W3C//DTD SVG 1.1//EN" "http://www.w3.org/Graphics/SVG/1.1/DTD/svg11.dtd"><svg t="1642130101347" class="icon" viewBox="0 0 1027 1024" version="1.1" xmlns="http://www.w3.org/2000/svg" p-id="4363" xmlns:xlink="http://www.w3.org/1999/xlink" width="200.5859375" height="200"><defs><style type="text/css"></style></defs><path d="M165.701818 791.272727h-7.447273c-31.650909 0-55.854545-26.065455-55.854545-55.854545V351.883636c0-31.650909 26.065455-55.854545 55.854545-55.854545h111.709091c14.894545 0 27.927273-13.032727 27.927273-27.927273v-67.025454c0-14.894545 13.032727-27.927273 27.927273-27.927273h169.425454c14.894545 0 27.927273 13.032727 27.927273 27.927273v65.163636h7.447273c24.203636 0 44.683636 13.032727 57.716363 31.650909h76.334546c89.367273 0 104.261818 16.756364 113.570909 57.716364 0 1.861818 0 1.861818 1.861818 3.723636l27.927273 70.749091c5.585455 14.894545 22.341818 20.48 37.236364 14.894545 14.894545-5.585455 20.48-22.341818 14.894545-37.236363l-27.927273-68.887273c-20.48-81.92-76.334545-98.676364-167.563636-98.676364H577.163636v-39.098181c0-46.545455-37.236364-83.781818-83.781818-83.781819h-169.425454c-46.545455 0-83.781818 37.236364-83.781819 83.781819v39.098181H158.254545c-61.44 0-111.709091 50.269091-111.70909 111.709091v381.672728c0 61.44 50.269091 111.709091 111.70909 111.709091h40.96c-16.756364-11.170909-29.789091-31.650909-33.512727-53.992728zM787.549091 884.363636c7.447273-5.585455 16.756364-11.170909 22.341818-18.618181h-7.447273c-3.723636 7.447273-9.309091 13.032727-14.894545 18.618181zM299.752727 865.745455h-44.683636c-11.170909 0-24.203636-1.861818-33.512727-7.447273 20.48 26.065455 52.130909 42.821818 87.505454 42.821818 7.447273 0 16.756364-1.861818 24.203637-3.723636-13.032727-5.585455-24.203636-16.756364-33.512728-31.650909zM916.014545 482.210909h-119.156363l-26.065455 55.854546h145.221818c31.650909 0 55.854545 26.065455 55.854546 55.854545v141.498182c0 5.585455-1.861818 11.170909-1.861818 16.756363v22.341819c0 29.789091-13.032727 55.854545-35.374546 72.610909 52.130909-9.309091 93.090909-55.854545 93.090909-109.847273V595.781818c0-63.301818-50.269091-113.570909-111.709091-113.570909z" fill="#5E74FE" p-id="4364"></path><path d="M727.970909 733.556364c-31.650909 0-55.854545 26.065455-55.854545 55.854545 0 31.650909 26.065455 55.854545 55.854545 55.854546 31.650909 0 55.854545-26.065455 55.854546-55.854546s-24.203636-55.854545-55.854546-55.854545z" fill="#5E74FE" opacity=".25" p-id="4365"></path><path d="M525.032727 268.101818v-3.723636h-130.327272c-39.098182 0-70.749091 31.650909-70.749091 70.749091v31.650909h-67.025455c-52.130909 0-93.090909 42.821818-93.090909 93.090909v312.785454c0 5.585455 0 13.032727 1.861818 18.618182h33.512727c0-61.44 50.269091-111.709091 111.709091-111.709091s111.709091 50.269091 111.709091 111.709091H614.4c0-61.44 50.269091-111.709091 111.709091-111.709091s111.709091 50.269091 111.709091 111.709091h76.334545c26.065455 0 46.545455-16.756364 53.992728-40.96v-93.090909c0-52.130909-42.821818-93.090909-93.09091-93.090909h-117.294545l13.032727-26.065454c-14.894545 0-26.065455-13.032727-26.065454-27.927273s13.032727-27.927273 27.927272-27.927273h24.203637l14.894545-33.512727c-16.756364-67.025455-65.163636-119.156364-137.774545-119.156364h-70.749091v5.585455c0-14.894545-3.723636-27.927273-13.032727-39.098182h-39.098182c-14.894545 0-26.065455-13.032727-26.065455-27.927273zM521.309091 525.032727h-52.130909V577.163636c0 14.894545-13.032727 27.927273-27.927273 27.927273s-27.927273-13.032727-27.927273-27.927273v-52.130909h-52.130909c-14.894545 0-27.927273-13.032727-27.927272-27.927272s13.032727-27.927273 27.927272-27.927273h52.130909v-52.130909c0-14.894545 13.032727-27.927273 27.927273-27.927273s27.927273 13.032727 27.927273 27.927273v52.130909H521.309091c14.894545 0 27.927273 13.032727 27.927273 27.927273s-13.032727 27.927273-27.927273 27.927272zM824.785455 847.127273c-3.723636 7.447273-9.309091 13.032727-14.894546 18.618182h67.025455c22.341818 0 42.821818-7.447273 57.716363-20.48-5.585455 1.861818-13.032727 1.861818-18.618182 1.861818h-91.22909zM631.156364 847.127273h-223.418182c-14.894545 26.065455-40.96 46.545455-72.610909 53.992727 13.032727 7.447273 29.789091 13.032727 46.545454 13.032727 33.512727 0 63.301818-18.618182 80.058182-46.545454h180.596364C659.083636 893.672727 688.872727 912.290909 722.385455 912.290909c26.065455 0 48.407273-11.170909 65.163636-27.927273-16.756364 11.170909-37.236364 18.618182-59.578182 18.618182-40.96 0-78.196364-22.341818-96.814545-55.854545zM199.214545 847.127273c7.447273 5.585455 14.894545 9.309091 22.341819 13.032727-3.723636-3.723636-5.585455-9.309091-9.309091-13.032727h-13.032728z" fill="#5E74FE" opacity=".25" p-id="4366"></path><path d="M310.923636 733.556364c-31.650909 0-55.854545 26.065455-55.854545 55.854545 0 31.650909 26.065455 55.854545 55.854545 55.854546s55.854545-26.065455 55.854546-55.854546-24.203636-55.854545-55.854546-55.854545z" fill="#5E74FE" opacity=".25" p-id="4367"></path><path d="M744.727273 510.138182c0 14.894545 11.170909 27.927273 26.065454 27.927273l26.065455-55.854546h-24.203637c-14.894545 0-27.927273 11.170909-27.927272 27.927273z" fill="#5E74FE" p-id="4368"></path><path d="M744.727273 510.138182c0 14.894545 11.170909 27.927273 26.065454 27.927273l26.065455-55.854546h-24.203637c-14.894545 0-27.927273 11.170909-27.927272 27.927273z" fill="#5E74FE" opacity=".25" p-id="4369"></path><path d="M532.48 264.378182h-7.447273v3.723636c0 14.894545 13.032727 27.927273 27.927273 27.927273h39.098182c-13.032727-18.618182-35.374545-31.650909-59.578182-31.650909z" fill="#5E74FE" p-id="4370"></path><path d="M532.48 264.378182h-7.447273v3.723636c0 14.894545 13.032727 27.927273 27.927273 27.927273h39.098182c-13.032727-18.618182-35.374545-31.650909-59.578182-31.650909z" fill="#5E74FE" opacity=".25" p-id="4371"></path><path d="M970.007273 772.654545v-22.341818c-7.447273 22.341818-27.927273 40.96-53.992728 40.96h-76.334545c0-61.44-50.269091-111.709091-111.709091-111.709091s-111.709091 50.269091-111.709091 111.709091H422.632727c0-61.44-50.269091-111.709091-111.709091-111.709091s-111.709091 50.269091-111.709091 111.709091H165.701818c3.723636 22.341818 16.756364 42.821818 35.374546 55.854546h13.032727c1.861818 3.723636 5.585455 9.309091 9.309091 13.032727 11.170909 3.723636 22.341818 7.447273 33.512727 7.447273h44.683636c7.447273 14.894545 20.48 26.065455 35.374546 33.512727 31.650909-7.447273 57.716364-26.065455 72.610909-53.992727h223.418182c18.618182 33.512727 55.854545 55.854545 96.814545 55.854545 22.341818 0 42.821818-7.447273 59.578182-18.618182 5.585455-5.585455 11.170909-11.170909 14.894546-18.618181h7.447272c5.585455-5.585455 11.170909-13.032727 14.894546-18.618182h91.229091c5.585455 0 13.032727 0 18.618181-1.861818 20.48-16.756364 33.512727-42.821818 33.512728-72.61091z m-659.083637 74.472728c-31.650909 0-55.854545-26.065455-55.854545-55.854546 0-31.650909 26.065455-55.854545 55.854545-55.854545s55.854545 26.065455 55.854546 55.854545-24.203636 55.854545-55.854546 55.854546z m417.047273 0c-31.650909 0-55.854545-26.065455-55.854545-55.854546 0-31.650909 26.065455-55.854545 55.854545-55.854545 31.650909 0 55.854545 26.065455 55.854546 55.854545s-24.203636 55.854545-55.854546 55.854546z" fill="#5E74FE" p-id="4372"></path><path d="M970.007273 772.654545v-22.341818c-7.447273 22.341818-27.927273 40.96-53.992728 40.96h-76.334545c0-61.44-50.269091-111.709091-111.709091-111.709091s-111.709091 50.269091-111.709091 111.709091H422.632727c0-61.44-50.269091-111.709091-111.709091-111.709091s-111.709091 50.269091-111.709091 111.709091H165.701818c3.723636 22.341818 16.756364 42.821818 35.374546 55.854546h13.032727c1.861818 3.723636 5.585455 9.309091 9.309091 13.032727 11.170909 3.723636 22.341818 7.447273 33.512727 7.447273h44.683636c7.447273 14.894545 20.48 26.065455 35.374546 33.512727 31.650909-7.447273 57.716364-26.065455 72.610909-53.992727h223.418182c18.618182 33.512727 55.854545 55.854545 96.814545 55.854545 22.341818 0 42.821818-7.447273 59.578182-18.618182 5.585455-5.585455 11.170909-11.170909 14.894546-18.618181h7.447272c5.585455-5.585455 11.170909-13.032727 14.894546-18.618182h91.229091c5.585455 0 13.032727 0 18.618181-1.861818 20.48-16.756364 33.512727-42.821818 33.512728-72.61091z m-659.083637 74.472728c-31.650909 0-55.854545-26.065455-55.854545-55.854546 0-31.650909 26.065455-55.854545 55.854545-55.854545s55.854545 26.065455 55.854546 55.854545-24.203636 55.854545-55.854546 55.854546z m417.047273 0c-31.650909 0-55.854545-26.065455-55.854545-55.854546 0-31.650909 26.065455-55.854545 55.854545-55.854545 31.650909 0 55.854545 26.065455 55.854546 55.854545s-24.203636 55.854545-55.854546 55.854546z" fill="#5E74FE" opacity=".25" p-id="4373"></path><path d="M521.309091 469.178182h-52.130909v-52.130909c0-14.894545-13.032727-27.927273-27.927273-27.927273s-27.927273 13.032727-27.927273 27.927273v52.130909h-52.130909c-14.894545 0-27.927273 13.032727-27.927272 27.927273s13.032727 27.927273 27.927272 27.927272h52.130909V577.163636c0 14.894545 13.032727 27.927273 27.927273 27.927273s27.927273-13.032727 27.927273-27.927273v-52.130909H521.309091c14.894545 0 27.927273-13.032727 27.927273-27.927272s-13.032727-27.927273-27.927273-27.927273z" fill="#5E74FE" p-id="4374"></path><path d="M521.309091 469.178182h-52.130909v-52.130909c0-14.894545-13.032727-27.927273-27.927273-27.927273s-27.927273 13.032727-27.927273 27.927273v52.130909h-52.130909c-14.894545 0-27.927273 13.032727-27.927272 27.927273s13.032727 27.927273 27.927272 27.927272h52.130909V577.163636c0 14.894545 13.032727 27.927273 27.927273 27.927273s27.927273-13.032727 27.927273-27.927273v-52.130909H521.309091c14.894545 0 27.927273-13.032727 27.927273-27.927272s-13.032727-27.927273-27.927273-27.927273z" fill="#5E74FE" opacity=".25" p-id="4375"></path></svg>