<?xml version="1.0" standalone="no"?><!DOCTYPE svg PUBLIC "-//W3C//DTD SVG 1.1//EN" "http://www.w3.org/Graphics/SVG/1.1/DTD/svg11.dtd"><svg t="1671430691405" class="icon" viewBox="0 0 1024 1024" version="1.1" xmlns="http://www.w3.org/2000/svg" p-id="14755" xmlns:xlink="http://www.w3.org/1999/xlink" width="200" height="200"><path d="M925.323636 83.781818c-14.894545 0-27.927273 13.032727-27.927272 27.927273v746.589091c0 35.374545-24.203636 63.301818-53.992728 63.301818H176.872727c-29.789091 0-53.992727-27.927273-53.992727-63.301818V111.709091c0-14.894545-13.032727-27.927273-27.927273-27.927273S67.025455 96.814545 67.025455 111.709091v746.589091c0 67.025455 50.269091 119.156364 109.847272 119.156363h666.530909c61.44 0 109.847273-53.992727 109.847273-119.156363V111.709091c0-14.894545-13.032727-27.927273-27.927273-27.927273z" fill="currentColor" p-id="14756"></path><path d="M258.792727 327.68h500.829091c14.894545 0 27.927273-13.032727 27.927273-27.927273s-13.032727-27.927273-27.927273-27.927272H258.792727c-14.894545 0-27.927273 13.032727-27.927272 27.927272s13.032727 27.927273 27.927272 27.927273zM258.792727 139.636364h500.829091c14.894545 0 27.927273-13.032727 27.927273-27.927273s-13.032727-27.927273-27.927273-27.927273H258.792727c-14.894545 0-27.927273 13.032727-27.927272 27.927273s13.032727 27.927273 27.927272 27.927273zM709.352727 517.585455L510.138182 716.8 309.061818 517.585455c-11.170909-11.170909-31.650909-11.170909-42.821818 0-11.170909 11.170909-11.170909 31.650909 0 42.821818l242.036364 242.036363 242.036363-242.036363c11.170909-11.170909 11.170909-31.650909 0-42.821818-9.309091-13.032727-29.789091-13.032727-40.96 0z" fill="currentColor" p-id="14757"></path></svg>