<?xml version="1.0" standalone="no"?><!DOCTYPE svg PUBLIC "-//W3C//DTD SVG 1.1//EN" "http://www.w3.org/Graphics/SVG/1.1/DTD/svg11.dtd"><svg t="1642130769326" class="icon" viewBox="0 0 1024 1024" version="1.1" xmlns="http://www.w3.org/2000/svg" p-id="4501" xmlns:xlink="http://www.w3.org/1999/xlink" width="200" height="200"><defs><style type="text/css"></style></defs><path d="M482.210909 616.261818c-7.447273 0-13.032727-1.861818-18.618182-7.447273-11.170909-11.170909-11.170909-27.927273 0-37.236363l152.669091-152.669091c-37.236364-27.927273-85.643636-46.545455-135.912727-46.545455-126.603636 0-229.003636 102.4-229.003636 229.003637 0 126.603636 102.4 229.003636 229.003636 229.003636 126.603636 0 229.003636-102.4 229.003636-229.003636 0-55.854545-20.48-106.123636-52.130909-147.083637L502.690909 608.814545c-7.447273 5.585455-14.894545 7.447273-20.48 7.447273z" fill="#5E74FE" opacity=".25" p-id="4502"></path><path d="M912.290909 554.821818c-14.894545 0-26.065455 11.170909-26.065454 26.065455v305.338182c0 29.789091-24.203636 53.992727-53.992728 53.992727H182.458182c-29.789091 0-53.992727-24.203636-53.992727-53.992727V238.312727c0-29.789091 24.203636-53.992727 53.992727-53.992727H595.781818c14.894545 0 26.065455-11.170909 26.065455-26.065455s-11.170909-26.065455-26.065455-26.065454H182.458182c-59.578182 0-106.123636 48.407273-106.123637 106.123636v649.774546c0 59.578182 48.407273 106.123636 106.123637 106.123636h649.774545c59.578182 0 106.123636-48.407273 106.123637-106.123636V582.749091c0-14.894545-11.170909-27.927273-26.065455-27.927273z" fill="#5E74FE" p-id="4503"></path><path d="M461.730909 571.578182c-11.170909 11.170909-11.170909 27.927273 0 37.236363 5.585455 5.585455 11.170909 7.447273 18.618182 7.447273s13.032727-1.861818 18.618182-7.447273l154.530909-154.530909 247.621818-247.621818c11.170909-11.170909 11.170909-27.927273 0-37.236363-11.170909-11.170909-27.927273-11.170909-37.236364 0L616.261818 418.909091l-154.530909 152.669091z" fill="#5E74FE" p-id="4504"></path></svg>