<?xml version="1.0" standalone="no"?><!DOCTYPE svg PUBLIC "-//W3C//DTD SVG 1.1//EN" "http://www.w3.org/Graphics/SVG/1.1/DTD/svg11.dtd"><svg t="1642137041921" class="icon" viewBox="0 0 1024 1024" version="1.1" xmlns="http://www.w3.org/2000/svg" p-id="5660" xmlns:xlink="http://www.w3.org/1999/xlink" width="200" height="200"><defs><style type="text/css"></style></defs><path d="M443.112727 884.363636H195.490909c-20.48 0-37.236364-16.756364-37.236364-37.236363V597.643636c0-14.894545-13.032727-27.927273-27.927272-27.927272s-27.927273 13.032727-27.927273 27.927272v249.483637c0 52.130909 40.96 93.090909 93.090909 93.090909h247.621818c14.894545 0 27.927273-13.032727 27.927273-27.927273s-11.170909-27.927273-27.927273-27.927273zM862.021818 87.505455H614.4c-14.894545 0-27.927273 13.032727-27.927273 27.927272s13.032727 27.927273 27.927273 27.927273h247.621818c20.48 0 37.236364 16.756364 37.236364 37.236364V428.218182c0 14.894545 13.032727 27.927273 27.927273 27.927273s27.927273-13.032727 27.927272-27.927273V180.596364c0-52.130909-40.96-93.090909-93.090909-93.090909zM130.327273 456.145455c14.894545 0 27.927273-13.032727 27.927272-27.927273V180.596364c0-20.48 16.756364-37.236364 37.236364-37.236364h247.621818c14.894545 0 27.927273-13.032727 27.927273-27.927273s-13.032727-27.927273-27.927273-27.927272H195.490909c-52.130909 0-93.090909 40.96-93.090909 93.090909V428.218182c0 14.894545 13.032727 27.927273 27.927273 27.927273zM927.185455 569.716364c-14.894545 0-27.927273 13.032727-27.927273 27.927272v249.483637c0 20.48-16.756364 37.236364-37.236364 37.236363H614.4c-14.894545 0-27.927273 13.032727-27.927273 27.927273s13.032727 27.927273 27.927273 27.927273h247.621818c52.130909 0 93.090909-40.96 93.090909-93.090909V597.643636c0-14.894545-13.032727-27.927273-27.927272-27.927272zM811.752727 513.861818c0-76.334545-29.789091-147.083636-83.781818-199.214545-53.992727-53.992727-124.741818-83.781818-199.214545-83.781818-76.334545 0-147.083636 29.789091-199.214546 83.781818-53.992727 53.992727-83.781818 124.741818-83.781818 199.214545 0 76.334545 29.789091 147.083636 83.781818 199.214546 53.992727 53.992727 124.741818 83.781818 199.214546 83.781818 74.472727 0 147.083636-29.789091 199.214545-83.781818 53.992727-52.130909 83.781818-124.741818 83.781818-199.214546zM528.756364 741.003636c-61.44 0-117.294545-24.203636-160.116364-67.025454s-67.025455-100.538182-67.025455-160.116364c0-61.44 24.203636-117.294545 67.025455-160.116363s100.538182-67.025455 160.116364-67.025455c61.44 0 117.294545 24.203636 160.116363 67.025455s67.025455 100.538182 67.025455 160.116363c0 61.44-24.203636 117.294545-67.025455 160.116364s-98.676364 67.025455-160.116363 67.025454z" fill="#5E74FE" p-id="5661"></path><path d="M664.669091 513.861818H539.927273v-163.84c0-14.894545-13.032727-27.927273-27.927273-27.927273S484.072727 335.127273 484.072727 350.021818v191.767273c0 7.447273 3.723636 14.894545 7.447273 20.48s13.032727 7.447273 20.48 7.447273h152.669091c14.894545 0 27.927273-13.032727 27.927273-27.927273s-13.032727-27.927273-27.927273-27.927273z" fill="#5E74FE" p-id="5662"></path></svg>