<?xml version="1.0" standalone="no"?><!DOCTYPE svg PUBLIC "-//W3C//DTD SVG 1.1//EN" "http://www.w3.org/Graphics/SVG/1.1/DTD/svg11.dtd"><svg t="1642131302216" class="icon" viewBox="0 0 1024 1024" version="1.1" xmlns="http://www.w3.org/2000/svg" p-id="5016" xmlns:xlink="http://www.w3.org/1999/xlink" width="200" height="200"><defs><style type="text/css"></style></defs><path d="M843.403636 9.309091H176.872727C93.090909 9.309091 24.203636 78.196364 24.203636 161.978182v666.530909c0 83.781818 68.887273 152.669091 152.669091 152.669091h666.530909c83.781818 0 152.669091-68.887273 152.669091-152.669091V161.978182c0-85.643636-68.887273-152.669091-152.669091-152.669091z m-478.487272 781.963636c-27.927273 0-50.269091-22.341818-50.269091-50.269091 0-27.927273 22.341818-50.269091 50.269091-50.269091s50.269091 22.341818 50.269091 50.269091c0 27.927273-22.341818 50.269091-50.269091 50.269091z m0-461.730909c-27.927273 0-50.269091-22.341818-50.269091-50.269091 0-27.927273 22.341818-50.269091 50.269091-50.269091s50.269091 22.341818 50.269091 50.269091c0 27.927273-22.341818 50.269091-50.269091 50.269091zM78.196364 828.509091V161.978182c0-53.992727 42.821818-96.814545 96.814545-96.814546H335.127273v113.570909c-44.683636 13.032727-78.196364 53.992727-78.196364 102.4s33.512727 89.367273 78.196364 102.4v258.792728c-44.683636 13.032727-78.196364 53.992727-78.196364 102.4s33.512727 89.367273 78.196364 102.4v81.92H176.872727c-53.992727-3.723636-98.676364-46.545455-98.676363-100.538182z m862.021818 0c0 53.992727-42.821818 96.814545-96.814546 96.814545H392.843636v-78.196363-3.723637c44.683636-13.032727 78.196364-53.992727 78.196364-102.4s-33.512727-89.367273-78.196364-102.4V381.672727c44.683636-13.032727 78.196364-53.992727 78.196364-102.4s-33.512727-89.367273-78.196364-102.4v-111.709091h450.56c53.992727 0 96.814545 42.821818 96.814546 96.814546v666.530909z" fill="#5E74FE" p-id="5017"></path><path d="M791.272727 251.345455h-223.418182c-14.894545 0-27.927273 13.032727-27.927272 27.927272s13.032727 27.927273 27.927272 27.927273h223.418182c14.894545 0 27.927273-13.032727 27.927273-27.927273s-11.170909-27.927273-27.927273-27.927272zM791.272727 716.8h-223.418182c-14.894545 0-27.927273 13.032727-27.927272 27.927273s13.032727 27.927273 27.927272 27.927272h223.418182c14.894545 0 27.927273-13.032727 27.927273-27.927272s-11.170909-27.927273-27.927273-27.927273z" fill="#5E74FE" p-id="5018"></path></svg>