<?xml version="1.0" standalone="no"?><!DOCTYPE svg PUBLIC "-//W3C//DTD SVG 1.1//EN" "http://www.w3.org/Graphics/SVG/1.1/DTD/svg11.dtd"><svg t="1661316336149" class="icon" viewBox="0 0 1024 1024" version="1.1" xmlns="http://www.w3.org/2000/svg" p-id="6321" xmlns:xlink="http://www.w3.org/1999/xlink" width="200" height="200"><defs><style type="text/css">@font-face { font-family: feedback-iconfont; src: url("//at.alicdn.com/t/font_1031158_u69w8yhxdu.woff2?t=1630033759944") format("woff2"), url("//at.alicdn.com/t/font_1031158_u69w8yhxdu.woff?t=1630033759944") format("woff"), url("//at.alicdn.com/t/font_1031158_u69w8yhxdu.ttf?t=1630033759944") format("truetype"); }
</style></defs><path d="M350.245926 287.668148c-4.93037-18.962963-9.671111-40.77037-14.601482-59.733333h-1.137777c-4.361481 18.962963-9.481481 41.14963-14.222223 59.733333l-3.982222 15.739259h37.925926z" fill="#5E74FE" p-id="6322"></path><path d="M816.355556 40.011852H158.90963a61.62963 61.62963 0 0 0-61.62963 61.629629v780.894815a61.44 61.44 0 0 0 61.62963 61.62963h461.748148a195.697778 195.697778 0 0 1-39.822222-118.708148 201.386667 201.386667 0 0 1 297.339259-174.838519V101.641481a61.819259 61.819259 0 0 0-61.819259-61.629629z m-142.411852 230.779259a11.567407 11.567407 0 0 1-9.102223 13.463704 516.551111 516.551111 0 0 0-51.01037 12.136296c-3.034074-7.205926-6.447407-14.411852-10.05037-21.048889a551.632593 551.632593 0 0 1 56.888889-13.842963 11.567407 11.567407 0 0 1 13.274074 9.291852zM629.57037 208.592593a11.567407 11.567407 0 0 1 3.034074 22.945185 347.591111 347.591111 0 0 0-51.768888 10.619259 153.031111 153.031111 0 0 0-18.962963-18.962963A395.567407 395.567407 0 0 1 629.57037 208.592593zM361.244444 126.862222a292.219259 292.219259 0 0 0 56.888889 83.626667 145.825185 145.825185 0 0 1-8.343703-94.814815h67.697777a168.201481 168.201481 0 0 0 12.515556 101.072593c97.848889 27.306667 130.654815 147.531852 106.192593 238.364444-7.585185 28.254815-90.453333 29.961481-81.161482-11.946667 27.875556-127.620741-80.213333-202.524444-121.931852-124.586666l-75.851852-28.823704A198.921481 198.921481 0 0 1 349.866667 246.518519a322.37037 322.37037 0 0 1-64.094815-104.296297z m119.277037 351.573334a5.688889 5.688889 0 0 0 1.896297 3.982222 5.688889 5.688889 0 0 0 3.982222 1.517037 199.49037 199.49037 0 0 1 21.617778 0.948148 107.899259 107.899259 0 0 1 18.962963 3.413333 11.567407 11.567407 0 1 1-6.257778 22.186667 74.524444 74.524444 0 0 0-14.601482-2.654815 123.448889 123.448889 0 0 0-18.962962 0 29.771852 29.771852 0 0 1-20.290371-7.774815 28.823704 28.823704 0 0 1-9.102222-18.962963 206.696296 206.696296 0 0 1 25.220741-122.50074 120.225185 120.225185 0 0 1 7.585185 37.925926 219.022222 219.022222 0 0 0-10.050371 81.92zM144.497778 344.177778a11.567407 11.567407 0 0 1 7.585185-14.601482 347.211852 347.211852 0 0 1 131.602963-17.066666 298.287407 298.287407 0 0 1 120.414815 36.977777 233.244444 233.244444 0 0 1 17.066666-27.875555 25.6 25.6 0 0 1 30.90963-1.896296 198.542222 198.542222 0 0 0-32.237037 50.441481v1.137778a11.757037 11.757037 0 0 1-15.739259 4.361481 284.444444 284.444444 0 0 0-121.742222-40.011852 322.37037 322.37037 0 0 0-122.88 16.118519 11.567407 11.567407 0 0 1-14.980741-7.585185z m5.688889 56.888889a11.567407 11.567407 0 0 1 7.585185-14.411852 288.237037 288.237037 0 0 1 127.051852-13.084445 259.034074 259.034074 0 0 1 113.777777 46.08 11.188148 11.188148 0 0 1 4.930371 10.808889 260.361481 260.361481 0 0 0-1.137778 34.512593 256.18963 256.18963 0 0 0 3.982222 36.788148 28.634074 28.634074 0 0 1-13.463703 29.202963 63.146667 63.146667 0 0 0-15.54963 30.90963 56.888889 56.888889 0 0 0 3.602963 41.149629 110.933333 110.933333 0 0 0 25.41037 25.6 262.257778 262.257778 0 0 0 71.86963 37.925926 11.567407 11.567407 0 0 1 7.585185 14.411852 11.188148 11.188148 0 0 1-14.411852 7.395556 279.134815 279.134815 0 0 1-79.075555-41.528889l-3.982223-3.223704A794.358519 794.358519 0 0 0 432.165926 739.555556l3.034074 6.068148a11.567407 11.567407 0 0 1-20.48 10.429629l-3.034074-6.068148c-9.671111-18.962963-20.66963-40.201481-30.53037-62.767407a98.986667 98.986667 0 0 0-1.896297 45.89037 11.567407 11.567407 0 1 1-22.565926 4.740741 120.414815 120.414815 0 0 1 3.413334-58.026667 113.777778 113.777778 0 0 0 4.74074-37.925926 262.637037 262.637037 0 0 1-8.912592-36.029629 132.740741 132.740741 0 0 1 0.948148-54.613334l-9.860741 6.068148a10.998519 10.998519 0 1 1-12.515555-18.962962c7.395556-5.12 17.256296-12.136296 24.651852-16.497778s14.601481-8.154074 21.997037-11.757037a5.499259 5.499259 0 0 0 3.792592-6.447408 267.946667 267.946667 0 0 1-5.688889-38.684444 278.565926 278.565926 0 0 1 0-30.90963 235.70963 235.70963 0 0 0-98.797037-37.925926 269.653333 269.653333 0 0 0-117.001481 12.325926 11.567407 11.567407 0 0 1-13.274074-8.154074z m540.065185 118.897777a113.777778 113.777778 0 0 1-10.24 17.256297 145.825185 145.825185 0 0 1 0 58.026666A197.783704 197.783704 0 0 1 616.106667 701.62963c-51.958519 45.321481-136.154074 156.634074-199.86963 153.22074a92.728889 92.728889 0 0 1-31.478518-7.964444c-78.317037-33.943704-139.377778-144.497778-135.016297-227.555556a161.374815 161.374815 0 0 1 12.894815-56.888889 21.617778 21.617778 0 0 0 1.137778-2.654814l-1.327408-2.465186a167.253333 167.253333 0 0 1-12.325926-16.308148 116.811852 116.811852 0 0 1-18.962962-78.317037 120.225185 120.225185 0 0 1 13.274074-40.96 197.973333 197.973333 0 0 1 33.374814 1.706667l6.257778 0.948148a88.746667 88.746667 0 0 0-18.962963 42.477037 83.816296 83.816296 0 0 0 13.842963 55.561482 97.848889 97.848889 0 0 0 9.291852 12.136296c16.118519 18.962963 14.791111 21.238519 6.826667 39.253333l-1.137778 2.465185a126.103704 126.103704 0 0 0-9.481482 44.942223c-3.602963 69.214815 49.682963 166.305185 113.777778 194.56a52.906667 52.906667 0 0 0 18.962963 4.93037c41.718519 2.275556 135.774815-109.795556 175.597037-144.497778A163.081481 163.081481 0 0 0 646.068148 587.851852a100.503704 100.503704 0 0 0-16.877037-81.351111 17.445926 17.445926 0 0 1 3.602963-24.272593 17.256296 17.256296 0 0 1 24.082963 3.602963l5.878519 8.533333a84.005926 84.005926 0 0 0-2.654815-51.01037 129.517037 129.517037 0 0 0-27.306667-44.183704 294.874074 294.874074 0 0 0-3.413333-48.355555 132.740741 132.740741 0 0 1 13.463703 10.24 170.666667 170.666667 0 0 1 49.872593 70.921481 113.777778 113.777778 0 0 1-2.465185 87.988148zM796.065185 836.835556V796.444444l-26.548148 40.391112h26.548148z" fill="#5E74FE" p-id="6323"></path><path d="M777.481481 657.825185a167.632593 167.632593 0 1 0 169.14963 167.632593A168.77037 168.77037 0 0 0 777.481481 657.825185z m-42.477037 209.540741v18.962963H654.222222V872.296296a128.18963 128.18963 0 0 1 37.925926-44.942222c15.54963-11.567407 22.945185-22.565926 22.565926-33.185185a16.877037 16.877037 0 0 0-17.825185-18.962963c-9.291852 0-16.877037 6.637037-22.565926 21.238518l-18.962963-9.291851a42.477037 42.477037 0 0 1 41.718519-31.857778 35.65037 35.65037 0 0 1 39.632592 37.925926 55.371852 55.371852 0 0 1-29.013333 46.459259 99.555556 99.555556 0 0 0-27.306667 27.117037z m98.228149-10.619259h-15.36v30.53037H796.444444v-30.53037h-50.82074v-14.601482L801.374815 758.518519h16.497778v78.696296h15.36z m51.389629 28.823703v-39.442963c0-8.533333-3.792593-12.894815-11.567407-13.274074s-14.032593 6.637037-14.980741 17.256297v35.46074h-14.601481v-86.091851h14.601481v29.582222a23.324444 23.324444 0 0 1 18.962963-8.912593c14.980741 0 22.565926 9.291852 22.945185 26.927408v37.925925z" fill="#5E74FE" p-id="6324"></path></svg>