<?xml version="1.0" standalone="no"?><!DOCTYPE svg PUBLIC "-//W3C//DTD SVG 1.1//EN" "http://www.w3.org/Graphics/SVG/1.1/DTD/svg11.dtd"><svg t="1659430618177" class="icon" viewBox="0 0 1024 1024" version="1.1" xmlns="http://www.w3.org/2000/svg" p-id="8410" xmlns:xlink="http://www.w3.org/1999/xlink" width="200" height="200"><defs><style type="text/css">@font-face { font-family: feedback-iconfont; src: url("//at.alicdn.com/t/font_1031158_u69w8yhxdu.woff2?t=1630033759944") format("woff2"), url("//at.alicdn.com/t/font_1031158_u69w8yhxdu.woff?t=1630033759944") format("woff"), url("//at.alicdn.com/t/font_1031158_u69w8yhxdu.ttf?t=1630033759944") format("truetype"); }
</style></defs><path d="M570.405926 327.111111a35.65037 35.65037 0 0 0-6.257778 18.962963 146.583704 146.583704 0 0 0 10.619259 33.185185 193.422222 193.422222 0 0 1 35.081482-42.856296l3.413333-2.844444a235.70963 235.70963 0 0 0-37.925926-10.050371 10.619259 10.619259 0 0 0-4.93037 3.602963zM678.494815 377.742222a136.343704 136.343704 0 0 0-35.650371 51.2v1.896297a56.888889 56.888889 0 0 0-1.327407 14.222222l1.706667 9.481481v2.844445c51.768889 5.499259 54.423704-24.272593 54.423703-31.857778v-1.706667a33.943704 33.943704 0 0 0-1.517037-10.619259 146.962963 146.962963 0 0 0-13.463703-29.202963c-1.517037-2.085926-2.654815-4.740741-4.171852-6.257778z" fill="#5E74FE" p-id="8411"></path><path d="M484.882963 365.416296a154.737778 154.737778 0 0 0 13.653333 63.146667 98.038519 98.038519 0 0 1 10.42963 0h1.137778c3.413333 0 7.395556 0 11.377777 0.948148h5.12l3.413334 0.948148h3.602963a15.739259 15.739259 0 0 0 12.136296 0 13.084444 13.084444 0 0 0 5.499259-5.12c5.12-7.774815 12.136296-22.945185 19.911111-36.788148 0-0.948148-2.465185-10.619259-2.844444-11.567407v-1.896297a103.348148 103.348148 0 0 1-10.619259-33.754074 35.081481 35.081481 0 0 1 6.257778-18.962963 8.912593 8.912593 0 0 1 8.343703-4.171851 461.368889 461.368889 0 0 1 47.407408 11.757037l2.654814-1.706667c4.740741-3.223704 9.671111-6.257778 14.601482-9.102222l3.034074-1.517037 2.654815-1.327408a88.367407 88.367407 0 0 0-61.62963-73.197037c-45.131852-11.567407-94.814815 26.168889-96.142222 62.577778v58.595556zM930.322963 319.146667a246.518519 246.518519 0 0 1 7.964444 32.426666 16.497778 16.497778 0 0 1-9.86074 6.447408c-10.808889 3.602963-3.602963 9.102222-14.411852 28.823703s5.30963 18.962963-3.602963 37.925926-5.30963 10.808889-1.706667 30.530371 17.825185 7.205926 17.825185 21.617778a18.962963 18.962963 0 0 0 10.998519 18.962962c-1.896296 8.533333-3.982222 17.256296-6.637037 26.168889a5.499259 5.499259 0 0 0 3.602963 6.637037 5.499259 5.499259 0 0 0 6.447407-3.602963 370.725926 370.725926 0 0 0 0-208.592592 4.740741 4.740741 0 0 0-2.654815-3.034074 4.93037 4.93037 0 0 0-3.982222 0 5.30963 5.30963 0 0 0-3.602963 4.93037 5.499259 5.499259 0 0 0-0.379259 0.758519zM837.973333 530.962963a5.30963 5.30963 0 0 0 3.413334-6.637037c-2.654815-9.291852-4.93037-18.962963-6.826667-27.496296a16.687407 16.687407 0 0 1 10.05037-6.637037c10.808889-3.602963 3.602963-9.102222 14.411852-28.823704s-5.499259-18.962963 3.602963-37.925926 5.30963-10.808889 1.706667-30.53037-18.014815-7.205926-18.014815-21.617778a18.962963 18.962963 0 0 0-11.946667-18.962963c3.792593-18.962963 7.585185-30.151111 7.585186-30.530371a4.93037 4.93037 0 0 0 0-3.982222 4.740741 4.740741 0 0 0-3.034075-2.654815 4.93037 4.93037 0 0 0-3.982222 0 4.740741 4.740741 0 0 0-2.654815 3.034075 349.487407 349.487407 0 0 0-15.36 106.192592 357.072593 357.072593 0 0 0 14.601482 102.21037 5.878519 5.878519 0 0 0 2.844444 4.361482 6.447407 6.447407 0 0 0 3.602963 0zM882.346667 317.25037h8.154074v208.592593h-8.154074z" fill="#5E74FE" p-id="8412"></path><path d="M886.518519 542.90963a122.121481 122.121481 0 1 1 122.121481-122.121482 122.311111 122.311111 0 0 1-122.121481 122.121482z m0-237.416297a115.484444 115.484444 0 1 0 115.294814 115.294815 115.484444 115.484444 0 0 0-115.294814-115.294815zM676.977778 568.888889a17.635556 17.635556 0 0 0 11.188148-11.377778 32.237037 32.237037 0 0 1 0-4.171852v-0.948148a10.619259 10.619259 0 0 0 0-1.327407 1.706667 1.706667 0 0 0 0-0.948148 88.936296 88.936296 0 0 0-6.637037-16.877037 281.220741 281.220741 0 0 0-18.962963-31.668149h-2.085926v69.973334h7.016296a24.272593 24.272593 0 0 0 9.481482-2.654815zM697.647407 527.54963l-7.774814-5.30963 2.275555 4.740741a105.054815 105.054815 0 0 1 7.016296 18.962963V549.925926a5.878519 5.878519 0 0 1 0 1.706667 36.788148 36.788148 0 0 0 0 4.551111c0 3.034074 0 6.257778 1.517037 9.291852 1.706667 8.722963 3.413333 17.256296 5.30963 25.031111l1.137778 0.948148h8.912592v-46.838519a144.877037 144.877037 0 0 0-18.394074-17.066666zM701.62963 522.998519a138.619259 138.619259 0 0 1 15.928889 14.411851V500.622222h-39.442963c2.085926 3.223704 3.982222 6.257778 5.878518 9.860741 6.447407 4.361481 12.136296 8.343704 17.635556 12.515556z" fill="#5E74FE" p-id="8413"></path><path d="M798.53037 613.831111a335.075556 335.075556 0 0 0-46.269629-135.774815l-26.358519 21.807408v47.028148l2.465185 2.844444c3.034074 2.654815 6.257778 4.93037 9.671112 7.395556a34.512593 34.512593 0 0 1 9.671111 9.291852 24.651852 24.651852 0 0 1 3.792592 12.705185v1.517037h-3.034074v-1.327407a19.911111 19.911111 0 0 0-3.602963-10.998519 29.582222 29.582222 0 0 0-8.912592-7.964444l-9.860741-7.016297v42.477037a4.361481 4.361481 0 0 1-4.361482 4.361482H720.592593a56.888889 56.888889 0 0 1 7.774814 7.395555c0 1.137778 1.517037 2.275556 2.275556 3.223704a7.964444 7.964444 0 0 0 1.706667 2.654815 15.36 15.36 0 0 0 4.171851 4.361481 13.463704 13.463704 0 0 0 8.154075 2.465186 10.42963 10.42963 0 0 0 3.413333 0 7.774815 7.774815 0 0 1 7.016296 3.982222 13.653333 13.653333 0 0 1 0 7.205926 44.942222 44.942222 0 0 1-1.517037 6.447407l-1.706667 4.361482 1.327408 1.517037a10.998519 10.998519 0 0 0 2.844444 2.085926 30.90963 30.90963 0 0 0 6.637037 3.223703h1.327408v3.223704h-1.517037a41.908148 41.908148 0 0 1-7.585185-3.034074l-3.602963-2.465185a9.671111 9.671111 0 0 1-3.034074-3.982223v-3.034074l1.517037-3.982222a29.771852 29.771852 0 0 0 1.137777-5.309629 7.205926 7.205926 0 0 0 0-4.361482 2.844444 2.844444 0 0 0-2.465185-1.327407 21.807407 21.807407 0 0 1-4.93037 0 18.962963 18.962963 0 0 1-10.619259-3.223704 21.428148 21.428148 0 0 1-5.688889-5.30963 12.515556 12.515556 0 0 1-2.275556-3.223703 13.842963 13.842963 0 0 0-1.706667-2.465186 61.060741 61.060741 0 0 0-10.24-8.722963l-2.844444-2.275555v2.275555c0 1.517037 0 3.034074 1.327407 4.551112v2.654814a15.36 15.36 0 0 1 0 2.085926 20.29037 20.29037 0 0 1 0 12.136297 79.644444 79.644444 0 0 1-8.533333 18.962963l-1.896296 3.223703a142.980741 142.980741 0 0 0 18.962963 26.358519 66.180741 66.180741 0 0 0 12.894815 10.808889 26.358519 26.358519 0 0 0 14.98074 5.12v2.465185h-1.517037a32.805926 32.805926 0 0 1-15.928889-4.930371 61.44 61.44 0 0 1-14.222222-10.808888 132.740741 132.740741 0 0 1-11.946667-13.084445c-2.654815-3.413333-5.30963-6.826667-7.774814-10.429629l-3.792593 6.826666V665.979259a56.888889 56.888889 0 0 1-1.327407 6.068148v3.602963a79.454815 79.454815 0 0 0-2.654815 18.962963 50.820741 50.820741 0 0 0 0 12.515556c4.93037 2.654815 9.671111 4.93037 14.411852 7.016296A94.814815 94.814815 0 0 0 720.592593 720.592593a33.564444 33.564444 0 0 0 7.964444 1.137777 29.013333 29.013333 0 0 0 6.826667-1.327407h1.706666l8.343704-2.844444 3.982222-1.896297s2.085926-1.327407 2.085926-1.896296v-1.137778h3.413334v1.706667a6.447407 6.447407 0 0 1-3.034075 4.171852 32.426667 32.426667 0 0 1-4.361481 2.465185 59.733333 59.733333 0 0 1-8.533333 3.223704h-1.896297a30.151111 30.151111 0 0 1-7.395555 1.706666h-1.706667a51.579259 51.579259 0 0 1-7.964444 0A132.740741 132.740741 0 0 1 701.62963 720.592593l-9.102223-3.792593a51.38963 51.38963 0 0 0 22.186667 22.755556h1.327407l-1.896296 3.982222h-1.327407l-3.034074-1.517037-5.688889-2.844445-4.361482-2.844444-1.896296-1.517037-2.085926-1.706667-3.602963-3.413333-3.223704-4.171852a8.343704 8.343704 0 0 1-1.517037-2.085926l-2.844444 1.706667a25.6 25.6 0 0 1-7.016296 2.465185 54.423704 54.423704 0 0 1-14.032593 1.706667h-13.842963l-13.274074-2.085926h-1.517037v-3.413334h1.517037l13.274074 1.137778h13.274074a47.407407 47.407407 0 0 0 12.705185-2.275555 23.324444 23.324444 0 0 0 5.49926-2.465186 6.637037 6.637037 0 0 0 2.085926-1.517037v-1.327407a66.56 66.56 0 0 1-2.085926-37.925926 21.997037 21.997037 0 0 1-6.447408 0h-2.275555a54.423704 54.423704 0 0 1-10.808889 0 18.962963 18.962963 0 0 0-10.998519 4.551111l-5.499259 4.551111a14.411852 14.411852 0 0 1-8.154074 3.034074h-2.275556a58.785185 58.785185 0 0 1-12.705185-1.706666c-4.551111-1.327407-9.291852-2.654815-14.032592-4.551112h-1.327408l1.327408-3.792592h1.517037a108.278519 108.278519 0 0 0 13.463703 3.602963 47.597037 47.597037 0 0 0 10.61926 1.327407h3.034074a9.671111 9.671111 0 0 0 5.12-2.085926l5.499259-4.74074a35.84 35.84 0 0 1 6.637037-4.361482 21.428148 21.428148 0 0 1 7.964444-1.896296h12.136297a18.962963 18.962963 0 0 0 8.533333-2.654815 35.081481 35.081481 0 0 0 0-4.361481v-7.016297l1.137778-2.465185c1.896296-4.361481 4.171852-8.343704 6.257778-12.136296a48.165926 48.165926 0 0 0 3.034074-5.30963 67.128889 67.128889 0 0 0 7.205926-16.497778 11.377778 11.377778 0 0 0 0-6.637037 7.395556 7.395556 0 0 0 0-1.137777l1.517037-4.551112a34.702222 34.702222 0 0 1-1.517037-4.74074l-1.706667-5.49926H656.118519a4.361481 4.361481 0 0 1-4.361482-4.361481v-21.807407a103.727407 103.727407 0 0 1-12.705185-3.792593h-2.275556l-6.826666-2.085926a10.998519 10.998519 0 0 0-3.602963 0 7.016296 7.016296 0 0 0-3.223704 1.517037h-1.137778l-2.654815-3.223704 1.137778-0.948148a13.084444 13.084444 0 0 1 5.499259-2.465185h1.517037a15.739259 15.739259 0 0 1 4.171852 0 42.856296 42.856296 0 0 1 7.016297 2.085926h2.465185a111.691852 111.691852 0 0 0 11.188148 3.034074v-72.059259a4.171852 4.171852 0 0 1 4.171852-4.361482 65.991111 65.991111 0 0 0-5.499259-6.068148 56.888889 56.888889 0 0 1-11.188149-21.807407l-0.948148-1.137778a47.217778 47.217778 0 0 1-3.223703-32.995556 10.808889 10.808889 0 0 1 0-2.654814 142.411852 142.411852 0 0 1 37.925925-55.182223 10.808889 10.808889 0 0 0 1.517037-1.517037l2.654815-1.896296a64.284444 64.284444 0 0 1 54.613334-6.637037 16.497778 16.497778 0 0 0 18.962963-8.343704 35.081481 35.081481 0 0 0-7.205926-43.425185 15.928889 15.928889 0 0 0-8.722963-4.361481 141.274074 141.274074 0 0 0-89.125926 16.877037l-3.034074 1.706666c-5.12 2.844444-9.860741 5.878519-14.601482 9.102223l-2.844444 2.085925-2.654815 2.085926a65.232593 65.232593 0 0 0-6.826667 5.30963 197.973333 197.973333 0 0 0-36.598518 45.89037c-13.653333 22.565926-22.945185 43.804444-26.168889 48.734815a18.962963 18.962963 0 0 1-22.186667 4.740741h-3.792592l-3.602963-1.137778H518.257778a94.814815 94.814815 0 0 0-12.136297-0.948148H493.605926a47.217778 47.217778 0 0 1-7.016296-15.17037 141.084444 141.084444 0 0 1-11.188149-55.751111v-2.275556a629.380741 629.380741 0 0 1 0-62.957037 29.202963 29.202963 0 0 0-44.373333-10.24 18.962963 18.962963 0 0 0-8.722963 17.825185 908.515556 908.515556 0 0 1-3.223704 114.915556 149.997037 149.997037 0 0 0-25.031111 88.746666c16.118519 159.288889 83.057778 185.268148 148.100741 206.506667s200.628148 36.219259 223.194074 11.188148 37.546667-44.942222 33.185185-119.277037z" fill="#5E74FE" p-id="8414"></path><path d="M722.299259 493.037037l25.78963-21.238518-3.602963-5.878519a143.17037 143.17037 0 0 0-40.77037-40.201481v1.517037c0 7.774815 0 41.14963-51.768889 37.925925l15.17037 18.962963c0 1.327407 2.085926 2.654815 3.034074 4.171852l2.275556 3.223704h49.303703zM690.441481 567.751111a26.168889 26.168889 0 0 1-11.377777 7.585185 29.013333 29.013333 0 0 1-10.24 1.517037 45.321481 45.321481 0 0 1-8.343704 0v15.54963h35.65037c-1.896296-7.395556-3.792593-14.980741-5.688889-23.703704z" fill="#5E74FE" p-id="8415"></path><path d="M770.465185 456.059259l-16.118518-0.948148a1.517037 1.517037 0 0 0-1.517037 0 2.844444 2.844444 0 0 0 0 1.327408v4.171851a2.275556 2.275556 0 0 0 1.896296 2.275556h7.585185l-37.925926 31.668148a1.896296 1.896296 0 0 0 0 2.654815l2.654815 3.413333a2.085926 2.085926 0 0 0 2.844444 0l37.925926-31.668148v7.585185a2.085926 2.085926 0 0 0 1.706667 2.275556h4.361482a2.085926 2.085926 0 0 0 1.327407 0 1.896296 1.896296 0 0 0 0-1.327408l1.327407-16.118518a5.12 5.12 0 0 0-6.068148-5.30963zM362.951111 784.118519V273.066667l-246.518518-70.352593v-8.722963h400.118518A18.962963 18.962963 0 0 0 530.962963 161.564444a18.962963 18.962963 0 0 0-13.463704-5.688888h-436.148148a18.962963 18.962963 0 0 0-18.962963 18.962963v423.822222a155.117037 155.117037 0 0 1 84.574815-25.97926 156.254815 156.254815 0 0 1 134.447407 236.468149z m-73.955555-247.656297a24.462222 24.462222 0 1 1 24.272592 24.272593 24.082963 24.082963 0 0 1-24.272592-24.272593z" fill="#5E74FE" p-id="8416"></path><path d="M146.962963 600.746667a128.379259 128.379259 0 1 0 128.379259 128.379259 128.568889 128.568889 0 0 0-128.379259-128.379259z m77.748148 91.97037L143.36 777.481481a16.877037 16.877037 0 0 1-11.188148 4.930371H132.740741a16.118519 16.118519 0 0 1-12.136297-4.930371L75.851852 733.866667a17.635556 17.635556 0 0 1-4.740741-11.188148 15.928889 15.928889 0 0 1 27.117037-11.377778l33.185185 32.995555 70.352593-73.576296a14.980741 14.980741 0 0 1 10.998518-4.740741 14.791111 14.791111 0 0 1 11.377778 4.361482 15.928889 15.928889 0 0 1 4.930371 10.998518 15.739259 15.739259 0 0 1-4.361482 11.377778zM508.207407 758.518519l-102.779259-49.114075-12.894815 26.927408 78.127408 37.925926-156.065185 56.888889 10.998518 27.875555 155.117037-55.940741L455.111111 857.505185h32.995556l30.72-67.318518v-1.896297A24.651852 24.651852 0 0 0 508.207407 758.518519z" fill="#5E74FE" p-id="8417"></path></svg>