<?xml version="1.0" standalone="no"?><!DOCTYPE svg PUBLIC "-//W3C//DTD SVG 1.1//EN" "http://www.w3.org/Graphics/SVG/1.1/DTD/svg11.dtd"><svg t="1661316340861" class="icon" viewBox="0 0 1024 1024" version="1.1" xmlns="http://www.w3.org/2000/svg" p-id="6458" xmlns:xlink="http://www.w3.org/1999/xlink" width="200" height="200"><defs><style type="text/css">@font-face { font-family: feedback-iconfont; src: url("//at.alicdn.com/t/font_1031158_u69w8yhxdu.woff2?t=1630033759944") format("woff2"), url("//at.alicdn.com/t/font_1031158_u69w8yhxdu.woff?t=1630033759944") format("woff"), url("//at.alicdn.com/t/font_1031158_u69w8yhxdu.ttf?t=1630033759944") format("truetype"); }
</style></defs><path d="M50.441481 394.808889a18.962963 18.962963 0 0 0 6.447408-1.137778c1.137778 0-13.653333 2.085926 59.922963-13.653333A63.525926 63.525926 0 0 1 141.842963 417.185185c14.032593 39.442963 33.374815 12.515556 107.140741 50.820741s59.543704-10.808889 100.882963 11.188148c65.422222 34.702222 40.201481 18.962963 112.829629 4.171852s25.031111-66.74963 78.127408-67.887407a63.336296 63.336296 0 0 0 12.325926-1.137778 279.324444 279.324444 0 0 1 71.30074-78.506667c-376.794074-90.832593-577.991111 20.100741-581.404444 21.428148a18.962963 18.962963 0 0 0-10.808889 10.24 18.962963 18.962963 0 0 0 18.962963 27.306667zM570.595556 720.592593a75.851852 75.851852 0 0 0-29.771852-6.257778c-52.906667-1.517037-5.12-53.285926-77.558519-68.645926s-47.217778-30.72-112.829629 3.602963c-41.528889 21.617778-26.927407-27.306667-100.882963 10.429629s-93.297778 10.619259-107.52 50.062223a64.474074 64.474074 0 0 1-25.410371 36.029629c-73.576296-16.308148-58.595556-13.653333-59.733333-14.032592a15.739259 15.739259 0 0 0-6.447408-1.327408 18.962963 18.962963 0 0 0-18.962962 27.306667 18.962963 18.962963 0 0 0 10.808888 10.24c3.413333 1.327407 211.816296 118.139259 604.34963 21.048889A272.877037 272.877037 0 0 1 570.595556 720.592593zM84.195556 531.911111A26.548148 26.548148 0 1 0 56.888889 558.459259a26.548148 26.548148 0 0 0 27.306667-26.548148zM130.465185 587.851852a23.324444 23.324444 0 1 0 23.324445-22.755556A23.134815 23.134815 0 0 0 130.465185 587.851852z" fill="#5E74FE" p-id="6459"></path><path d="M239.881481 515.223704m-29.771851 0a29.771852 29.771852 0 1 0 59.543703 0 29.771852 29.771852 0 1 0-59.543703 0Z" fill="#5E74FE" p-id="6460"></path><path d="M290.702222 548.408889a16.687407 16.687407 0 1 0 33.185185 0 16.687407 16.687407 0 0 0-33.185185 0z" fill="#5E74FE" p-id="6461"></path><path d="M380.207407 601.505185m-9.86074 0a9.860741 9.860741 0 1 0 19.721481 0 9.860741 9.860741 0 1 0-19.721481 0Z" fill="#5E74FE" p-id="6462"></path><path d="M436.527407 525.274074m-19.911111 0a19.911111 19.911111 0 1 0 39.822223 0 19.911111 19.911111 0 1 0-39.822223 0Z" fill="#5E74FE" p-id="6463"></path><path d="M80.782222 647.964444m-29.771852 0a29.771852 29.771852 0 1 0 59.543704 0 29.771852 29.771852 0 1 0-59.543704 0Z" fill="#5E74FE" p-id="6464"></path><path d="M805.925926 512c-8.722963 0-13.084444 15.36-13.084445 45.89037s4.551111 47.407407 13.463704 47.028149 13.653333-15.36 13.653334-47.028149S815.407407 510.293333 805.925926 512z" fill="#5E74FE" p-id="6465"></path><path d="M787.152593 323.508148a230.58963 230.58963 0 1 0 230.589629 230.58963 230.58963 230.58963 0 0 0-230.589629-230.58963z m-97.28 295.253333l-87.608889-36.408888v-10.998519L689.872593 606.814815z m0-106.002962l-75.851852 30.34074 75.851852 29.771852v11.757037L602.263704 549.925926v-11.946667l87.608889-35.46074z m50.82074 111.122962c-15.739259 0-24.651852-11.946667-27.117037-37.925925l13.463704-6.068149q3.034074 23.324444 13.653333 23.324445c8.912593-0.948148 13.463704-7.205926 13.463704-18.962963 0-14.222222-4.740741-21.238519-14.032593-21.238519h-9.481481v-18.962963H739.555556c7.395556 0 11.188148-6.826667 11.188148-18.962963s-3.223704-15.17037-9.860741-15.17037-10.42963 6.826667-12.136296 20.48l-14.032593-6.637037c2.654815-21.997037 11.377778-33.185185 25.78963-33.754074s24.462222 12.894815 25.22074 35.84a31.288889 31.288889 0 0 1-11.377777 26.548148 33.564444 33.564444 0 0 1 14.411852 32.426667c-0.379259 25.220741-10.24 38.115556-28.065186 39.063703z m65.611852 0c-18.962963 0-28.634074-21.048889-28.254815-65.611851s10.05037-66.37037 28.254815-67.697778 28.444444 22.565926 28.444445 66.37037-9.481481 66.37037-28.444445 66.939259z m100.882963-3.792592h-9.860741v-37.925926c0-9.291852-2.654815-13.842963-7.964444-13.842963s-8.533333 5.878519-9.291852 15.17037v37.925926h-10.05037v-37.925926c0-9.291852-2.465185-13.842963-7.205926-13.842963s-9.102222 5.499259-9.671111 14.791112v37.925925h-10.24V555.614815H853.333333v7.585185a13.084444 13.084444 0 0 1 24.841482 1.327407c3.602963-6.637037 7.964444-9.860741 12.894815-9.86074 10.619259 0 16.118519 8.912593 16.308148 25.789629z m18.962963 0h-10.24v-64.474074h10.24z m0-70.731852h-10.24v-15.928889h10.24zM967.111111 620.088889v-37.925926c0-9.481481-2.844444-14.411852-8.343704-14.601482s-10.998519 6.257778-11.567407 16.308149v37.925926h-9.860741V555.614815h9.860741v7.016296a14.980741 14.980741 0 0 1 13.274074-8.343704q16.497778 0 17.066667 26.168889v39.632593z" fill="#5E74FE" p-id="6466"></path></svg>