<?xml version="1.0" standalone="no"?><!DOCTYPE svg PUBLIC "-//W3C//DTD SVG 1.1//EN" "http://www.w3.org/Graphics/SVG/1.1/DTD/svg11.dtd"><svg t="1659430534394" class="icon" viewBox="0 0 1024 1024" version="1.1" xmlns="http://www.w3.org/2000/svg" p-id="6209" xmlns:xlink="http://www.w3.org/1999/xlink" width="200" height="200"><defs><style type="text/css">@font-face { font-family: feedback-iconfont; src: url("//at.alicdn.com/t/font_1031158_u69w8yhxdu.woff2?t=1630033759944") format("woff2"), url("//at.alicdn.com/t/font_1031158_u69w8yhxdu.woff?t=1630033759944") format("woff"), url("//at.alicdn.com/t/font_1031158_u69w8yhxdu.ttf?t=1630033759944") format("truetype"); }
</style></defs><path d="M344.936296 301.700741c-5.12-18.962963-9.860741-40.77037-14.791111-59.733334h-0.948148c-4.551111 18.962963-9.481481 41.14963-14.222222 59.733334l-3.982222 15.739259h37.925926z" fill="#5E74FE" p-id="6210"></path><path d="M777.481481 640.379259a201.007407 201.007407 0 0 1 94.814815 24.272593V115.674074a61.819259 61.819259 0 0 0-61.629629-61.62963H153.41037A61.819259 61.819259 0 0 0 91.780741 115.674074v780.894815a61.819259 61.819259 0 0 0 61.629629 61.819259h461.748149a197.783704 197.783704 0 0 1-39.632593-118.897778A200.438519 200.438519 0 0 1 777.481481 640.379259zM646.257778 322.37037l-23.703704-10.05037a54.234074 54.234074 0 0 1-37.925926-50.820741c0-31.288889 27.875556-56.888889 67.318519-56.888889a85.712593 85.712593 0 0 1 60.302222 24.462223l-22.186667 27.875555a60.871111 60.871111 0 0 0-37.925926-14.222222c-13.653333 0-22.186667 5.499259-22.186666 15.54963s11.757037 14.222222 28.254814 20.669629l23.134815 9.291852a51.01037 51.01037 0 0 1 36.598519 50.820741c0 30.90963-25.78963 58.216296-70.731852 58.216296a104.106667 104.106667 0 0 1-69.404445-26.737778L603.211852 341.333333a74.714074 74.714074 0 0 0 45.131852 18.962963c16.497778 0 24.272593-6.257778 24.272592-16.118518s-10.24-14.980741-26.358518-21.807408zM512 205.368889a78.696296 78.696296 0 0 1 56.888889 24.272592l-23.514074 28.444445a45.700741 45.700741 0 0 0-33.374815-14.601482c-24.082963 0-43.804444 21.428148-43.804444 56.888889S485.641481 360.296296 512 360.296296a48.165926 48.165926 0 0 0 35.460741-16.877037l23.514074 27.875556A77.558519 77.558519 0 0 1 510.103704 398.222222c-47.217778 0-87.04-32.426667-87.04-94.814815s41.339259-98.038519 88.936296-98.038518zM303.407407 208.592593h53.285926l56.888889 185.647407h-45.511111l-10.808889-42.666667H303.407407l-10.808888 42.666667H246.518519z m-98.986666 297.528888h555.614815a25.220741 25.220741 0 1 1 0 50.441482h-555.614815a25.220741 25.220741 0 1 1 0-50.441482z m265.481481 335.454815h-265.481481a25.220741 25.220741 0 1 1 0-50.251852h265.481481a25.220741 25.220741 0 0 1 0 50.251852z m79.454815-142.411852H204.420741a25.220741 25.220741 0 0 1 0-50.441481h344.367407a25.220741 25.220741 0 1 1 0 50.441481zM864.900741 877.037037H828.681481v10.998519h36.788149zM828.681481 855.798519h36.21926v10.998518H828.681481z" fill="#5E74FE" p-id="6211"></path><path d="M777.481481 671.857778a167.632593 167.632593 0 1 0 169.14963 167.632592A168.580741 168.580741 0 0 0 777.481481 671.857778z m18.962963 253.724444h-102.21037v-27.306666h36.408889v-107.330371h-30.72v-20.859259a107.899259 107.899259 0 0 0 39.632593-14.411852h25.031111v142.601482H796.444444z m80.023704-13.842963c0 6.637037-1.517037 9.671111-5.688889 11.377778a54.423704 54.423704 0 0 1-18.962963 2.085926 55.561481 55.561481 0 0 0-4.551111-11.188148h15.928889c2.085926 0 2.844444 0 2.844445-2.654815v-13.084444h-37.925926a47.407407 47.407407 0 0 1-15.36 27.117037 39.632593 39.632593 0 0 0-8.154074-7.774815 52.717037 52.717037 0 0 0 14.791111-42.666667v-29.582222h58.785185z" fill="#5E74FE" p-id="6212"></path></svg>