<?xml version="1.0" standalone="no"?><!DOCTYPE svg PUBLIC "-//W3C//DTD SVG 1.1//EN" "http://www.w3.org/Graphics/SVG/1.1/DTD/svg11.dtd"><svg t="1659430542619" class="icon" viewBox="0 0 1024 1024" version="1.1" xmlns="http://www.w3.org/2000/svg" p-id="6346" xmlns:xlink="http://www.w3.org/1999/xlink" width="200" height="200"><defs><style type="text/css">@font-face { font-family: feedback-iconfont; src: url("//at.alicdn.com/t/font_1031158_u69w8yhxdu.woff2?t=1630033759944") format("woff2"), url("//at.alicdn.com/t/font_1031158_u69w8yhxdu.woff?t=1630033759944") format("woff"), url("//at.alicdn.com/t/font_1031158_u69w8yhxdu.ttf?t=1630033759944") format("truetype"); }
</style></defs><path d="M523.377778 853.333333H153.031111v-43.614814H549.925926c4.740741-7.774815 9.481481-15.928889 14.601481-24.651852H153.031111v-43.045926h436.148148l22.565926-37.925926c36.408889-62.008889 74.145185-126.103704 78.506667-134.447408a56.888889 56.888889 0 0 1 50.631111-31.857777h2.465185V241.588148c0-37.925926-18.962963-68.077037-56.888889-68.077037h-94.814815a70.162963 70.162963 0 0 0-69.973333-69.973333h-3.982222A70.352593 70.352593 0 0 0 450.56 56.888889h-93.297778a70.352593 70.352593 0 0 0-65.991111 46.648889h-3.982222a69.973333 69.973333 0 0 0-69.973333 69.973333h-94.814815c-37.925926 0-59.164444 30.53037-59.164445 68.077037v657.635556c0 37.925926 21.617778 67.887407 59.164445 67.887407h368.45037a63.715556 63.715556 0 0 1-6.257778-27.685926 65.611852 65.611852 0 0 1 6.637037-29.202963c3.223704-6.068148 14.601481-25.979259 32.047408-56.888889z m60.112592-465.351111l18.962963-18.962963 11.188148 68.077037-63.715555-14.98074 18.962963-18.962963-42.856296-46.648889-23.893334 22.755555-73.007407-73.007407 14.601481-14.601482 58.405926 58.595556 24.651852-24.082963zM287.288889 150.186667h46.648889V126.862222a23.514074 23.514074 0 0 1 23.324444-23.324444h93.297778A23.514074 23.514074 0 0 1 474.074074 126.862222v23.324445h46.838519a23.514074 23.514074 0 0 1 23.324444 23.324444H263.964444a23.324444 23.324444 0 0 1 23.324445-23.324444z m-69.404445 488.106666H246.518519v-265.481481a12.894815 12.894815 0 0 1 12.894814-12.894815h55.751111a12.894815 12.894815 0 0 1 12.894815 12.894815v265.481481h36.21926V440.699259a13.084444 13.084444 0 0 1 13.084444-12.894815h55.751111a13.084444 13.084444 0 0 1 12.894815 12.894815v197.594074h36.219259v-136.912592a12.705185 12.705185 0 0 1 12.894815-12.894815h55.751111a12.705185 12.705185 0 0 1 12.894815 12.894815v136.912592H587.851852V663.703704H217.884444zM959.715556 924.065185c-8.533333-17.066667-182.802963-310.613333-197.783704-339.816296a23.324444 23.324444 0 0 0-42.856296 0c-10.998519 21.048889-186.026667 315.922963-198.162963 341.333333A28.065185 28.065185 0 0 0 542.151111 967.111111h396.325926a28.065185 28.065185 0 0 0 21.238519-43.045926z m-191.146667-18.962963H720.592593v-41.718518h48.924444z m-14.032593-62.577778h-20.859259L720.592593 695.371852h48.924444z" fill="#5E74FE" p-id="6347"></path></svg>