<?xml version="1.0" standalone="no"?><!DOCTYPE svg PUBLIC "-//W3C//DTD SVG 1.1//EN" "http://www.w3.org/Graphics/SVG/1.1/DTD/svg11.dtd"><svg t="1659430605221" class="icon" viewBox="0 0 1024 1024" version="1.1" xmlns="http://www.w3.org/2000/svg" p-id="7996" xmlns:xlink="http://www.w3.org/1999/xlink" width="200" height="200"><defs><style type="text/css">@font-face { font-family: feedback-iconfont; src: url("//at.alicdn.com/t/font_1031158_u69w8yhxdu.woff2?t=1630033759944") format("woff2"), url("//at.alicdn.com/t/font_1031158_u69w8yhxdu.woff?t=1630033759944") format("woff"), url("//at.alicdn.com/t/font_1031158_u69w8yhxdu.ttf?t=1630033759944") format("truetype"); }
</style></defs><path d="M143.36 408.462222c7.205926 26.168889 84.574815 27.875556 75.851852-11.377778-26.168889-119.466667 74.903704-189.62963 113.777778-116.622222l70.921481-26.927407a190.767407 190.767407 0 0 0-30.151111-39.632593 305.493333 305.493333 0 0 0 59.922963-97.469629l-70.731852-14.980741a268.894815 268.894815 0 0 1-53.665185 78.317037 136.154074 136.154074 0 0 0 7.774815-88.557037H254.103704a158.53037 158.53037 0 0 1-11.757037 94.814815C151.703704 211.247407 120.604444 323.887407 143.36 408.462222zM77.937778 255.051852c17.635556 3.413333 32.995556 7.016296 47.217778 11.188148h1.896296a6.257778 6.257778 0 0 0 5.688889-3.792593 195.697778 195.697778 0 0 1 9.102222-18.962963 6.447407 6.447407 0 0 0 0-5.309629 5.878519 5.878519 0 0 0-3.792593-3.602963 526.411852 526.411852 0 0 0-53.854814-12.894815 17.066667 17.066667 0 0 0-6.447408 33.374815zM108.468148 205.748148a325.594074 325.594074 0 0 1 47.597037 9.671111h1.706667a6.826667 6.826667 0 0 0 4.740741-2.085926 124.776296 124.776296 0 0 1 16.497777-16.687407 6.257778 6.257778 0 0 0 1.896297-5.878519 5.878519 5.878519 0 0 0-4.171852-4.74074A375.845926 375.845926 0 0 0 113.777778 171.994074a17.256296 17.256296 0 0 0-18.962963 14.791111 17.066667 17.066667 0 0 0 13.653333 18.962963zM566.802963 360.296296a16.877037 16.877037 0 0 0-11.188148-21.238518 277.617778 277.617778 0 0 0-121.552593-12.515556 250.500741 250.500741 0 0 0-109.605926 44.373334 5.878519 5.878519 0 0 0-2.085926 8.343703c1.896296 2.844444 15.739259 11.757037 17.256297 14.032593a6.257778 6.257778 0 0 0 5.12 2.844444 6.637037 6.637037 0 0 0 3.413333-0.948148 213.333333 213.333333 0 0 1 89.884444-35.271111 246.518519 246.518519 0 0 1 106.951112 11.377778 17.066667 17.066667 0 0 0 21.807407-10.998519z" fill="#5E74FE" p-id="7997"></path><path d="M312.32 280.272593a29.961481 29.961481 0 0 0-35.84-2.654815 6.257778 6.257778 0 0 0-3.223704 4.361481 5.688889 5.688889 0 0 0 1.517037 5.12A184.699259 184.699259 0 0 1 303.407407 332.041481v1.517038a16.877037 16.877037 0 0 0 10.24 7.774814 17.635556 17.635556 0 0 0 4.361482 0 18.962963 18.962963 0 0 0 8.533333-2.275555A258.085926 258.085926 0 0 1 438.044444 303.407407a296.011852 296.011852 0 0 1 112.82963 14.791112 17.066667 17.066667 0 0 0 21.238519-11.188149 17.445926 17.445926 0 0 0-11.188149-21.428148A331.851852 331.851852 0 0 0 436.148148 269.274074a279.703704 279.703704 0 0 0-109.605926 32.237037c-4.171852-7.016296-9.291852-14.222222-14.222222-21.238518zM472.557037 493.037037a111.691852 111.691852 0 0 0 5.499259-117.76 5.878519 5.878519 0 0 0-5.12-3.223704 51.768889 51.768889 0 0 0-15.17037 0h-5.499259l-6.257778 0.948148a6.257778 6.257778 0 0 0-4.740741 3.982223 6.068148 6.068148 0 0 0 0.948148 5.878518 75.851852 75.851852 0 0 1 16.118519 36.788148 69.025185 69.025185 0 0 1-7.964445 47.786667 81.540741 81.540741 0 0 1-7.964444 10.619259c-11.567407 13.274074-16.118519 20.100741-14.411852 30.151111L474.074074 555.235556a152.651852 152.651852 0 0 0-11.567407-47.217778 162.322963 162.322963 0 0 0 10.808889-14.601482zM737.659259 583.111111h14.980741v386.275556h-14.980741z" fill="#5E74FE" p-id="7998"></path><path d="M745.244444 549.925926a225.659259 225.659259 0 0 0-193.232592 109.226667v-53.665186a6.257778 6.257778 0 0 0-1.706667-4.361481 7.395556 7.395556 0 0 0-4.361481-1.706667h-13.274074a6.068148 6.068148 0 0 0-6.257778 6.068148v23.893334L417.185185 518.826667a6.068148 6.068148 0 0 0-8.343704 0V460.8a6.068148 6.068148 0 0 0-6.068148-6.257778h-26.358518c0-1.896296 0-3.792593-1.327408-6.068148a30.151111 30.151111 0 0 0 18.962963-6.257778 45.321481 45.321481 0 0 0 13.653334-32.616296 2.275556 2.275556 0 0 0-2.275556-2.275556H398.222222a2.275556 2.275556 0 0 0-2.275555 2.275556 33.185185 33.185185 0 0 1-9.102223 22.755556 20.48 20.48 0 0 1-18.962963 2.844444 125.534815 125.534815 0 0 1-59.543703-41.14963 2.275556 2.275556 0 0 0-3.223704 0l-6.257778 4.740741a2.275556 2.275556 0 0 0 0 1.517037 1.896296 1.896296 0 0 0 0 1.706667A139.188148 139.188148 0 0 0 360.296296 446.198519a44.942222 44.942222 0 0 1 3.034074 8.343703h-52.148148a6.257778 6.257778 0 0 0-6.257778 6.257778v86.281481a6.257778 6.257778 0 0 0 6.257778 6.068149h37.925926a37.925926 37.925926 0 0 1 1.327408 22.565926 132.740741 132.740741 0 0 0 4.74074 74.524444c1.327407 4.361481 2.465185 8.343704 3.034074 11.188148a31.668148 31.668148 0 0 1-6.826666 20.859259c-5.688889 9.481481-12.705185 21.238519-3.792593 32.995556S341.333333 741.641481 341.333333 742.21037a2.275556 2.275556 0 0 0 0 1.517037 146.962963 146.962963 0 0 1-14.032592 7.585186 43.235556 43.235556 0 0 1-16.118519 4.171851c-26.168889 0-84.764444-59.922963-123.638518-99.934814-16.308148-16.687407-30.340741-31.099259-40.580741-40.201482A161.564444 161.564444 0 0 1 94.814815 532.66963V530.962963c-5.12-25.6-9.860741-49.682963 5.12-69.783704a22.376296 22.376296 0 0 0-4.551111-31.288889 17.445926 17.445926 0 0 0-14.791111-3.792592 21.807407 21.807407 0 0 0-9.291852 6.257778 139.757037 139.757037 0 0 1 8.343703-37.925926 116.432593 116.432593 0 0 1 24.651852-40.391111 5.878519 5.878519 0 0 0 1.706667-4.171852 35.84 35.84 0 0 1 5.499259-18.014815 67.128889 67.128889 0 0 0 7.016297-18.962963 6.257778 6.257778 0 0 0-2.844445-6.257778 5.688889 5.688889 0 0 0-6.637037 0c-4.361481 2.844444-8.722963 6.257778-13.274074 9.860741a166.494815 166.494815 0 0 0-48.545185 69.214815 111.881481 111.881481 0 0 0 2.654815 86.281481 117.191111 117.191111 0 0 0 8.533333 14.980741 136.722963 136.722963 0 0 0 0 54.044444A191.146667 191.146667 0 0 0 120.604444 644.740741c12.515556 10.808889 27.117037 25.979259 42.666667 42.097778 46.838519 48.165926 99.555556 102.968889 146.014815 102.968888h3.034074a93.487407 93.487407 0 0 0 31.478519-7.774814c59.922963-26.168889 112.45037-101.831111 126.482962-174.45926l38.874075 39.063704H485.451852a6.068148 6.068148 0 0 0-6.257778 6.068148v13.463704a5.878519 5.878519 0 0 0 1.706667 4.171852 6.068148 6.068148 0 0 0 4.361481 1.706666h51.958519a17.635556 17.635556 0 0 0 8.722963-3.982222A226.038519 226.038519 0 1 0 745.244444 549.925926z m-386.844444-8.154074a37.925926 37.925926 0 0 1 3.413333-38.874074 74.714074 74.714074 0 0 0 15.36-35.081482H398.222222v73.955556z m-41.14963-73.955556h47.407408a68.456296 68.456296 0 0 1-13.274074 28.065185 49.493333 49.493333 0 0 0-6.068148 45.890371h-28.065186z m46.08 259.034074a27.685926 27.685926 0 0 0-5.688889-18.962963c-3.602963-4.740741-1.327407-9.481481 4.361482-18.962963a41.718519 41.718519 0 0 0 8.533333-29.771851c0-3.413333-1.896296-7.774815-3.223703-12.325926a125.345185 125.345185 0 0 1-5.878519-62.767408l11.946667 11.567408a1.327407 1.327407 0 0 1 0 1.137777v23.324445a13.842963 13.842963 0 0 0 7.205926 12.325926l18.962963 11.377778a1.517037 1.517037 0 0 1 0 1.327407 109.226667 109.226667 0 0 0 4.171851 28.823704 258.465185 258.465185 0 0 1-40.391111 51.958518z m56.888889-78.317037l-8.722963-10.05037a14.222222 14.222222 0 0 0-4.74074-4.740741l-18.962963-11.188148a1.896296 1.896296 0 0 1 0-1.517037v-24.462222a14.032593 14.032593 0 0 0-4.361482-10.24L364.088889 568.888889a54.802963 54.802963 0 0 0-2.085926-15.928889h41.528889a6.068148 6.068148 0 0 0 6.068148-6.068148l32.237037 32.237037a194.180741 194.180741 0 0 1-21.238518 68.456296zM530.962963 775.016296A213.712593 213.712593 0 0 1 644.740741 587.851852a687.407407 687.407407 0 0 0-3.792593 374.139259 213.902222 213.902222 0 0 1-109.985185-186.974815z m130.085926 196.645926a8.343704 8.343704 0 0 0 0-5.309629c-5.12-17.256296-9.291852-34.133333-12.894815-51.010371a31.478519 31.478519 0 0 1 18.962963-12.325926c20.100741-6.637037 6.637037-16.687407 26.737778-53.285926s-10.05037-36.788148 6.637037-69.973333 9.860741-18.962963 3.223704-56.888889-33.185185-13.274074-33.185186-39.822222a36.02963 36.02963 0 0 0-22.376296-34.512593 499.863704 499.863704 0 0 1 14.222222-56.888889 9.102222 9.102222 0 0 0 0-7.395555 9.291852 9.291852 0 0 0-4.74074-4.551111 212.574815 212.574815 0 0 1 170.666666-2.465185 9.481481 9.481481 0 0 0-1.706666 5.499259 8.912593 8.912593 0 0 0 0 3.223704 495.691852 495.691852 0 0 1 14.791111 59.922963 30.72 30.72 0 0 1-18.962963 12.325925c-18.962963 6.637037-6.637037 16.687407-26.548148 53.285926s9.860741 36.598519-6.637037 69.973334-10.05037 18.962963-3.413334 56.888889 33.374815 13.274074 33.374815 40.011851a36.408889 36.408889 0 0 0 20.100741 33.564445c-3.223704 15.928889-7.395556 32.237037-12.325926 48.734815a9.481481 9.481481 0 0 0 3.223704 10.05037 210.299259 210.299259 0 0 1-85.333334 17.825185 212.574815 212.574815 0 0 1-83.247407-16.877037z m185.457778-8.722963a695.561481 695.561481 0 0 0 0-375.845926 213.712593 213.712593 0 0 1 0 375.845926z" fill="#5E74FE" p-id="7999"></path></svg>