<?xml version="1.0" standalone="no"?><!DOCTYPE svg PUBLIC "-//W3C//DTD SVG 1.1//EN" "http://www.w3.org/Graphics/SVG/1.1/DTD/svg11.dtd"><svg t="1661316332196" class="icon" viewBox="0 0 1024 1024" version="1.1" xmlns="http://www.w3.org/2000/svg" p-id="6185" xmlns:xlink="http://www.w3.org/1999/xlink" width="200" height="200"><defs><style type="text/css">@font-face { font-family: feedback-iconfont; src: url("//at.alicdn.com/t/font_1031158_u69w8yhxdu.woff2?t=1630033759944") format("woff2"), url("//at.alicdn.com/t/font_1031158_u69w8yhxdu.woff?t=1630033759944") format("woff"), url("//at.alicdn.com/t/font_1031158_u69w8yhxdu.ttf?t=1630033759944") format("truetype"); }
</style></defs><path d="M325.404444 525.842963c-29.392593 8.343704-48.355556 31.478519-42.666666 51.768889s34.133333 29.961481 63.336296 21.617778 48.355556-30.340741 42.666667-51.57926-34.133333-29.961481-63.336297-21.807407z m14.411852 51.2c-18.962963 5.12-35.460741-0.948148-39.063703-13.463704s8.343704-26.548148 26.358518-31.668148 35.460741 0.948148 38.874074 13.274074-8.154074 26.737778-26.168889 31.857778zM205.937778 834.37037c-29.013333-9.291852-56.888889 0-64.094815 18.962963s12.136296 43.804444 41.14963 52.906667 56.888889 0 63.905185-18.962963-11.946667-43.614815-40.96-52.906667zM189.62963 885.191111c-18.014815-5.688889-29.202963-20.29037-25.410371-32.616296s21.617778-17.825185 39.442963-12.136296 29.582222 20.29037 25.6 31.857777-20.66963 18.962963-39.632592 12.894815zM248.604444 729.884444c-20.100741-22.755556-44.942222-33.564444-55.371851-24.462222s-2.465185 35.271111 17.635555 58.026667 45.131852 32.995556 55.561482 24.462222 2.465185-35.271111-17.825186-58.026667z m-26.168888 23.324445c-12.515556-13.842963-17.445926-29.961481-10.998519-35.65037s21.807407 1.137778 34.133333 15.17037 17.256296 29.961481 10.998519 35.65037-21.807407-1.137778-34.133333-15.17037zM323.697778 629.380741c-45.131852 12.705185-74.714074 48.355556-65.801482 79.644444s52.527407 46.26963 97.65926 33.564445 74.524444-48.545185 65.801481-79.644445-52.717037-46.26963-97.659259-33.564444z m22.186666 78.885926c-27.875556 7.774815-54.613333-1.517037-60.112592-20.66963s12.705185-41.14963 40.391111-49.114074 54.802963 1.517037 60.112593 20.66963-12.705185 41.14963-40.391112 49.114074zM89.125926 725.712593c-43.045926 12.325926-70.921481 47.407407-62.008889 78.696296s51.01037 46.648889 94.814815 34.512592 70.921481-47.407407 62.008889-78.696296-51.2-46.648889-94.814815-34.512592z m22.376296 78.885926c-26.548148 7.585185-52.527407-2.085926-56.888889-21.238519s11.567407-40.96 37.925926-48.355556 52.527407 2.085926 57.837037 21.238519-12.325926 40.201481-38.874074 48.355556zM111.122963 660.66963c-18.962963 5.499259-33.374815 18.962963-30.72 28.254814s21.238519 13.653333 40.96 7.964445 33.374815-18.962963 30.53037-28.065185-21.048889-13.653333-40.77037-8.154074z m7.016296 25.22074c-12.136296 3.413333-23.324444 1.327407-25.031111-4.93037s6.637037-13.842963 18.962963-17.256296 23.324444-1.327407 25.031111 4.93037-6.826667 14.032593-18.962963 17.256296zM311.182222 794.168889c-33.943704 25.41037-47.217778 64.853333-29.771852 88.367407s59.164444 22.186667 93.297778-3.034074 47.217778-64.853333 29.771852-88.367407-59.164444-22.186667-93.297778 3.034074zM355.365926 853.333333c-20.859259 15.54963-46.459259 16.497778-56.888889 2.085926s-2.654815-37.925926 18.962963-54.423703 46.459259-16.497778 56.888889-1.896297 1.896296 38.874074-18.962963 54.234074z" fill="#5E74FE" p-id="6186"></path><path d="M865.659259 191.525926c-399.54963 0-596.195556 208.592593-596.385185 208.592593-70.542222 53.854815-85.902222 167.632593-72.817778 246.518518a339.437037 339.437037 0 0 0 15.170371 56.888889l10.619259-2.465185a262.637037 262.637037 0 0 1-12.705185-65.991111c-6.257778-109.795556 54.423704-202.714074 135.964444-207.454815s152.651852 80.402963 159.099259 189.629629c5.12 87.988148-32.995556 164.788148-90.074074 194.56v14.791112h3.223704a230.779259 230.779259 0 0 0 113.208889-77.748149c204.98963-244.053333 377.362963-243.484444 377.362963-243.484444a142.032593 142.032593 0 0 0 71.49037-113.777778c0-157.392593-114.157037-200.059259-114.157037-200.059259zM259.223704 779.567407l35.65037 29.582223 5.30963-5.49926-40.96-43.045926v18.962963z" fill="#5E74FE" p-id="6187"></path></svg>