<?xml version="1.0" standalone="no"?><!DOCTYPE svg PUBLIC "-//W3C//DTD SVG 1.1//EN" "http://www.w3.org/Graphics/SVG/1.1/DTD/svg11.dtd"><svg t="1659430609273" class="icon" viewBox="0 0 1024 1024" version="1.1" xmlns="http://www.w3.org/2000/svg" p-id="8133" xmlns:xlink="http://www.w3.org/1999/xlink" width="200" height="200"><defs><style type="text/css">@font-face { font-family: feedback-iconfont; src: url("//at.alicdn.com/t/font_1031158_u69w8yhxdu.woff2?t=1630033759944") format("woff2"), url("//at.alicdn.com/t/font_1031158_u69w8yhxdu.woff?t=1630033759944") format("woff"), url("//at.alicdn.com/t/font_1031158_u69w8yhxdu.ttf?t=1630033759944") format("truetype"); }
</style></defs><path d="M468.195556 496.260741l-12.894815 12.705185 36.598518 36.977778h-146.204444v18.014815h146.204444L455.111111 601.125926l12.894815 12.515555 47.407407-48.165925v-0.948149a14.791111 14.791111 0 0 0 0-18.962963zM303.407407 389.878519L371.863704 360.296296v34.512593c26.548148-14.411852 56.888889-11.377778 73.955555-34.891852l-3.223703-7.395556-56.888889 22.565926c0-11.757037-1.517037-21.428148-2.465186-35.65037l-81.351111 44.942222zM350.814815 455.111111c21.048889 2.654815 41.14963 5.688889 61.25037 7.585185 3.413333 0 7.395556-3.792593 10.998519-5.878518-3.413333-2.844444-6.637037-7.585185-10.050371-7.774815h-48.165926c4.171852-12.325926 6.826667-18.962963 10.61926-30.53037l-74.714074 5.309629v4.361482l56.888888 3.413333c-1.706667 7.016296-3.982222 14.032593-6.826666 23.514074zM334.696296 336.213333c37.925926-31.478519 49.682963-47.976296 41.14963-62.577777l-37.925926 45.511111-18.962963-22.945186-39.632593 65.611852 3.223704 2.275556 37.925926-49.303704c6.826667 7.585185 10.42963 14.791111 14.222222 21.428148zM869.262222 615.158519v11.567407h13.274074v-11.567407A8.154074 8.154074 0 0 1 891.259259 606.814815h39.632593a8.154074 8.154074 0 0 1 8.154074 8.154074v11.567407h13.274074v-11.757037a21.617778 21.617778 0 0 0-21.428148-21.617778H891.259259a21.428148 21.428148 0 0 0-21.997037 21.997038zM921.78963 663.134815h-23.324445v19.721481L878.554074 682.666667v23.324444h19.721482l-0.18963 19.911111h23.324444v-19.721481l19.911111 0.189629 0.18963-23.324444H921.6l0.18963-19.911111zM655.17037 138.998519H822.802963V114.915556 63.336296a18.962963 18.962963 0 0 0-20.66963-21.997037l-120.983703-0.948148h-7.016297l-4.74074 1.327408a71.68 71.68 0 0 0-11.946667 3.602962 18.962963 18.962963 0 0 0-12.325926 18.962963v65.042963c-0.379259 7.395556 1.896296 9.671111 10.05037 9.671112z m46.26963-56.888889h25.031111V56.888889h16.687408v24.841481h24.841481v16.497778h-25.031111V123.259259h-16.687408V98.228148H701.62963zM705.611852 247.845926a29.961481 29.961481 0 0 0-8.533333 3.223704h-1.706667a14.791111 14.791111 0 0 0-5.12 2.654814 12.325926 12.325926 0 0 0-5.30963 10.050371 109.037037 109.037037 0 0 0 32.426667 71.111111 31.099259 31.099259 0 0 0 20.29037 8.154074 33.754074 33.754074 0 0 0 22.755556-9.671111 102.4 102.4 0 0 0 29.582222-59.164445c2.844444-14.980741 1.517037-17.635556-12.136296-23.514074h-1.517037a24.082963 24.082963 0 0 0-13.463704-2.275555 89.505185 89.505185 0 0 0 21.428148-10.42963 88.177778 88.177778 0 0 0 37.925926-64.663704c0-6.068148 0-12.136296 1.137778-18.962962v-13.463704L644.740741 140.705185v21.428148a85.712593 85.712593 0 0 0 23.703703 61.44 94.814815 94.814815 0 0 0 37.167408 24.272593z m44.562963 8.912593c-3.034074 3.982222-6.257778 7.585185-9.671111 11.377777l-1.137778 1.327408-2.844445-2.465185a65.422222 65.422222 0 0 1-8.912592-9.102223 29.392593 29.392593 0 0 0-5.688889-6.068148 95.762963 95.762963 0 0 0 12.705185 1.137778 91.591111 91.591111 0 0 0 23.893334-3.223704 18.962963 18.962963 0 0 0-8.343704 7.016297zM654.980741 151.703704h158.72v2.844444a125.155556 125.155556 0 0 1 0 17.066667 78.127407 78.127407 0 0 1-136.722963 44.183704 72.817778 72.817778 0 0 1-20.859259-54.044445z" fill="#5E74FE" p-id="8134"></path><path d="M969.765926 630.518519h-118.708148a24.841481 24.841481 0 0 0-22.376297 14.222222v-40.011852a43.235556 43.235556 0 0 1 1.327408-10.24 72.248889 72.248889 0 0 1 2.465185-8.533333 69.973333 69.973333 0 0 0 3.413333-16.118519V425.528889a32.995556 32.995556 0 0 1 5.30963 12.136296 339.437037 339.437037 0 0 1 4.551111 109.037037 37.925926 37.925926 0 0 0 18.962963 39.253334h1.137778a149.807407 149.807407 0 0 0 18.962963 0 46.838519 46.838519 0 0 0 13.084444 0 33.754074 33.754074 0 0 0 21.238519-29.582223v-18.962963a656.877037 656.877037 0 0 0 0-66.939259 227.555556 227.555556 0 0 0-66.74963-154.927407 284.444444 284.444444 0 0 0-49.872592-37.925926 3.792593 3.792593 0 0 0-2.085926 0h-1.327408a4.740741 4.740741 0 0 0-2.654815 2.465185l-3.792592 10.24a376.983704 376.983704 0 0 1-8.722963 32.047407 60.491852 60.491852 0 0 1-34.891852 31.857778h-1.137778a10.42963 10.42963 0 0 0-3.602963 5.878519 35.271111 35.271111 0 0 0 12.325926 32.616296 43.994074 43.994074 0 0 1 9.291852 51.768889 154.358519 154.358519 0 0 1-8.154074 16.877037 18.962963 18.962963 0 0 0-2.844444 14.791111 16.687407 16.687407 0 0 1-2.085926 13.842963 18.962963 18.962963 0 0 1-12.705186 7.964444h-3.413333a17.825185 17.825185 0 0 1-17.825185-14.601481 18.962963 18.962963 0 0 1 14.411852-21.997037h1.327407a11.757037 11.757037 0 0 0 5.499259-2.085926 40.96 40.96 0 0 0 2.465186-56.888889 54.423704 54.423704 0 0 1-15.36-42.097778 10.808889 10.808889 0 0 0-2.844445-5.688889h-0.948148a61.44 61.44 0 0 1-31.857778-31.857777c-5.12-11.188148-9.291852-22.376296-13.463703-34.322963l-3.602963-10.050371a3.792593 3.792593 0 0 0-2.654815-2.465185h-1.327408a3.792593 3.792593 0 0 0-2.085926 0l-1.896296 1.327408c-5.878519 3.602963-12.325926 7.964444-18.962963 12.325925a212.764444 212.764444 0 0 0-81.161481 100.124445 356.124444 356.124444 0 0 0-16.118519 172.562963 37.925926 37.925926 0 0 0 33.754074 29.582222h2.085926a36.598519 36.598519 0 0 0 26.168889-10.24 46.26963 46.26963 0 0 0 11.946667-35.84c-1.327407-24.841481-1.517037-48.734815 0-70.921481a222.056296 222.056296 0 0 1 4.361481-31.857778v-1.327408q1.517037-6.257778 2.275556-12.515555v-0.948148h3.602963V568.888889a104.485926 104.485926 0 0 0 1.896296 17.066667v3.034074c0 2.085926 0.948148 4.171852 1.517037 6.257777a37.925926 37.925926 0 0 1 2.085926 10.61926v352.331852a48.165926 48.165926 0 0 0 18.962963 40.011851 43.614815 43.614815 0 0 0 25.78963 8.343704 43.045926 43.045926 0 0 0 13.842963-2.085926 44.942222 44.942222 0 0 0 30.34074-47.028148c0-74.903704 0-149.997037 1.517037-224.900741v-85.712592-0.948148h5.30963a25.78963 25.78963 0 0 0 0 3.223703 30.151111 30.151111 0 0 1 1.137778 7.205926v295.442963a132.740741 132.740741 0 0 0 0 15.739259 44.942222 44.942222 0 0 0 44.183703 37.925926 44.562963 44.562963 0 0 0 14.980741-2.654815 43.994074 43.994074 0 0 0 29.013334-46.08l1.517037-214.091851a22.565926 22.565926 0 0 0 4.74074 7.205926 24.651852 24.651852 0 0 0 17.445926 7.395555h118.708148a24.841481 24.841481 0 0 0 25.031111-24.651852v-79.075555a24.841481 24.841481 0 0 0-22.755555-22.945185z m7.395555 103.917037a8.154074 8.154074 0 0 1-8.154074 8.154074h-118.708148a8.154074 8.154074 0 0 1-8.154074-8.154074v-79.075556a8.154074 8.154074 0 0 1 8.154074-8.154074h118.708148a8.154074 8.154074 0 0 1 8.154074 8.154074zM249.931852 363.899259a29.392593 29.392593 0 0 0-11.567408-2.465185 23.893333 23.893333 0 0 0-11.377777 2.654815c-18.962963 13.842963-17.825185 47.976296-16.877037 73.007407a70.352593 70.352593 0 0 1-1.517037 24.272593c-5.688889-2.654815-8.343704-75.851852-7.205926-79.075556a159.288889 159.288889 0 0 0 0.948148-90.453333 49.872593 49.872593 0 0 0-28.065185-32.047407A58.595556 58.595556 0 0 0 151.703704 255.81037a97.659259 97.659259 0 0 0-83.057778 56.888889l-0.948148 1.896297-1.706667 3.792592a404.100741 404.100741 0 0 0-23.703704 232.485926 106.571852 106.571852 0 0 0 26.168889 43.614815c4.740741 5.688889 9.860741 11.757037 14.032593 17.635555a75.851852 75.851852 0 0 0 7.964444 9.481482 34.891852 34.891852 0 0 1 10.808889 16.308148l2.844445 30.151111A1322.856296 1322.856296 0 0 1 113.777778 826.216296a322.37037 322.37037 0 0 1-15.739259 81.540741c-3.223704 11.757037-6.447407 23.703704-9.291852 35.460741a52.527407 52.527407 0 0 0 29.961481 65.611852 54.234074 54.234074 0 0 0 20.100741 3.982222 53.285926 53.285926 0 0 0 47.976296-34.133333 97.28 97.28 0 0 0 4.740741-11.567408 591.834074 591.834074 0 0 0 27.496296-272.497778 520.912593 520.912593 0 0 0-13.653333-58.785185A369.398519 369.398519 0 0 1 189.62963 565.096296a162.702222 162.702222 0 0 0-22.755556-65.232592l-2.844444-5.49926c2.844444 4.361481 5.878519 8.722963 9.291851 13.274075a48.924444 48.924444 0 0 0 37.925926 23.703703 34.512593 34.512593 0 0 0 8.722963-1.137778c24.651852-6.637037 42.856296-40.011852 46.26963-68.266666a402.583704 402.583704 0 0 0 2.654815-65.991111 39.253333 39.253333 0 0 0-18.962963-32.047408zM224.900741 246.518519a96.900741 96.900741 0 0 0 94.814815-99.555556 96.142222 96.142222 0 0 0-96.711112-97.659259A99.555556 99.555556 0 0 0 151.703704 79.075556a96.142222 96.142222 0 0 0-27.685926 69.404444A98.038519 98.038519 0 0 0 224.900741 246.518519z" fill="#5E74FE" p-id="8135"></path></svg>