<?xml version="1.0" standalone="no"?><!DOCTYPE svg PUBLIC "-//W3C//DTD SVG 1.1//EN" "http://www.w3.org/Graphics/SVG/1.1/DTD/svg11.dtd"><svg t="1659430557406" class="icon" viewBox="0 0 1024 1024" version="1.1" xmlns="http://www.w3.org/2000/svg" p-id="6759" xmlns:xlink="http://www.w3.org/1999/xlink" width="200" height="200"><defs><style type="text/css">@font-face { font-family: feedback-iconfont; src: url("//at.alicdn.com/t/font_1031158_u69w8yhxdu.woff2?t=1630033759944") format("woff2"), url("//at.alicdn.com/t/font_1031158_u69w8yhxdu.woff?t=1630033759944") format("woff"), url("//at.alicdn.com/t/font_1031158_u69w8yhxdu.ttf?t=1630033759944") format("truetype"); }
</style></defs><path d="M810.097778 523.946667a170.666667 170.666667 0 1 0 170.666666 170.666666 170.666667 170.666667 0 0 0-170.666666-170.666666z m87.608889 186.026666a23.134815 23.134815 0 0 1-16.308148 6.826667h-92.16l20.48 20.48a23.514074 23.514074 0 0 1 6.826666 16.497778 23.134815 23.134815 0 0 1-39.632592 16.497778l-16.877037-18.962963-37.925926-40.391112a23.514074 23.514074 0 0 1-6.826667-16.497777 23.324444 23.324444 0 0 1 6.826667-16.497778L777.481481 617.623704a24.082963 24.082963 0 0 1 16.308149-7.016297 23.324444 23.324444 0 0 1 16.497777 6.826667 24.272593 24.272593 0 0 1 6.637037 16.497778 23.324444 23.324444 0 0 1-6.826666 16.497778l-20.290371 19.911111h92.16a23.134815 23.134815 0 0 1 16.308149 6.826666 23.514074 23.514074 0 0 1 0 32.805926z" fill="#5E74FE" p-id="6760"></path><path d="M479.004444 823.371852V768h155.685926a192.284444 192.284444 0 0 1-14.791111-74.145185 186.974815 186.974815 0 0 1 10.050371-61.250371v-265.481481h97.28v155.685926a189.62963 189.62963 0 0 1 82.868148-18.962963 186.595556 186.595556 0 0 1 48.734815 6.447407V189.62963a45.321481 45.321481 0 0 0-45.511112-45.511111H96.142222A45.511111 45.511111 0 0 0 50.441481 189.62963v532.669629a45.700741 45.700741 0 0 0 45.700741 45.700741H430.459259v55.371852H185.078519a20.29037 20.29037 0 0 0 0 40.580741H724.385185a188.302222 188.302222 0 0 1-53.665185-40.580741z m-199.49037-156.444445H182.234074v-115.294814h97.28z m136.343704 0H318.577778v-208.592592h97.28zM474.074074 274.204444h97.28v392.722963H474.074074z" fill="#5E74FE" p-id="6761"></path></svg>