<?xml version="1.0" standalone="no"?><!DOCTYPE svg PUBLIC "-//W3C//DTD SVG 1.1//EN" "http://www.w3.org/Graphics/SVG/1.1/DTD/svg11.dtd"><svg t="1651225366405" class="icon" viewBox="0 0 1024 1024" version="1.1" xmlns="http://www.w3.org/2000/svg" p-id="5010" xmlns:xlink="http://www.w3.org/1999/xlink" width="200" height="200"><defs><style type="text/css">@font-face { font-family: feedback-iconfont; src: url("//at.alicdn.com/t/font_1031158_u69w8yhxdu.woff2?t=1630033759944") format("woff2"), url("//at.alicdn.com/t/font_1031158_u69w8yhxdu.woff?t=1630033759944") format("woff"), url("//at.alicdn.com/t/font_1031158_u69w8yhxdu.ttf?t=1630033759944") format("truetype"); }
</style></defs><path d="M396.387097 275.268817v17.617205c0 35.234409-28.627957 61.660215-61.660215 61.660215-35.234409 0-61.660215-28.627957-61.660215-61.660215v-17.617205H396.387097m13.212903-15.415054h-151.948387v30.830108c0 41.84086 35.234409 77.075269 77.075269 77.075269s77.075269-35.234409 77.075269-77.075269v-30.830108h-2.202151z" p-id="5011"></path><path d="M292.886022 358.950538s6.606452 35.234409 26.425806 46.245161c19.819355 8.808602 30.830108 0 30.830107 0s19.819355-15.415054 24.223656-46.245161c0-4.404301 4.404301-6.606452 6.606452-4.404301h2.202151v-15.415054l-50.649463 19.819355-50.649462-19.819355v15.415054h2.20215c4.404301 0 8.808602 2.202151 8.808603 4.404301z" p-id="5012"></path><path d="M394.184946 358.950538h-6.606451v2.20215c-4.404301 37.436559-28.627957 52.851613-30.830108 55.053764 0 0-6.606452 4.404301-15.415054 6.606451 0 6.606452 2.202151 13.212903 4.404301 17.617205l4.404301 4.404301c4.404301 6.606452 11.010753 11.010753 11.010753 22.021505s-2.202151 19.819355-4.404301 26.425806l-6.606452 13.212904c2.202151 2.202151 4.404301 6.606452 4.404302 8.808602 0 8.808602-6.606452 15.415054-15.415054 15.415054-8.808602 0-15.415054-6.606452-15.415054-15.415054 0-8.808602 6.606452-15.415054 15.415054-15.415054 2.202151-2.202151 4.404301-6.606452 6.606451-11.010753 2.202151-8.808602 4.404301-15.415054 4.404301-19.819354 0-6.606452-4.404301-8.808602-8.808602-15.415054l-4.404301-4.404301c-4.404301-8.808602-6.606452-17.617204-6.606451-28.627957-4.404301 0-11.010753-2.202151-15.415054-4.404301-26.425806-13.212903-33.032258-52.851613-33.032258-55.053764v-2.20215h-6.606452c-94.692473 46.245161-94.692473 151.948387-94.692473 151.948387V594.580645c0 15.415054 13.212903 26.425806 26.425807 26.425807 15.415054 0 26.425806-13.212903 26.425806-26.425807v-83.68172s6.606452-44.043011 17.617204-30.830108v442.632258c0 19.819355 15.415054 35.234409 35.234409 35.234409h2.20215c19.819355 0 35.234409-15.415054 35.234409-35.234409V656.24086h19.819355v266.460215c0 19.819355 15.415054 35.234409 35.234408 35.234409h2.202151c19.819355 0 35.234409-15.415054 35.234409-35.234409V480.068817c8.808602-13.212903 17.617204 30.830108 17.617204 30.830108V594.580645c0 15.415054 13.212903 26.425806 26.425806 26.425807 15.415054 0 26.425806-13.212903 26.425807-26.425807v-83.68172s0-105.703226-92.490323-151.948387z" p-id="5013"></path><path d="M506.494624 658.443011h-15.415054v-22.021506l-57.255914-2.20215-2.202151 24.223656h-15.415053v-22.021506c0-8.808602 6.606452-17.617204 17.617204-17.617204h55.053763c8.808602 0 17.617204 6.606452 17.617205 17.617204v22.021506z" p-id="5014"></path><path d="M524.111828 777.35914h-123.32043c-13.212903 0-22.021505-11.010753-22.021506-22.021506v-77.075268c0-13.212903 11.010753-22.021505 22.021506-22.021506h123.32043c13.212903 0 22.021505 11.010753 22.021505 22.021506v77.075268c0 11.010753-11.010753 22.021505-22.021505 22.021506z m-123.32043-105.703226c-4.404301 0-6.606452 4.404301-6.606452 6.606452v77.075268c0 4.404301 4.404301 6.606452 6.606452 6.606452h123.32043c4.404301 0 6.606452-4.404301 6.606452-6.606452v-77.075268c0-4.404301-4.404301-6.606452-6.606452-6.606452h-123.32043z" p-id="5015"></path><path d="M495.483871 709.092473h-22.021505v-22.021505h-24.223656v22.021505h-22.021506v24.223656h22.021506v22.021505h24.223656v-22.021505h22.021505zM391.982796 182.778495h-116.713979c-11.010753 0-17.617204 8.808602-17.617204 17.617204v57.255914c0 11.010753 8.808602 17.617204 17.617204 17.617204h116.713979c11.010753 0 17.617204-8.808602 17.617204-17.617204V200.395699c0-11.010753-6.606452-17.617204-17.617204-17.617204zM352.344086 235.630108h-11.010753v11.010752h-13.212903v-11.010752h-11.010753v-13.212904h11.010753v-11.010752h13.212903v11.010752h11.010753v13.212904zM618.804301 794.976344c-2.202151 0-4.404301 0-6.606452-2.20215-4.404301-2.202151-4.404301-8.808602-2.20215-13.212904l118.916129-151.948387c2.202151-4.404301 8.808602-4.404301 13.212903-2.20215 4.404301 2.202151 4.404301 8.808602 2.202151 13.212903l-118.916129 151.948387c0 2.202151-2.202151 4.404301-6.606452 4.404301z" p-id="5016"></path><path d="M737.72043 717.901075c-4.404301 0-8.808602-4.404301-8.808602-8.808602v-61.660215l-59.458065 13.212903c-4.404301 2.202151-8.808602-2.202151-11.010752-6.606451-2.202151-4.404301 2.202151-8.808602 6.606451-11.010753l81.47957-19.819355v83.681721c2.202151 6.606452-2.202151 8.808602-8.808602 11.010752zM896.275269 458.047312V224.619355H581.367742v233.427957h149.746236V484.473118h-99.096774c-4.404301 0-8.808602 4.404301-8.808602 8.808602s4.404301 8.808602 8.808602 8.808603h215.810753c4.404301 0 8.808602-4.404301 8.808602-8.808603s-4.404301-8.808602-8.808602-8.808602H748.731183v-26.425806h147.544086zM717.901075 374.365591l-13.212903-2.20215-22.021505 46.245161-8.808602-118.916129-15.415054 85.883871-11.010753-39.63871-17.617204 30.830108h-24.223656v-4.404301h19.819355l19.819355-37.436559 8.808602 30.830107 19.819355-101.298924 8.808602 136.533333 15.415053-30.830108 13.212904 2.202151 8.808602-35.234409 17.617204 37.436559h19.819355l13.212903-33.032258 8.808602 30.830108h13.212904l8.808602-110.107527 17.617204 140.937634 11.010753-33.032258h15.415053l15.415054-30.830107 8.808602 30.830107h8.808603v4.404301h-13.212904l-6.606451-22.021505-11.010753 22.021505h-13.212903l-17.617205 44.043011-13.212903-116.713978-6.606451 70.468817h-19.819355L770.752688 352.344086l-8.808602 24.223656h-26.425806l-13.212904-28.627957-4.404301 26.425806z" p-id="5017"></path></svg>