<?xml version="1.0" standalone="no"?><!DOCTYPE svg PUBLIC "-//W3C//DTD SVG 1.1//EN" "http://www.w3.org/Graphics/SVG/1.1/DTD/svg11.dtd"><svg t="1651225346494" class="icon" viewBox="0 0 1024 1024" version="1.1" xmlns="http://www.w3.org/2000/svg" p-id="4585" xmlns:xlink="http://www.w3.org/1999/xlink" width="200" height="200"><defs><style type="text/css">@font-face { font-family: feedback-iconfont; src: url("//at.alicdn.com/t/font_1031158_u69w8yhxdu.woff2?t=1630033759944") format("woff2"), url("//at.alicdn.com/t/font_1031158_u69w8yhxdu.woff?t=1630033759944") format("woff"), url("//at.alicdn.com/t/font_1031158_u69w8yhxdu.ttf?t=1630033759944") format("truetype"); }
</style></defs><path d="M515.303226 198.193548h-37.436559v132.129033h105.703225v-72.670968c138.735484 30.830108 242.236559 154.150538 242.23656 301.694624 0 147.544086-103.501075 270.864516-242.23656 301.694623v-103.501075c0-28.627957-24.223656-52.851613-52.851612-52.851613s-52.851613 24.223656-52.851613 52.851613V918.296774h37.436559c198.193548 0 358.950538-160.756989 358.950537-358.950537S713.496774 198.193548 515.303226 198.193548z" p-id="4586"></path><path d="M105.703226 627.612903h609.995699v50.649463H105.703226zM654.03871 491.07957c-30.830108 0-55.053763 24.223656-55.053764 55.053763s24.223656 55.053763 55.053764 55.053764 55.053763-24.223656 55.053763-55.053764-24.223656-55.053763-55.053763-55.053763zM543.931183 519.707527h-180.576344c-17.617204 0-33.032258 13.212903-37.436559 28.627957l-83.681721-6.606452-90.288172 6.606452c-11.010753 0-19.819355 8.808602-19.819355 19.819355s8.808602 19.819355 19.819355 19.819355l90.288172-6.606452 90.288172 6.606452h4.404301c6.606452 6.606452 17.617204 11.010753 28.627957 11.010752h180.576344c22.021505 0 39.63871-17.617204 39.63871-39.638709s-19.819355-39.63871-41.84086-39.63871z m2.20215 61.660215l-81.47957-6.606452-81.479569 6.606452c-11.010753 0-17.617204-8.808602-17.617205-17.617204s8.808602-17.617204 17.617205-17.617205l81.479569-6.606451 81.47957 6.606451c11.010753 0 17.617204 8.808602 17.617205 17.617205s-8.808602 17.617204-17.617205 17.617204z" p-id="4587"></path></svg>