<?xml version="1.0" standalone="no"?><!DOCTYPE svg PUBLIC "-//W3C//DTD SVG 1.1//EN" "http://www.w3.org/Graphics/SVG/1.1/DTD/svg11.dtd"><svg t="1651225353765" class="icon" viewBox="0 0 1024 1024" version="1.1" xmlns="http://www.w3.org/2000/svg" p-id="4724" xmlns:xlink="http://www.w3.org/1999/xlink" width="200" height="200"><defs><style type="text/css">@font-face { font-family: feedback-iconfont; src: url("//at.alicdn.com/t/font_1031158_u69w8yhxdu.woff2?t=1630033759944") format("woff2"), url("//at.alicdn.com/t/font_1031158_u69w8yhxdu.woff?t=1630033759944") format("woff"), url("//at.alicdn.com/t/font_1031158_u69w8yhxdu.ttf?t=1630033759944") format("truetype"); }
</style></defs><path d="M484.473118 112.309677c-99.096774 0-178.374194 79.277419-178.374193 178.374194s79.277419 178.374194 178.374193 178.374194 178.374194-79.277419 178.374194-178.374194-79.277419-178.374194-178.374194-178.374194z m-156.352688 178.374194c0-39.63871 15.415054-77.075269 39.63871-103.501075l33.032258 35.234408c-8.808602 0-15.415054 2.202151-19.819355 2.202151v121.118279h22.021505v-46.245161h11.010753c15.415054 0 30.830108-4.404301 39.63871-13.212903 2.202151 0 2.202151-2.202151 2.20215-4.404301l26.425807 30.830107v33.032258h22.021505v-6.606451l70.468817 77.075269c-26.425806 17.617204-57.255914 28.627957-90.288172 28.627957-85.883871 2.202151-156.352688-68.266667-156.352688-154.150538z m112.309678-24.223656c-2.202151 11.010753-11.010753 17.617204-26.425807 17.617204h-11.010753V242.236559h13.212904l24.223656 24.223656z m151.948387 136.533333L506.494624 306.098925v-81.47957h-22.021506v57.255914l-19.819355-22.021506c0-11.010753-4.404301-19.819355-11.010752-26.425806-4.404301-4.404301-11.010753-6.606452-17.617205-8.808602l-48.447311-52.851613c26.425806-22.021505 61.660215-35.234409 99.096774-35.234409 85.883871 0 156.352688 70.468817 156.352688 156.352689-2.202151 41.84086-22.021505 81.47957-50.649462 110.107526z" p-id="4725"></path><path d="M592.378495 330.322581c-26.425806 0-44.043011-17.617204-44.043011-44.043011 0-28.627957 17.617204-46.245161 44.043011-46.245161 11.010753 0 17.617204 2.202151 24.223656 4.404301l4.404301-17.617205c-4.404301-2.202151-15.415054-4.404301-30.830108-4.404301-37.436559 0-66.064516 24.223656-66.064516 66.064516 0 37.436559 24.223656 61.660215 63.862366 61.660215 15.415054 0 26.425806-2.202151 30.830107-4.404301l-2.20215-19.819354c-6.606452 2.202151-15.415054 4.404301-24.223656 4.404301zM821.402151 587.974194c-74.873118 0-136.533333 61.660215-136.533334 136.533333 0 74.873118 61.660215 136.533333 136.533334 136.533333 74.873118 0 136.533333-61.660215 136.533333-136.533333 0-74.873118-61.660215-136.533333-136.533333-136.533333z m61.660215 167.36344h-101.298925v-105.703225c0-6.606452 4.404301-11.010753 11.010753-11.010753s11.010753 4.404301 11.010752 11.010753v83.68172h79.27742c6.606452 0 11.010753 4.404301 11.010752 11.010753s-4.404301 11.010753-11.010752 11.010752z" p-id="4726"></path><path d="M759.741935 574.76129V231.225806c0-13.212903-11.010753-24.223656-24.223655-24.223655h-77.075269c8.808602 19.819355 15.415054 39.63871 17.617204 61.660215h37.436559v99.096774H660.645161c-15.415054 37.436559-44.043011 66.064516-77.075269 88.086021v77.075269h-101.298924V484.473118h-2.202151c-8.808602 0-17.617204 0-28.627957-2.20215v50.649462H352.344086v-96.894624c-22.021505-19.819355-39.63871-41.84086-50.649462-68.266666h-79.27742v-99.096774H286.27957c2.202151-22.021505 8.808602-41.84086 17.617204-61.660215H202.597849c-13.212903 0-24.223656 11.010753-24.223655 24.223655v554.941936h-22.021506c-19.819355 0-37.436559 17.617204-37.436559 37.436559 0 19.819355 17.617204 37.436559 37.436559 37.436559h587.974194c-46.245161-28.627957-77.075269-81.47957-77.075269-140.937634 0-6.606452 0-15.415054 2.20215-22.021506h-57.255914v-99.096774h101.298925v8.808602c13.212903-13.212903 28.627957-24.223656 46.245161-33.032258z m-436.025806 125.522581h-101.298925v-99.096774h101.298925v99.096774z m0-165.16129h-101.298925v-99.096775h101.298925v99.096775z m129.926882 165.16129H352.344086v-99.096774h101.298925v99.096774z m129.926881 0h-101.298924v-99.096774h101.298924v99.096774z m28.627957-165.16129v-99.096775h101.298925v99.096775h-101.298925z" p-id="4727"></path></svg>