<?xml version="1.0" standalone="no"?><!DOCTYPE svg PUBLIC "-//W3C//DTD SVG 1.1//EN" "http://www.w3.org/Graphics/SVG/1.1/DTD/svg11.dtd"><svg t="1651225390471" class="icon" viewBox="0 0 1024 1024" version="1.1" xmlns="http://www.w3.org/2000/svg" p-id="5718" xmlns:xlink="http://www.w3.org/1999/xlink" width="200" height="200"><defs><style type="text/css">@font-face { font-family: feedback-iconfont; src: url("//at.alicdn.com/t/font_1031158_u69w8yhxdu.woff2?t=1630033759944") format("woff2"), url("//at.alicdn.com/t/font_1031158_u69w8yhxdu.woff?t=1630033759944") format("woff"), url("//at.alicdn.com/t/font_1031158_u69w8yhxdu.ttf?t=1630033759944") format("truetype"); }
</style></defs><path d="M317.109677 803.784946c-2.202151 0-6.606452-2.202151-8.808602-4.404301-2.202151-4.404301-2.202151-11.010753 4.404301-13.212903l127.724732-74.873118c4.404301-2.202151 11.010753-2.202151 13.212903 4.404301 2.202151 4.404301 2.202151 11.010753-4.404301 13.212903l-127.724732 74.873118h-4.404301z" p-id="5719"></path><path d="M418.408602 799.380645h-4.404301c-4.404301-2.202151-6.606452-6.606452-6.606452-13.212903l22.021506-59.458065-63.862366-8.808602c-4.404301 0-8.808602-6.606452-8.808602-11.010752s6.606452-8.808602 11.010753-8.808603l88.086021 11.010753-28.627957 83.681721c-2.202151 4.404301-6.606452 6.606452-8.808602 6.606451zM480.068817 220.215054h-396.387097v587.974193l251.045162-66.064516V319.311828L99.096774 255.449462h378.769893V220.215054z m-182.778494 292.886021h22.021505v48.447312h-22.021505v-48.447312zM720.103226 695.87957c2.202151 6.606452 4.404301 13.212903 6.606451 17.617204-2.202151-6.606452-4.404301-13.212903-6.606451-17.617204zM759.741935 499.888172c-8.808602 0-15.415054 0-24.223655 2.202151h-4.404302c8.808602 11.010753 13.212903 22.021505 13.212904 30.830107 0 8.808602 0 17.617204-2.202151 24.223656 8.808602-8.808602 17.617204-15.415054 28.627957-22.021505V528.516129c-2.202151-8.808602-6.606452-19.819355-11.010753-28.627957z" p-id="5720"></path><path d="M693.677419 585.772043c-4.404301-4.404301-13.212903-8.808602-17.617204-11.010753-4.404301-2.202151-11.010753-6.606452-15.415054-8.808602-2.202151 0-2.202151-2.202151-2.20215-4.404301 2.202151-8.808602 2.202151-19.819355 2.20215-28.627957v-22.021505c24.223656-15.415054 46.245161-24.223656 72.670968-28.627957 26.425806-4.404301 55.053763 0 85.883871 8.808602 4.404301 2.202151 8.808602-2.202151 11.010753-6.606452 2.202151-4.404301 0-8.808602-6.606452-11.010752-33.032258-11.010753-63.862366-13.212903-92.490323-8.808603-28.627957 4.404301-57.255914 15.415054-83.68172 33.032259-2.202151 2.202151-4.404301 4.404301-4.404301 8.808602 0 8.808602 2.202151 17.617204 0 24.223656 0 8.808602-2.202151 17.617204-2.202151 26.425806-2.202151 8.808602 2.202151 17.617204 11.010753 22.021505 6.606452 6.606452 8.808602 13.212903 11.010753 22.021506 2.202151 8.808602 2.202151 22.021505-2.202151 30.830107-4.404301 6.606452-11.010753 13.212903-17.617204 17.617205-15.415054 13.212903-37.436559 22.021505-52.851613 28.627957-4.404301 2.202151-6.606452 6.606452-6.606452 11.010752 2.202151 4.404301 6.606452 6.606452 11.010753 4.404301 17.617204-6.606452 39.63871-17.617204 57.255914-30.830107l2.202151-2.202151c-8.808602 24.223656-22.021505 50.649462-30.830108 70.468817l-2.20215 4.404302c-2.202151 4.404301 0 8.808602 4.404301 11.010752 4.404301 2.202151 8.808602 0 11.010752-4.404301l2.202151-4.404301c6.606452-13.212903 15.415054-28.627957 22.021505-46.245161 2.202151 11.010753 4.404301 19.819355 2.202151 33.032258 0 4.404301 2.202151 8.808602 6.606451 11.010753 4.404301 0 8.808602-2.202151 11.010753-6.606452 4.404301-17.617204 0-30.830108-2.20215-41.84086-2.202151-8.808602-4.404301-17.617204-4.404301-26.425807l6.606451-26.425806c2.202151-13.212903 2.202151-26.425806 0-39.63871 2.202151 0 6.606452 4.404301 6.606452 4.404301 6.606452 6.606452 15.415054-6.606452 6.606451-13.212903zM585.772043 543.931183l-2.202151 2.20215h-15.415053c-4.404301 0-8.808602 2.202151-13.212904 2.202151-4.404301 2.202151-6.606452 6.606452-6.606451 11.010753 2.202151 4.404301 6.606452 6.606452 11.010753 6.606451 2.202151 0 6.606452-2.202151 11.010752-2.20215h13.212903c6.606452 0 11.010753-2.202151 15.415054-6.606452 4.404301-4.404301 6.606452-8.808602 6.606452-15.415054 2.202151-37.436559-4.404301-68.266667-17.617204-90.288172-4.404301 8.808602-4.404301 17.617204-6.606452 26.425807 6.606452 17.617204 8.808602 37.436559 6.606452 61.660215-2.202151 2.202151-2.202151 2.202151-2.202151 4.404301zM733.316129 724.507527c0 2.202151 2.202151 2.202151 2.202151 4.404301-2.202151-2.202151-2.202151-4.404301-2.202151-4.404301zM451.44086 398.589247c13.212903 2.202151 26.425806 4.404301 37.436559 8.808602 2.202151-4.404301 4.404301-11.010753 6.606452-15.415053-13.212903-4.404301-26.425806-6.606452-41.84086-11.010753-4.404301 0-8.808602 2.202151-8.808602 6.606452 0 6.606452 2.202151 11.010753 6.606451 11.010752z" p-id="5721"></path><path d="M709.092473 724.507527c-15.415054 28.627957-37.436559 52.851613-61.660215 61.660215-4.404301 2.202151-8.808602 4.404301-13.212903 4.404301-30.830108 2.202151-99.096774-79.277419-127.724731-105.703226-19.819355-17.617204-33.032258-39.63871-37.436559-63.862365-4.404301-19.819355 0-41.84086 13.212903-59.458065 4.404301-6.606452 2.202151-13.212903-2.202151-17.617204-6.606452-4.404301-13.212903-2.202151-17.617204 2.20215-2.202151 2.202151-2.202151 4.404301-4.404301 6.606452-4.404301-11.010753-2.202151-24.223656 2.20215-37.436559 4.404301-11.010753 11.010753-22.021505 19.819355-33.032258 0-11.010753 0-24.223656 2.202151-35.234409-4.404301 2.202151-6.606452 4.404301-8.808602 6.606452-15.415054 13.212903-28.627957 33.032258-37.43656 52.851613-6.606452 19.819355-8.808602 44.043011 2.202151 63.862365l6.606452 13.212903c-2.202151 13.212903-2.202151 28.627957 0 41.840861 6.606452 28.627957 24.223656 57.255914 46.245161 77.075269 37.436559 33.032258 99.096774 114.511828 145.341935 112.309677 6.606452 0 15.415054-2.202151 22.021506-6.606452 26.425806-11.010753 48.447312-33.032258 66.064516-59.458064-6.606452-6.606452-13.212903-15.415054-15.415054-24.223656zM475.664516 358.950538c13.212903 2.202151 26.425806 4.404301 37.436559 8.808602l13.212903-13.212903c-15.415054-4.404301-33.032258-8.808602-48.447311-11.010753-4.404301 0-8.808602 2.202151-8.808602 6.606451-2.202151 4.404301 2.202151 8.808602 6.606451 8.808603zM629.815054 425.015054c-6.606452-6.606452-15.415054-4.404301-22.021506-2.202151 8.808602 11.010753 17.617204 24.223656 24.223656 37.436559 2.202151 4.404301 6.606452 4.404301 11.010753 2.202151 30.830108-17.617204 59.458065-26.425806 88.086021-28.627957 28.627957-2.202151 59.458065 2.202151 90.288173 11.010753 4.404301 2.202151 8.808602-2.202151 11.010752-6.606452 2.202151-4.404301-2.202151-8.808602-6.606451-11.010753-33.032258-11.010753-63.862366-15.415054-96.894624-13.212903-28.627957 2.202151-57.255914 11.010753-88.086022 26.425807-2.202151-2.202151-6.606452-8.808602-11.010752-15.415054z" p-id="5722"></path><path d="M502.090323 524.111828c6.606452 19.819355 66.064516 22.021505 59.458064-8.808602-19.819355-92.490323 59.458065-147.544086 88.086022-90.288172l55.053763-22.021506c-6.606452-11.010753-15.415054-22.021505-24.223656-30.830107 19.819355-24.223656 37.436559-48.447312 46.245161-77.075269l-55.053763-11.010753c-11.010753 22.021505-24.223656 44.043011-41.84086 61.660215 11.010753-19.819355 11.010753-48.447312 6.606451-68.266666h-48.447311c4.404301 30.830108 0 57.255914-8.808603 74.873118-70.468817 17.617204-94.692473 105.703226-77.075268 171.767742z" p-id="5723"></path><path d="M900.67957 561.548387v211.406452h-13.212903v-39.63871c-4.404301-4.404301-11.010753-6.606452-11.010753-8.808602-4.404301-2.202151 0-11.010753 0-11.010753l-4.404301-4.404301c-24.223656-11.010753-8.808602-17.617204-15.415054-17.617204s0-26.425806 4.404301-30.830108c4.404301-4.404301-2.202151-15.415054 0-22.021505s8.808602-13.212903 6.606452-22.021505c0-11.010753 4.404301-13.212903 11.010753-15.415054s2.202151-6.606452 0-17.617205 8.808602-11.010753 8.808602-11.010752v-15.415054h4.404301c-17.617204-8.808602-37.436559-13.212903-57.255914-13.212903s-39.63871 4.404301-57.255914 13.212903h4.404301v15.415054s11.010753 0 8.808602 11.010752c-2.202151 11.010753-4.404301 15.415054 0 17.617205 4.404301 2.202151 11.010753 6.606452 11.010753 15.415054 0 11.010753 4.404301 15.415054 6.606451 22.021505s-4.404301 17.617204 0 22.021505c4.404301 4.404301 11.010753 28.627957 4.404301 30.830108s8.808602 6.606452-15.415053 17.617204l-4.404301 4.404301s2.202151 6.606452 0 11.010753c-2.202151 2.202151-6.606452 4.404301-11.010753 8.808602v39.63871h-13.212903v-211.406452c-35.234409 22.021505-59.458065 61.660215-59.458065 107.905376 0 70.468817 57.255914 125.522581 125.522581 125.522581s125.522581-57.255914 125.52258-125.522581c0-44.043011-24.223656-83.68172-59.458064-107.905376z m-59.458065 184.980645h-13.212903v-178.374193h13.212903v178.374193z" p-id="5724"></path><path d="M768.550538 557.144086v4.404301c2.202151-2.202151 6.606452-4.404301 8.808602-4.404301h-8.808602zM900.67957 557.144086h-8.808602c2.202151 2.202151 6.606452 2.202151 8.808602 4.404301v-4.404301z" p-id="5725"></path></svg>