<?xml version="1.0" standalone="no"?><!DOCTYPE svg PUBLIC "-//W3C//DTD SVG 1.1//EN" "http://www.w3.org/Graphics/SVG/1.1/DTD/svg11.dtd"><svg t="1651225386017" class="icon" viewBox="0 0 1024 1024" version="1.1" xmlns="http://www.w3.org/2000/svg" p-id="5579" xmlns:xlink="http://www.w3.org/1999/xlink" width="200" height="200"><defs><style type="text/css">@font-face { font-family: feedback-iconfont; src: url("//at.alicdn.com/t/font_1031158_u69w8yhxdu.woff2?t=1630033759944") format("woff2"), url("//at.alicdn.com/t/font_1031158_u69w8yhxdu.woff?t=1630033759944") format("woff"), url("//at.alicdn.com/t/font_1031158_u69w8yhxdu.ttf?t=1630033759944") format("truetype"); }
</style></defs><path d="M598.984946 453.643011c-4.404301-2.202151-8.808602-4.404301-15.415054-4.404301-4.404301 0-11.010753-2.202151-15.415053-2.202151-30.830108 0-61.660215 17.617204-72.670968 48.447312l-37.436559 94.692473-11.010753 28.627957-22.021505 52.851613c-15.415054 39.63871 2.202151 85.883871 44.043011 103.501075 4.404301 2.202151 8.808602 4.404301 15.415053 4.404301 4.404301 0 11.010753 2.202151 15.415054 2.202151 30.830108 0 61.660215-17.617204 72.670968-48.447312l22.021505-52.851613 11.010753-28.627957 37.436559-94.692473c15.415054-39.63871-4.404301-85.883871-44.043011-103.501075z m15.415054 92.490322L576.963441 638.623656s-2.202151 2.202151-2.202151 0l-88.086021-35.234409s-2.202151-2.202151 0-2.20215l37.436559-92.490323c4.404301-8.808602 11.010753-17.617204 17.617204-22.021505 8.808602-4.404301 17.617204-8.808602 26.425807-8.808602 6.606452 0 13.212903 2.202151 17.617204 4.404301 26.425806 11.010753 39.63871 39.63871 28.627957 63.862365z m264.258065-26.425806c-8.808602-8.808602-17.617204-13.212903-26.425807-17.617204-8.808602-4.404301-19.819355-6.606452-30.830107-6.606452-19.819355 0-39.63871 8.808602-55.053764 24.223656L726.709677 559.346237l-92.490322 92.490322c-30.830108 30.830108-30.830108 81.47957 0 112.309678 8.808602 8.808602 17.617204 13.212903 26.425806 17.617204 8.808602 4.404301 19.819355 6.606452 30.830108 6.606451 19.819355 0 39.63871-8.808602 55.053763-24.223655l132.129033-132.129033c30.830108-30.830108 30.830108-81.47957 0-112.309677z m-83.681721 154.150538l-70.468817 70.468817c-8.808602 8.808602-22.021505 15.415054-35.234409 13.212903-11.010753 0-24.223656-4.404301-33.032258-13.212903-19.819355-19.819355-19.819355-50.649462 0-70.468817l70.468817-70.468818h2.202151l66.064516 66.064516v4.404302z m0 0M374.365591 339.131183c11.010753 0 19.819355 8.808602 19.819355 22.021505 0 11.010753-6.606452 22.021505-17.617204 22.021506H218.012903c-11.010753 0-19.819355-8.808602-19.819355-22.021506 0-11.010753 6.606452-22.021505 17.617205-22.021505H374.365591z m0 0M255.449462 539.526882V682.666667H215.810753v-143.139785c0-8.808602 4.404301-15.415054 8.808602-19.819355 6.606452-4.404301 13.212903-4.404301 19.819355 0 6.606452 4.404301 11.010753 13.212903 11.010752 19.819355z m0 0" p-id="5580"></path><path d="M416.206452 768.550538H182.778495c-4.404301 0-11.010753-2.202151-13.212904-6.606452-4.404301-4.404301-6.606452-8.808602-6.606451-15.415054V466.855914c0-6.606452 2.202151-11.010753 4.404301-15.415054l55.053763-66.064516c6.606452-8.808602 11.010753-19.819355 11.010753-30.830107v-44.043011c0-8.808602 2.202151-15.415054 8.808602-22.021506 4.404301-6.606452 11.010753-8.808602 19.819355-8.808602h132.129032c6.606452 0 13.212903 2.202151 19.819355 8.808602 4.404301 6.606452 8.808602 13.212903 8.808602 22.021506v44.043011c0 11.010753 4.404301 22.021505 11.010753 30.830107l57.255914 66.064516c2.202151 4.404301 4.404301 8.808602 4.404301 13.212903 15.415054-13.212903 28.627957-19.819355 35.234409-24.223655-2.202151-6.606452-6.606452-15.415054-11.010753-19.819355l-57.255914-66.064516v-44.043011c0-19.819355-6.606452-39.63871-19.819355-52.851613-13.212903-13.212903-28.627957-22.021505-46.245161-22.021505h-132.129032c-17.617204 0-33.032258 8.808602-46.245162 22.021505-13.212903 13.212903-19.819355 33.032258-19.819355 52.851613v44.043011l-55.053763 66.064516c-11.010753 13.212903-15.415054 28.627957-15.415054 46.245161v279.673118c0 37.436559 26.425806 66.064516 57.255914 66.064516h290.683871c11.010753 0 19.819355-2.202151 28.627957-8.808602-46.245161 6.606452-72.670968-13.212903-88.086021-35.234408z" p-id="5581"></path></svg>