<?xml version="1.0" standalone="no"?><!DOCTYPE svg PUBLIC "-//W3C//DTD SVG 1.1//EN" "http://www.w3.org/Graphics/SVG/1.1/DTD/svg11.dtd"><svg t="1669021871533" class="icon" viewBox="0 0 1024 1024" version="1.1" xmlns="http://www.w3.org/2000/svg" p-id="5712" xmlns:xlink="http://www.w3.org/1999/xlink" width="200" height="200"><path d="M880.64 104.261818h-109.847273c-16.756364-35.374545-52.130909-59.578182-93.090909-59.578182h-316.509091c-40.96 0-76.334545 24.203636-93.090909 59.578182H161.978182c-65.163636 0-117.294545 46.545455-117.294546 104.261818v696.32c0 57.716364 52.130909 104.261818 117.294546 104.261819h718.661818c65.163636 0 117.294545-46.545455 117.294545-104.261819V208.523636c0-57.716364-53.992727-104.261818-117.294545-104.261818z m-521.309091-3.723636h316.509091c26.065455 0 46.545455 20.48 46.545455 46.545454s-20.48 46.545455-46.545455 46.545455h-316.509091c-26.065455 0-46.545455-20.48-46.545454-46.545455s22.341818-46.545455 46.545454-46.545454z m582.749091 806.167273c0 26.065455-27.927273 48.407273-61.44 48.407272H161.978182c-33.512727 0-61.44-22.341818-61.44-48.407272V208.523636c0-26.065455 27.927273-48.407273 61.44-48.407272h96.814545c5.585455 50.269091 50.269091 89.367273 102.4 89.367272h316.509091c52.130909 0 94.952727-39.098182 102.4-89.367272h102.4c33.512727 0 61.44 22.341818 61.44 48.407272v698.181819z" fill="#5E74FE" p-id="5713"></path><path d="M809.890909 631.156364H182.458182c-14.894545 0-27.927273 13.032727-27.927273 27.927272s13.032727 27.927273 27.927273 27.927273h625.570909c14.894545 0 27.927273-13.032727 27.927273-27.927273s-11.170909-27.927273-26.065455-27.927272zM809.890909 463.592727H564.130909c-14.894545 0-27.927273 13.032727-27.927273 27.927273s13.032727 27.927273 27.927273 27.927273h243.898182c14.894545 0 27.927273-13.032727 27.927273-27.927273s-11.170909-27.927273-26.065455-27.927273zM809.890909 785.687273H182.458182c-14.894545 0-27.927273 13.032727-27.927273 27.927272s13.032727 27.927273 27.927273 27.927273h625.570909c14.894545 0 27.927273-13.032727 27.927273-27.927273s-11.170909-27.927273-26.065455-27.927272zM215.970909 459.869091h57.716364v57.716364c0 14.894545 11.170909 26.065455 26.065454 26.065454s26.065455-11.170909 26.065455-26.065454v-57.716364h57.716363c14.894545 0 26.065455-11.170909 26.065455-26.065455s-11.170909-26.065455-26.065455-26.065454h-57.716363v-57.716364c0-14.894545-11.170909-26.065455-26.065455-26.065454s-26.065455 11.170909-26.065454 26.065454v57.716364h-57.716364c-14.894545 0-26.065455 11.170909-26.065454 26.065454s13.032727 26.065455 26.065454 26.065455z" p-id="5714"></path></svg>