<?xml version="1.0" standalone="no"?><!DOCTYPE svg PUBLIC "-//W3C//DTD SVG 1.1//EN" "http://www.w3.org/Graphics/SVG/1.1/DTD/svg11.dtd"><svg t="1642130060364" class="icon" viewBox="0 0 1027 1024" version="1.1" xmlns="http://www.w3.org/2000/svg" p-id="4235" xmlns:xlink="http://www.w3.org/1999/xlink" width="200.5859375" height="200"><defs><style type="text/css"></style></defs><path d="M916.014545 482.210909h-143.36c-14.894545 0-27.927273 13.032727-27.927272 27.927273s13.032727 27.927273 27.927272 27.927273h143.36c31.650909 0 55.854545 26.065455 55.854546 55.854545v141.498182c0 31.650909-26.065455 55.854545-55.854546 55.854545h-76.334545c0-61.44-50.269091-111.709091-111.709091-111.709091s-111.709091 50.269091-111.709091 111.709091H422.632727c0-61.44-50.269091-111.709091-111.709091-111.709091s-111.709091 50.269091-111.709091 111.709091H158.254545c-31.650909 0-55.854545-26.065455-55.854545-55.854545V351.883636c0-31.650909 26.065455-55.854545 55.854545-55.854545h111.709091c14.894545 0 27.927273-13.032727 27.927273-27.927273v-67.025454c0-14.894545 13.032727-27.927273 27.927273-27.927273h169.425454c14.894545 0 27.927273 13.032727 27.927273 27.927273v67.025454c0 14.894545 13.032727 27.927273 27.927273 27.927273h115.432727c89.367273 0 104.261818 16.756364 113.570909 57.716364 0 1.861818 0 1.861818 1.861818 3.723636l27.927273 70.749091c5.585455 14.894545 22.341818 20.48 37.236364 14.894545 14.894545-5.585455 20.48-22.341818 14.894545-37.236363l-27.927273-68.887273c-20.48-81.92-76.334545-98.676364-167.563636-98.676364h-87.505454v-39.098182c0-46.545455-37.236364-83.781818-83.781819-83.781818h-169.425454c-46.545455 0-83.781818 37.236364-83.781818 83.781818v39.098182H158.254545c-61.44 0-111.709091 50.269091-111.70909 111.709091v381.672727c0 61.44 50.269091 111.709091 111.70909 111.709091h55.854546c18.618182 33.512727 55.854545 55.854545 96.814545 55.854546s78.196364-22.341818 96.814546-55.854546h223.418182c18.618182 33.512727 55.854545 55.854545 96.814545 55.854546s78.196364-22.341818 96.814546-55.854546h91.22909c61.44 0 111.709091-50.269091 111.709091-111.709091v-141.498181c0-57.716364-50.269091-107.985455-111.709091-107.985455zM310.923636 847.127273c-31.650909 0-55.854545-26.065455-55.854545-55.854546 0-31.650909 26.065455-55.854545 55.854545-55.854545s55.854545 26.065455 55.854546 55.854545-24.203636 55.854545-55.854546 55.854546z m417.047273 0c-31.650909 0-55.854545-26.065455-55.854545-55.854546 0-31.650909 26.065455-55.854545 55.854545-55.854545 31.650909 0 55.854545 26.065455 55.854546 55.854545s-24.203636 55.854545-55.854546 55.854546z" fill="#5E74FE" p-id="4236"></path><path d="M441.250909 603.229091c14.894545 0 27.927273-13.032727 27.927273-27.927273v-52.130909H521.309091c14.894545 0 27.927273-13.032727 27.927273-27.927273s-13.032727-27.927273-27.927273-27.927272h-52.130909v-52.130909c0-14.894545-13.032727-27.927273-27.927273-27.927273s-27.927273 13.032727-27.927273 27.927273v52.130909h-52.130909c-14.894545 0-27.927273 13.032727-27.927272 27.927272s13.032727 27.927273 27.927272 27.927273h52.130909v52.130909c0 16.756364 13.032727 27.927273 27.927273 27.927273z" fill="#5E74FE" p-id="4237"></path></svg>