<?xml version="1.0" standalone="no"?><!DOCTYPE svg PUBLIC "-//W3C//DTD SVG 1.1//EN" "http://www.w3.org/Graphics/SVG/1.1/DTD/svg11.dtd"><svg t="1650444028763" class="icon" viewBox="0 0 1024 1024" version="1.1" xmlns="http://www.w3.org/2000/svg" p-id="7957" xmlns:xlink="http://www.w3.org/1999/xlink" width="200" height="200"><defs><style type="text/css">@font-face { font-family: feedback-iconfont; src: url("//at.alicdn.com/t/font_1031158_u69w8yhxdu.woff2?t=1630033759944") format("woff2"), url("//at.alicdn.com/t/font_1031158_u69w8yhxdu.woff?t=1630033759944") format("woff"), url("//at.alicdn.com/t/font_1031158_u69w8yhxdu.ttf?t=1630033759944") format("truetype"); }
</style></defs><path d="M843.403636 109.847273h-670.254545c-59.578182 0-107.985455 53.992727-107.985455 119.156363v647.912728c0 65.163636 48.407273 119.156364 107.985455 119.156363h670.254545c59.578182 0 107.985455-53.992727 107.985455-119.156363V229.003636c0-65.163636-48.407273-119.156364-107.985455-119.156363z m48.407273 768.930909c0 33.512727-22.341818 59.578182-48.407273 59.578182h-670.254545c-26.065455 0-48.407273-27.927273-48.407273-59.578182V229.003636c0-33.512727 22.341818-59.578182 48.407273-59.578181h670.254545c26.065455 0 48.407273 27.927273 48.407273 59.578181v649.774546z" fill="#5E74FE" p-id="7958"></path><path d="M260.654545 564.130909c-16.756364 0-29.789091 13.032727-29.78909 29.789091v197.352727c0 16.756364 13.032727 29.789091 29.78909 29.789091s29.789091-13.032727 29.789091-29.789091V593.92c0-16.756364-13.032727-29.789091-29.789091-29.789091zM424.494545 327.68c-16.756364 0-29.789091 13.032727-29.78909 29.789091v433.803636c0 16.756364 13.032727 29.789091 29.78909 29.789091s29.789091-13.032727 29.789091-29.789091V357.469091c0-16.756364-13.032727-29.789091-29.789091-29.789091zM590.196364 564.130909c-16.756364 0-29.789091 13.032727-29.789091 29.789091v197.352727c0 16.756364 13.032727 29.789091 29.789091 29.789091s29.789091-13.032727 29.789091-29.789091V593.92c-1.861818-16.756364-14.894545-29.789091-29.789091-29.789091zM754.036364 623.709091c-16.756364 0-29.789091 13.032727-29.789091 29.789091v137.774545c0 16.756364 13.032727 29.789091 29.789091 29.789091s29.789091-13.032727 29.789091-29.789091V651.636364c0-14.894545-13.032727-27.927273-29.789091-27.927273z" fill="#5E74FE" p-id="7959"></path></svg>