<?xml version="1.0" standalone="no"?><!DOCTYPE svg PUBLIC "-//W3C//DTD SVG 1.1//EN" "http://www.w3.org/Graphics/SVG/1.1/DTD/svg11.dtd"><svg t="1650762943856" class="icon" viewBox="0 0 1024 1024" version="1.1" xmlns="http://www.w3.org/2000/svg" p-id="4252" xmlns:xlink="http://www.w3.org/1999/xlink" width="200" height="200"><defs><style type="text/css">@font-face { font-family: feedback-iconfont; src: url("//at.alicdn.com/t/font_1031158_u69w8yhxdu.woff2?t=1630033759944") format("woff2"), url("//at.alicdn.com/t/font_1031158_u69w8yhxdu.woff?t=1630033759944") format("woff"), url("//at.alicdn.com/t/font_1031158_u69w8yhxdu.ttf?t=1630033759944") format("truetype"); }
</style></defs><path d="M297.890909 502.690909c-20.48 0-37.236364 16.756364-37.236364 37.236364v24.203636c16.756364 0 29.789091 13.032727 29.789091 29.789091v197.352727c0 3.723636 0 5.585455-1.861818 9.309091 3.723636 0 5.585455 1.861818 9.309091 1.861818 20.48 0 37.236364-16.756364 37.236364-37.236363V539.927273c0-20.48-16.756364-37.236364-37.236364-37.236364zM446.836364 279.272727c-20.48 0-37.236364 16.756364-37.236364 37.236364v14.894545c3.723636-1.861818 9.309091-3.723636 14.894545-3.723636 16.756364 0 29.789091 13.032727 29.789091 29.789091v433.803636c0 3.723636 0 5.585455-1.861818 9.309091 16.756364-3.723636 31.650909-18.618182 31.650909-37.236363V316.509091c0-20.48-16.756364-37.236364-37.236363-37.236364zM614.4 539.927273c-16.756364 0-29.789091 11.170909-35.374545 26.065454 3.723636-1.861818 7.447273-1.861818 9.30909-1.861818 16.756364 0 29.789091 13.032727 29.789091 29.789091v197.352727c0 3.723636 0 7.447273-1.861818 9.309091 18.618182-1.861818 33.512727-16.756364 33.512727-37.236363V577.163636c1.861818-20.48-14.894545-37.236364-35.374545-37.236363zM781.963636 577.163636c-20.48 0-37.236364 16.756364-37.236363 37.236364v9.309091c3.723636 0 5.585455-1.861818 9.309091-1.861818 16.756364 0 29.789091 13.032727 29.789091 29.789091v137.774545c0 3.723636 0 7.447273-1.861819 9.309091 20.48 0 37.236364-16.756364 37.236364-37.236364v-148.945454c0-18.618182-16.756364-35.374545-37.236364-35.374546z" fill="#5E74FE" opacity=".25" p-id="4253"></path><path d="M843.403636 109.847273h-670.254545c-59.578182 0-107.985455 53.992727-107.985455 119.156363v647.912728c0 65.163636 48.407273 119.156364 107.985455 119.156363h670.254545c59.578182 0 107.985455-53.992727 107.985455-119.156363V229.003636c0-65.163636-48.407273-119.156364-107.985455-119.156363z m48.407273 768.930909c0 33.512727-22.341818 59.578182-48.407273 59.578182h-670.254545c-26.065455 0-48.407273-27.927273-48.407273-59.578182V229.003636c0-33.512727 22.341818-59.578182 48.407273-59.578181h670.254545c26.065455 0 48.407273 27.927273 48.407273 59.578181v649.774546z" fill="#5E74FE" p-id="4254"></path><path d="M290.443636 593.92c0-16.756364-13.032727-29.789091-29.789091-29.789091-16.756364 0-29.789091 13.032727-29.78909 29.789091v197.352727c0 16.756364 13.032727 29.789091 29.78909 29.789091 13.032727 0 24.203636-9.309091 27.927273-20.48 0-1.861818 1.861818-5.585455 1.861818-9.309091V593.92zM454.283636 357.469091c0-16.756364-13.032727-29.789091-29.789091-29.789091-5.585455 0-11.170909 1.861818-14.894545 3.723636-9.309091 5.585455-14.894545 14.894545-14.894545 26.065455v433.803636c0 16.756364 13.032727 29.789091 29.78909 29.789091 13.032727 0 24.203636-9.309091 27.927273-20.48 1.861818-3.723636 1.861818-5.585455 1.861818-9.309091V357.469091zM618.123636 593.92c0-16.756364-13.032727-29.789091-29.789091-29.789091-3.723636 0-7.447273 0-9.30909 1.861818-11.170909 3.723636-18.618182 14.894545-18.618182 27.927273v197.352727c0 16.756364 13.032727 29.789091 29.789091 29.789091 13.032727 0 24.203636-7.447273 27.927272-20.48 1.861818-3.723636 1.861818-5.585455 1.861819-9.309091V593.92zM783.825455 651.636364c0-16.756364-13.032727-29.789091-29.789091-29.789091-3.723636 0-5.585455 0-9.309091 1.861818-11.170909 3.723636-20.48 14.894545-20.48 27.927273v137.774545c0 16.756364 13.032727 29.789091 29.789091 29.789091 13.032727 0 24.203636-7.447273 27.927272-20.48 1.861818-3.723636 1.861818-5.585455 1.861819-9.309091V651.636364z" fill="#5E74FE" p-id="4255"></path></svg>