<?xml version="1.0" standalone="no"?><!DOCTYPE svg PUBLIC "-//W3C//DTD SVG 1.1//EN" "http://www.w3.org/Graphics/SVG/1.1/DTD/svg11.dtd"><svg t="1642131432646" class="icon" viewBox="0 0 1024 1024" version="1.1" xmlns="http://www.w3.org/2000/svg" p-id="5402" xmlns:xlink="http://www.w3.org/1999/xlink" width="200" height="200"><defs><style type="text/css"></style></defs><path d="M545.512727 323.956364c0-44.683636-29.789091-83.781818-68.887272-96.814546 9.309091 14.894545 13.032727 33.512727 13.032727 52.130909 0 48.407273-33.512727 89.367273-78.196364 102.4v39.098182c11.170909 3.723636 20.48 5.585455 33.512727 5.585455 55.854545 0 100.538182-46.545455 100.538182-102.4zM344.436364 309.061818c9.309091 11.170909 22.341818 20.48 39.098181 20.48 27.927273 0 50.269091-22.341818 50.269091-50.269091 0-20.48-13.032727-39.098182-33.512727-46.545454-29.789091 14.894545-50.269091 42.821818-55.854545 76.334545zM558.545455 757.76c0-55.854545-44.683636-100.538182-100.538182-100.538182H446.836364c26.065455 18.618182 42.821818 50.269091 42.821818 83.781818 0 48.407273-33.512727 89.367273-78.196364 102.4v3.723637c13.032727 7.447273 29.789091 11.170909 46.545455 11.170909 55.854545 0 100.538182-44.683636 100.538182-100.538182z" fill="#5E74FE" opacity=".25" p-id="5403"></path><path d="M433.803636 741.003636c0-27.927273-22.341818-50.269091-50.269091-50.269091h-3.723636c-14.894545 16.756364-24.203636 40.96-24.203636 65.163637 0 9.309091 1.861818 18.618182 3.723636 27.927273 7.447273 3.723636 14.894545 5.585455 24.203636 5.585454 27.927273 1.861818 50.269091-20.48 50.269091-48.407273z" fill="#5E74FE" opacity=".25" p-id="5404"></path><path d="M862.021818 9.309091H195.490909C111.709091 9.309091 42.821818 78.196364 42.821818 161.978182v666.530909c0 83.781818 68.887273 152.669091 152.669091 152.669091h666.530909c83.781818 0 152.669091-68.887273 152.669091-152.669091V161.978182c0-85.643636-68.887273-152.669091-152.669091-152.669091zM433.803636 279.272727c0 27.927273-22.341818 50.269091-50.269091 50.269091-16.756364 0-29.789091-7.447273-39.098181-20.48-5.585455-7.447273-11.170909-18.618182-11.170909-29.789091 0-27.927273 22.341818-50.269091 50.26909-50.269091 5.585455 0 11.170909 1.861818 16.756364 3.723637 18.618182 7.447273 33.512727 26.065455 33.512727 46.545454z m-50.269091 512c-9.309091 0-16.756364-1.861818-24.203636-5.585454-14.894545-9.309091-26.065455-24.203636-26.065454-42.821818 0-26.065455 20.48-46.545455 46.545454-48.407273h3.723636c27.927273 0 50.269091 22.341818 50.269091 50.269091 0 24.203636-22.341818 46.545455-50.269091 46.545454z m-286.72 37.236364V161.978182c0-53.992727 42.821818-96.814545 96.814546-96.814546H353.745455v113.570909c-44.683636 13.032727-78.196364 53.992727-78.196364 102.4s33.512727 89.367273 78.196364 102.4v258.792728c-44.683636 13.032727-78.196364 53.992727-78.196364 102.4s33.512727 89.367273 78.196364 102.4v81.92h-160.116364c-52.130909-3.723636-96.814545-46.545455-96.814546-100.538182z m862.021819 0c0 53.992727-42.821818 96.814545-96.814546 96.814545H411.461818v-78.196363-3.723637c44.683636-13.032727 78.196364-53.992727 78.196364-102.4 0-35.374545-16.756364-65.163636-42.821818-83.781818-11.170909-7.447273-22.341818-13.032727-35.374546-16.756363V381.672727c44.683636-13.032727 78.196364-53.992727 78.196364-102.4 0-18.618182-5.585455-35.374545-13.032727-52.130909-13.032727-24.203636-37.236364-42.821818-63.301819-50.269091v-111.709091h450.56c53.992727 0 96.814545 42.821818 96.814546 96.814546v666.530909z" fill="#5E74FE" p-id="5405"></path><path d="M809.890909 251.345455h-223.418182c-14.894545 0-27.927273 13.032727-27.927272 27.927272s13.032727 27.927273 27.927272 27.927273h223.418182c14.894545 0 27.927273-13.032727 27.927273-27.927273s-11.170909-27.927273-27.927273-27.927272zM809.890909 716.8h-223.418182c-14.894545 0-27.927273 13.032727-27.927272 27.927273s13.032727 27.927273 27.927272 27.927272h223.418182c14.894545 0 27.927273-13.032727 27.927273-27.927272s-11.170909-27.927273-27.927273-27.927273z" fill="#5E74FE" p-id="5406"></path></svg>