<?xml version="1.0" standalone="no"?><!DOCTYPE svg PUBLIC "-//W3C//DTD SVG 1.1//EN" "http://www.w3.org/Graphics/SVG/1.1/DTD/svg11.dtd"><svg t="1659430566576" class="icon" viewBox="0 0 1024 1024" version="1.1" xmlns="http://www.w3.org/2000/svg" p-id="7032" xmlns:xlink="http://www.w3.org/1999/xlink" width="200" height="200"><defs><style type="text/css">@font-face { font-family: feedback-iconfont; src: url("//at.alicdn.com/t/font_1031158_u69w8yhxdu.woff2?t=1630033759944") format("woff2"), url("//at.alicdn.com/t/font_1031158_u69w8yhxdu.woff?t=1630033759944") format("woff"), url("//at.alicdn.com/t/font_1031158_u69w8yhxdu.ttf?t=1630033759944") format("truetype"); }
</style></defs><path d="M567.854545 77.824a402.711273 402.711273 0 0 0-74.472727 7.261091V204.8h147.828364V163.281455A352.256 352.256 0 0 1 912.290909 509.207273a352.628364 352.628364 0 0 1-270.522182 346.112v-95.138909a74.472727 74.472727 0 1 0-147.828363 0v173.335272a402.711273 402.711273 0 0 0 74.472727 7.074909C799.278545 940.590545 986.763636 747.52 986.763636 509.207273S799.278545 77.824 567.854545 77.824z" fill="#5E74FE" p-id="7033"></path><path d="M21.783273 584.983273h793.320727v52.875636H21.783273zM791.086545 527.825455a65.908364 65.908364 0 1 0-91.415272 20.666181 66.280727 66.280727 0 0 0 91.415272-20.666181zM74.472727 550.167273c23.831273-2.792727 47.476364-7.074909 71.307637-10.798546 16.570182-2.420364 32.954182-6.330182 49.524363-7.261091a150.807273 150.807273 0 0 1 33.885091 4.282182c22.155636 3.909818 44.497455 8.192 66.653091 12.846546a47.104 47.104 0 0 1 10.053818 5.213091 325.073455 325.073455 0 0 0 38.725818 1.489454c37.236364 2.048 156.206545 1.675636 214.295273 0 13.963636 0 28.299636 0 42.263273-1.117091a48.034909 48.034909 0 0 0 45.986909-31.837091A47.104 47.104 0 0 0 614.4 462.475636c-27.182545-9.309091-267.915636-22.714182-295.098182-13.405091A180.037818 180.037818 0 0 0 275.921455 484.072727c-22.341818-3.351273-41.890909-8.564364-62.743273-11.543272a108.916364 108.916364 0 0 0-31.092364 0c-37.236364 5.585455-76.334545 11.915636-114.501818 18.618181a30.906182 30.906182 0 0 0-27.741091 32.581819A30.347636 30.347636 0 0 0 74.472727 550.167273z m261.585455-67.770182a18.618182 18.618182 0 0 1 21.783273-11.357091l97.931636 17.501091a128.837818 128.837818 0 0 0 23.645091 3.165091c39.842909 0 79.685818-0.930909 119.528727-1.489455a18.618182 18.618182 0 1 1 0 37.236364l-66.466909 0.930909a478.114909 478.114909 0 0 1-65.349818 0c-39.284364-5.213091-78.010182-13.405091-117.108364-20.293818a60.136727 60.136727 0 0 1-5.957818-1.861818 18.618182 18.618182 0 0 1-8.005818-23.831273z" fill="#5E74FE" p-id="7034"></path></svg>