<?xml version="1.0" standalone="no"?><!DOCTYPE svg PUBLIC "-//W3C//DTD SVG 1.1//EN" "http://www.w3.org/Graphics/SVG/1.1/DTD/svg11.dtd"><svg t="1659430524052" class="icon" viewBox="0 0 1024 1024" version="1.1" xmlns="http://www.w3.org/2000/svg" p-id="5934" xmlns:xlink="http://www.w3.org/1999/xlink" width="200" height="200"><defs><style type="text/css">@font-face { font-family: feedback-iconfont; src: url("//at.alicdn.com/t/font_1031158_u69w8yhxdu.woff2?t=1630033759944") format("woff2"), url("//at.alicdn.com/t/font_1031158_u69w8yhxdu.woff?t=1630033759944") format("woff"), url("//at.alicdn.com/t/font_1031158_u69w8yhxdu.ttf?t=1630033759944") format("truetype"); }
</style></defs><path d="M639.720727 667.461818a14.336 14.336 0 0 1 14.149818-14.149818h15.080728A200.517818 200.517818 0 0 1 781.963636 585.728v-374.225455a22.714182 22.714182 0 0 0-22.714181-22.528h-122.88a206.289455 206.289455 0 0 1 22.341818 49.152 215.04 215.04 0 0 1 8.005818 37.236364h50.269091a13.963636 13.963636 0 0 1 13.591273 10.612364 10.798545 10.798545 0 0 1 0 3.537454v83.037091a10.798545 10.798545 0 0 1 0 3.537455 13.963636 13.963636 0 0 1-13.591273 10.612363h-63.115637a10.798545 10.798545 0 0 1-3.351272 0 215.784727 215.784727 0 0 1-74.472728 90.856728v84.340363a13.218909 13.218909 0 0 1-2.978909 8.378182 13.963636 13.963636 0 0 1-11.357091 5.771636h-62.370909a14.149818 14.149818 0 0 1-14.149818-14.149818v-48.407272a193.442909 193.442909 0 0 1-63.301818 0v48.407272a14.149818 14.149818 0 0 1-14.149818 14.149818h-63.115637a14.336 14.336 0 0 1-11.170909-5.585454 14.149818 14.149818 0 0 1-2.978909-8.564364v-83.037091a2.606545 2.606545 0 0 1 0-1.303272 215.226182 215.226182 0 0 1-74.472727-90.856728 9.867636 9.867636 0 0 1-3.351273 0h-62.557091a14.336 14.336 0 0 1-13.777454-10.612363 10.798545 10.798545 0 0 1 0-3.537455v-82.292363a10.798545 10.798545 0 0 1 0-3.537455 14.336 14.336 0 0 1 13.777454-10.612364h50.082909a221.184 221.184 0 0 1 30.347637-87.133091H148.945455a22.714182 22.714182 0 0 0-22.714182 22.528v628.922182a22.714182 22.714182 0 0 1-22.714182 22.714182H78.568727A22.714182 22.714182 0 0 0 55.854545 885.853091v29.044364a22.714182 22.714182 0 0 0 22.714182 22.714181h627.805091a195.490909 195.490909 0 0 1-83.037091-159.371636 191.394909 191.394909 0 0 1 16.384-78.010182z m0-188.602182A14.149818 14.149818 0 0 1 651.636364 465.454545a8.192 8.192 0 0 1 2.978909 0h63.115636a13.963636 13.963636 0 0 1 13.591273 10.612364 10.798545 10.798545 0 0 1 0 3.537455v83.037091a10.798545 10.798545 0 0 1 0 3.537454 13.963636 13.963636 0 0 1-13.591273 10.612364H650.891636a14.149818 14.149818 0 0 1-11.170909-13.777455z m-463.965091 0a10.798545 10.798545 0 0 1 0-3.537454 14.336 14.336 0 0 1 13.777455-10.612364h62.929454a9.309091 9.309091 0 0 1 3.165091 0 13.963636 13.963636 0 0 1 10.984728 13.777455v83.037091a13.963636 13.963636 0 0 1-10.984728 13.777454h-65.536a14.336 14.336 0 0 1-13.777454-10.612363 10.798545 10.798545 0 0 1 0-3.537455z m91.601455 271.639273a14.336 14.336 0 0 1-14.336 14.149818h-62.929455a14.336 14.336 0 0 1-14.336-14.149818v-83.037091a14.336 14.336 0 0 1 14.336-14.149818h62.929455a14.336 14.336 0 0 1 14.336 14.149818z m154.530909 0a14.149818 14.149818 0 0 1-14.149818 14.149818h-63.115637a14.149818 14.149818 0 0 1-14.149818-14.149818v-83.037091a14.149818 14.149818 0 0 1 2.978909-8.564363 14.336 14.336 0 0 1 11.170909-5.585455h63.115637a14.149818 14.149818 0 0 1 14.149818 14.149818z m154.717091 0a14.336 14.336 0 0 1-14.336 14.149818h-62.929455a14.149818 14.149818 0 0 1-14.149818-14.149818v-83.037091a14.149818 14.149818 0 0 1 14.149818-14.149818h62.929455a13.963636 13.963636 0 0 1 11.357091 5.771636 13.591273 13.591273 0 0 1 2.978909 8.378182z" fill="#5E74FE" p-id="5935"></path><path d="M329.169455 233.285818h44.683636c30.161455 0 53.434182 10.426182 53.434182 42.635637s-23.458909 45.056-52.689455 45.056h-18.618182v48.407272h-26.810181zM372.363636 299.380364c18.618182 0 27.741091-7.819636 27.741091-23.458909S390.981818 254.696727 372.363636 254.696727h-15.453091v44.683637zM433.989818 301.800727c0-44.869818 28.858182-71.121455 63.301818-71.121454a54.737455 54.737455 0 0 1 39.842909 17.501091l-14.336 17.314909a34.629818 34.629818 0 0 0-24.948363-11.543273c-20.666182 0-36.119273 17.687273-36.119273 46.917818s13.963636 47.476364 35.560727 47.476364a37.236364 37.236364 0 0 0 28.113455-13.218909l14.336 16.942545A55.854545 55.854545 0 0 1 496.360727 372.363636c-34.443636 0-62.370909-25.134545-62.370909-70.562909zM550.539636 233.285818H577.163636v136.098909h-26.624z" fill="#5E74FE" p-id="5936"></path><path d="M453.538909 114.315636a186.181818 186.181818 0 1 0 186.181818 186.181819 187.112727 187.112727 0 0 0-186.181818-186.181819z m-162.164364 186.181819a161.792 161.792 0 0 1 41.146182-107.613091L555.194182 428.218182a160.674909 160.674909 0 0 1-101.655273 36.119273 162.350545 162.350545 0 0 1-162.164364-163.095273z m284.672 105.937454L353.745455 173.893818a161.978182 161.978182 0 0 1 223.418181 233.285818zM986.763636 772.282182a161.047273 161.047273 0 0 0-156.206545-153.413818h-12.474182A159.557818 159.557818 0 1 0 986.763636 784.384v-12.101818z m-69.818181 41.332363a14.894545 14.894545 0 0 1-12.474182 14.708364h-106.309818a14.894545 14.894545 0 0 1-14.708364-12.288v-103.889454a15.080727 15.080727 0 0 1 12.474182-14.708364h15.825454a14.894545 14.894545 0 0 1 14.708364 12.288v76.334545h75.589818a15.266909 15.266909 0 0 1 14.149818 9.867637v17.873454z" fill="#5E74FE" p-id="5937"></path></svg>