<?xml version="1.0" standalone="no"?><!DOCTYPE svg PUBLIC "-//W3C//DTD SVG 1.1//EN" "http://www.w3.org/Graphics/SVG/1.1/DTD/svg11.dtd"><svg t="1659430613989" class="icon" viewBox="0 0 1024 1024" version="1.1" xmlns="http://www.w3.org/2000/svg" p-id="8269" xmlns:xlink="http://www.w3.org/1999/xlink" width="200" height="200"><defs><style type="text/css">@font-face { font-family: feedback-iconfont; src: url("//at.alicdn.com/t/font_1031158_u69w8yhxdu.woff2?t=1630033759944") format("woff2"), url("//at.alicdn.com/t/font_1031158_u69w8yhxdu.woff?t=1630033759944") format("woff"), url("//at.alicdn.com/t/font_1031158_u69w8yhxdu.ttf?t=1630033759944") format("truetype"); }
</style></defs><path d="M502.222217 291.230658a30.902809 30.902809 0 0 0-5.339228 16.179481 127.979695 127.979695 0 0 0 9.222304 28.637681A169.237371 169.237371 0 0 1 536.360922 299.967578l2.912307-2.265128a196.904284 196.904284 0 0 0-32.358962-8.575124 11.811021 11.811021 0 0 0-4.69205 2.103332zM594.607054 334.915257a116.492263 116.492263 0 0 0-30.579219 43.684599 7.118972 7.118972 0 0 0 0 1.617948 43.684599 43.684599 0 0 0-0.970769 12.296405l1.456153 8.089741v2.426922c44.169983 4.692049 46.273316-20.709736 46.273316-27.343323v-1.456153a35.109474 35.109474 0 0 0-1.132564-9.06051A123.611235 123.611235 0 0 0 597.84295 339.769101a58.569721 58.569721 0 0 0-3.235896-4.853844z" fill="#5E74FE" p-id="8270"></path><path d="M429.414553 324.398594a135.098666 135.098666 0 0 0 11.487431 53.877672 83.647917 83.647917 0 0 1 8.898715 0h1.132564a69.086384 69.086384 0 0 1 9.545893 0.808974h4.530255l2.912307 0.808974h3.074101a11.972816 11.972816 0 0 0 15.046917-4.530255c4.206665-6.633587 10.354868-19.577172 16.988455-31.388193 0-0.808974-2.103333-9.060509-2.426922-10.031278v-1.456153a90.281504 90.281504 0 0 1-8.575125-31.064604 31.064604 31.064604 0 0 1 5.339229-16.179481 7.766151 7.766151 0 0 1 7.280767-3.397691 404.487025 404.487025 0 0 1 40.448702 10.031278l2.265127-1.456153a135.260461 135.260461 0 0 1 12.458201-7.766151 12.943585 12.943585 0 0 1 2.588717-1.294358l2.103332-1.132564a75.234587 75.234587 0 0 0-52.583313-62.452797c-38.507165-10.031278-80.897405 22.327684-81.868174 53.392288v49.832801zM809.308767 284.920661a194.153772 194.153772 0 0 1 6.957177 27.505117 14.885123 14.885123 0 0 1-8.575125 5.662819c-9.222304 3.074101-3.074101 7.766151-12.296406 24.592811s4.692049 16.179481-2.912306 32.358962-4.692049 9.222304-1.617948 26.048964 16.179481 6.148203 16.179481 18.444608a16.179481 16.179481 0 0 0 9.222304 15.370507c-1.456153 7.442561-3.397691 14.885123-5.662819 22.489479a4.530255 4.530255 0 0 0 3.074102 5.501024 3.559486 3.559486 0 0 0 3.397691 0 4.04487 4.04487 0 0 0 2.265127-2.588717 318.897571 318.897571 0 0 0 0-177.974291 4.692049 4.692049 0 0 0-2.265127-2.426923 4.36846 4.36846 0 0 0-6.471793 4.044871 4.530255 4.530255 0 0 0-1.294358 0.970769zM730.514694 465.483669a4.692049 4.692049 0 0 0 3.074102-5.662819c-2.426922-7.927946-4.36846-16.179481-5.986408-23.460247a14.885123 14.885123 0 0 1 8.575125-5.824613c9.222304-3.074101 3.074101-7.604356 12.296405-24.431017s-4.530255-16.988455 3.074102-32.358962 4.692049-9.222304 1.617948-26.210759-15.370507-5.986408-15.370507-18.282814a16.179481 16.179481 0 0 0-10.354868-16.179481 205.964793 205.964793 0 0 1 6.633587-26.048964 4.853844 4.853844 0 0 0 0-3.397691 4.36846 4.36846 0 0 0-2.588717-2.265127 3.559486 3.559486 0 0 0-3.397691 0 4.530255 4.530255 0 0 0-2.426922 2.426922 310.969625 310.969625 0 0 0-12.943585 90.766888 305.468601 305.468601 0 0 0 12.458201 87.207403 3.721281 3.721281 0 0 0 2.103332 2.588717 4.206665 4.206665 0 0 0 3.235896 1.132564zM768.536475 283.302712h6.957177v177.974291h-6.957177z" fill="#5E74FE" p-id="8271"></path><path d="M771.934166 475.838536A104.195858 104.195858 0 1 1 876.130023 372.128063a104.357652 104.357652 0 0 1-104.195857 103.710473z m0-202.567102A98.533039 98.533039 0 1 0 870.467205 372.128063a98.533039 98.533039 0 0 0-98.533039-98.856629zM593.312695 498.48981a15.046917 15.046917 0 0 0 9.545894-9.707689v-5.662818a88.501761 88.501761 0 0 0-5.662818-14.399738 217.128635 217.128635 0 0 0-16.179481-27.019734h-1.779743v59.540491a46.920495 46.920495 0 0 0 6.148203 0 21.19512 21.19512 0 0 0 7.927945-2.750512zM610.94833 462.733157l-6.633587-4.530255a30.579219 30.579219 0 0 1 1.779742 4.04487 85.589455 85.589455 0 0 1 5.986408 16.179481 5.986408 5.986408 0 0 1 0 1.941538V485.869815c0 2.588717 0 5.339229 1.294359 7.927945 1.294358 7.442561 2.912307 14.723328 4.530255 21.356915h7.76615V476.485716a135.584051 135.584051 0 0 0-14.723327-13.752559zM613.860636 458.688286a137.040204 137.040204 0 0 1 13.752559 12.458201v-31.388193h-33.329731c1.617948 2.750512 3.397691 5.339229 5.015639 8.41333 5.501024 3.721281 10.193073 7.118972 14.561533 10.516662z" fill="#5E74FE" p-id="8272"></path><path d="M696.861374 536.349795A283.626302 283.626302 0 0 0 657.545235 420.666506l-22.489479 18.444608v40.125113a13.914354 13.914354 0 0 0 2.103333 2.265128 64.717924 64.717924 0 0 0 8.089741 6.471792 27.990502 27.990502 0 0 1 8.41333 7.927946 22.651273 22.651273 0 0 1 3.235896 10.840252v1.294359h-2.426922v-1.132564a21.356915 21.356915 0 0 0-3.074102-9.545894 29.60845 29.60845 0 0 0-7.604356-6.633587c-2.912307-1.941538-5.824613-3.883075-8.41333-5.986408v36.242037a3.721281 3.721281 0 0 1-3.721281 3.721281h-1.617948a40.772292 40.772292 0 0 1 6.471793 6.471792 22.004094 22.004094 0 0 1 1.941537 2.750512l1.456154 2.265128a16.179481 16.179481 0 0 0 3.72128 3.72128 11.002047 11.002047 0 0 0 6.795382 2.103333h2.912307a6.633587 6.633587 0 0 1 5.824613 3.397691 9.060509 9.060509 0 0 1 0.808974 6.148202 21.356915 21.356915 0 0 1-1.294358 5.339229 25.401785 25.401785 0 0 1-1.456154 3.721281l1.132564 1.456153 2.426922 1.779743a39.801523 39.801523 0 0 0 5.824613 2.750512h1.132564l-0.970769 2.912306h-1.132563a32.358962 32.358962 0 0 1-6.309998-3.235896 30.417424 30.417424 0 0 1-2.912307-1.941538 11.972816 11.972816 0 0 1-2.750511-3.397691v-2.588717a29.123066 29.123066 0 0 0 1.294358-3.397691 27.019733 27.019733 0 0 0 0.970769-4.692049 5.501024 5.501024 0 0 0 0-3.559486 2.103333 2.103333 0 0 0-1.941538-1.132564h-4.206665a16.179481 16.179481 0 0 1-9.222304-2.750511 25.23999 25.23999 0 0 1-4.853844-4.530255l-2.265128-1.779743a11.811021 11.811021 0 0 0-1.456153-2.103332 53.554082 53.554082 0 0 0-8.575125-7.604356l-2.588717-1.779743v1.941537l1.294359 3.883076v2.265127a13.10538 13.10538 0 0 1 0 1.779743 18.768198 18.768198 0 0 1 0 10.354868 68.439205 68.439205 0 0 1-7.442562 16.179481l-1.617948 2.750512a128.303284 128.303284 0 0 0 16.179481 22.489478 56.628184 56.628184 0 0 0 10.840253 9.222304 24.269222 24.269222 0 0 0 12.78179 4.36846v2.103333h-1.456154a27.666913 27.666913 0 0 1-13.590764-4.04487 66.821257 66.821257 0 0 1-12.134611-9.222305 134.613282 134.613282 0 0 1-10.193073-11.163841c-2.265127-2.912307-4.36846-5.824613-6.471792-8.898715-1.294358 2.103333-2.265127 4.04487-3.235896 5.824613l-0.808974 1.779743v5.177434c0 1.779743-0.808974 3.559486-1.132564 5.177434a21.51871 21.51871 0 0 0-0.808974 3.074101 76.36715 76.36715 0 0 0-2.265127 16.179481 36.403832 36.403832 0 0 0 0.970769 10.678458c4.04487 2.103333 8.251535 4.206665 12.13461 5.824613a86.560223 86.560223 0 0 0 14.237944 5.015639 31.226398 31.226398 0 0 0 6.795382 0.970769 24.431016 24.431016 0 0 0 5.986408-1.132564h1.456153c2.103333 0 4.692049-1.294358 7.118972-2.265127l3.235896-1.617948c0.808974 0 1.779743-1.132564 1.779743-1.617948v-1.132564h2.912306v1.456153a5.339229 5.339229 0 0 1-2.750512 3.559486 20.547941 20.547941 0 0 1-3.72128 1.941538 63.58536 63.58536 0 0 1-7.442561 2.912306h-1.617948a23.945632 23.945632 0 0 1-6.309998 1.617948h-1.456153a46.111521 46.111521 0 0 1-6.795382 0 91.414068 91.414068 0 0 1-15.046918-4.692049c-2.588717 0-5.015639-1.941538-7.927945-3.074101a44.008188 44.008188 0 0 0 19.738966 18.929992h1.132564l-1.617948 3.235897h-1.132564l-2.588717-1.294359-5.015639-2.588717-3.559486-2.265127-1.779743-1.294359-1.617948-1.617948-3.235896-2.912306-1.294358-3.883076a12.296406 12.296406 0 0 1-1.294359-1.779743l-2.265127 1.456154a32.358962 32.358962 0 0 1-5.986408 2.103332 46.43511 46.43511 0 0 1-11.972816 1.456153 89.634325 89.634325 0 0 1-11.811021 0c-3.883075 0-7.766151-0.970769-11.325637-1.617948h-1.294358v-2.912306h1.294358l11.325637 0.970769h11.325637a59.2169 59.2169 0 0 0 10.840252-1.941538 17.473839 17.473839 0 0 0 4.692049-2.103333l1.941538-1.294358a4.04487 4.04487 0 0 1 0-1.132564 55.333825 55.333825 0 0 1-1.779743-32.358962 28.152297 28.152297 0 0 1-5.501023 0.808974h-2.103333a64.717924 64.717924 0 0 1-9.222304-0.808974 16.179481 16.179481 0 0 0-9.384099 3.883076l-4.69205 3.883075a12.296406 12.296406 0 0 1-6.795382 2.588717h-1.941537a40.610497 40.610497 0 0 1-10.678458-1.456153 102.57791 102.57791 0 0 1-11.972816-3.721281h-1.132563l1.132563-3.074101h1.132564a104.195858 104.195858 0 0 0 11.649226 3.235896 39.316139 39.316139 0 0 0 8.898715 1.132564h2.588717a7.766151 7.766151 0 0 0 4.36846-1.779743l4.692049-4.044871a24.107427 24.107427 0 0 1 5.662818-3.72128 19.253582 19.253582 0 0 1 6.795382-1.779743h10.354868a12.943585 12.943585 0 0 0 7.280767-2.265127v-5.824614a9.545894 9.545894 0 0 1 0-2.103332v-2.265128l0.808974-2.103332c1.779743-3.721281 3.559486-7.118972 5.501023-10.354868l2.588717-4.530255a60.187669 60.187669 0 0 0 6.148203-14.076148 10.840252 10.840252 0 0 0 0-5.662818 1.779743 1.779743 0 0 1 0-0.970769l1.294359-2.912307-1.456154-4.04487c0-1.456153-0.808974-3.235896-1.294358-4.853844h-36.403832a3.721281 3.721281 0 0 1-3.721281-3.721281v-18.768198a97.076886 97.076886 0 0 1-10.840252-3.235896l-1.941538-0.808974-6.309998-1.941538h-3.074101a5.501024 5.501024 0 0 0-2.912307 1.132564l-0.970768 0.808974-2.265128-2.750512 1.132564-0.808974a9.384099 9.384099 0 0 1 4.692049-2.103333h4.69205l6.148203 1.779743 2.103332 0.808974a93.032016 93.032016 0 0 0 9.384099 2.588717V436.845987a3.721281 3.721281 0 0 1 3.721281-3.72128l-4.853845-5.339229a52.906903 52.906903 0 0 1-9.545893-18.444609v-0.970768a41.743061 41.743061 0 0 1-2.588717-28.314092v-2.265128a122.478671 122.478671 0 0 1 32.358962-46.920494l1.456153-1.294359 2.426922-1.617948a54.686646 54.686646 0 0 1 46.596905-5.662818 14.076148 14.076148 0 0 0 16.179481-7.118972 29.93204 29.93204 0 0 0-5.986408-37.051012 14.723328 14.723328 0 0 0-7.442561-3.72128 121.022518 121.022518 0 0 0-76.205355 14.399738l-2.588717 1.456153-12.458201 7.604356-3.397691 2.426922-2.426922 1.617949-5.824613 4.530254a172.635062 172.635062 0 0 0-31.064603 39.316139c-11.811021 19.253582-19.738967 37.374601-22.327684 41.419471a16.179481 16.179481 0 0 1-18.929993 4.206666l-1.779743-0.808975h-1.617948l-2.588717-2.265127H457.728645a79.603047 79.603047 0 0 0-10.354868-0.970769h-1.132564a71.189716 71.189716 0 0 0-9.545894 0 39.639728 39.639728 0 0 1-5.986408-13.105379 122.964056 122.964056 0 0 1-9.545893-47.40588V323.58962c-1.456153-27.019733 0-53.554082 0-53.554082a24.754606 24.754606 0 0 0-37.698191-8.73692 16.179481 16.179481 0 0 0-7.442561 15.208712 797.972003 797.972003 0 0 1-2.912307 98.047655 127.008926 127.008926 0 0 0-21.19512 75.558177c13.752559 135.90764 70.866127 158.235324 126.199952 176.356343s171.340704 30.902809 190.432491 9.545893 32.035372-36.242037 28.314092-99.665603z" fill="#5E74FE" p-id="8273"></path><path d="M631.981655 432.477527l21.842299-18.121018c-1.779743-3.074101-3.074101-5.015639-3.074101-5.01564a122.155082 122.155082 0 0 0-34.785884-34.300499v1.294358c0 6.633587 0 35.109474-44.008188 32.358962l12.78179 16.179481 2.750511 3.559486 1.941538 2.588717h42.228445zM604.638332 496.871862a20.87153 20.87153 0 0 1-9.545894 6.633587 29.93204 29.93204 0 0 1-8.736919 1.294358 40.448703 40.448703 0 0 1-7.280767 0v12.943585h30.579219c-1.779743-6.148203-3.397691-12.78179-4.853844-20.062556z" fill="#5E74FE" p-id="8274"></path><path d="M673.077537 401.574719l-13.914354-1.456154a1.779743 1.779743 0 0 0-1.132563 0 1.617948 1.617948 0 0 0 0 1.132564v3.559486a1.617948 1.617948 0 0 0 1.456153 1.941537h6.471792l-32.358962 26.857939a1.779743 1.779743 0 0 0 0 2.426922l2.426922 2.750512a1.617948 1.617948 0 0 0 2.265128 0l32.358962-27.019733v6.471792a1.617948 1.617948 0 0 0 1.617948 1.779743h3.559486a1.294358 1.294358 0 0 0 1.294358 0 1.456153 1.456153 0 0 0 0-1.132564l1.294359-13.752559a4.853844 4.853844 0 0 0-5.339229-3.559485zM502.707602 706.234346v1.779743l-29.446656 64.717924h-32.035372l24.431016-53.392288-148.042251 53.392288-10.516662-26.534349L455.463517 691.996403l-74.425612-35.594859 12.78179-25.401785 97.076886 46.7587a23.622042 23.622042 0 0 1 11.811021 28.475887z" fill="#5E74FE" p-id="8275"></path><path d="M447.859161 706.072551L418.250711 174.091216H75.407509a15.046917 15.046917 0 0 0-15.046918 15.046917v537.482359h44.331778l192.859414-59.055106V266.152463L104.692369 210.333253v-6.957177H418.250711a15.046917 15.046917 0 0 0 15.046917-15.046917 15.046917 15.046917 0 0 0-15.046917-14.237943z m-177.974291 298.835014a19.091788 19.091788 0 1 1 19.091788 19.091788 18.929993 18.929993 0 0 1-19.091788-19.091788z m0 0" fill="#5E74FE" p-id="8276"></path></svg>