<?xml version="1.0" standalone="no"?><!DOCTYPE svg PUBLIC "-//W3C//DTD SVG 1.1//EN" "http://www.w3.org/Graphics/SVG/1.1/DTD/svg11.dtd"><svg t="1661316310506" class="icon" viewBox="0 0 1024 1024" version="1.1" xmlns="http://www.w3.org/2000/svg" p-id="5771" xmlns:xlink="http://www.w3.org/1999/xlink" width="200" height="200"><defs><style type="text/css">@font-face { font-family: feedback-iconfont; src: url("//at.alicdn.com/t/font_1031158_u69w8yhxdu.woff2?t=1630033759944") format("woff2"), url("//at.alicdn.com/t/font_1031158_u69w8yhxdu.woff?t=1630033759944") format("woff"), url("//at.alicdn.com/t/font_1031158_u69w8yhxdu.ttf?t=1630033759944") format("truetype"); }
</style></defs><path d="M33.564444 384.379259a18.962963 18.962963 0 0 0 6.447408-1.327407c1.137778 0-13.653333 2.085926 59.922963-13.463704a62.577778 62.577778 0 0 1 25.031111 36.02963c14.032593 39.632593 33.374815 12.705185 107.140741 50.820741s59.543704-10.808889 100.882963 11.188148c65.422222 34.702222 40.201481 18.962963 113.777777 4.361481s25.031111-66.939259 78.127408-67.887407a118.708148 118.708148 0 0 0 12.325926-1.137778A276.66963 276.66963 0 0 1 606.814815 324.456296c-376.794074-89.884444-577.991111 20.859259-581.214815 22.186667a18.962963 18.962963 0 0 0-10.998519 10.24 18.962963 18.962963 0 0 0 0 14.791111 18.962963 18.962963 0 0 0 18.962963 12.705185zM553.718519 709.594074a79.454815 79.454815 0 0 0-29.771852-6.447407c-52.906667-1.517037-5.12-53.096296-77.558519-68.456297s-47.217778-30.72-112.829629 3.413334c-41.528889 21.617778-26.927407-27.306667-100.882963 10.429629s-93.297778 10.619259-107.52 50.062223a63.715556 63.715556 0 0 1-25.410371 36.029629C26.358519 718.506667 41.14963 720.592593 40.011852 720.592593a18.962963 18.962963 0 0 0-25.220741 11.188148 18.962963 18.962963 0 0 0 0 14.791111 18.962963 18.962963 0 0 0 10.808889 10.24c3.792593 1.706667 212.195556 118.328889 604.728889 20.669629a272.308148 272.308148 0 0 1-76.61037-67.887407zM67.318519 521.291852a26.548148 26.548148 0 1 0-26.548149 26.548148 26.548148 26.548148 0 0 0 26.548149-26.548148zM113.777778 577.611852a23.324444 23.324444 0 1 0 23.324444-23.134815A23.324444 23.324444 0 0 0 113.777778 577.611852z" fill="#5E74FE" p-id="5772"></path><path d="M223.004444 504.794074m-29.771851 0a29.771852 29.771852 0 1 0 59.543703 0 29.771852 29.771852 0 1 0-59.543703 0Z" fill="#5E74FE" p-id="5773"></path><path d="M273.825185 537.979259a16.687407 16.687407 0 1 0 16.687408-16.687407 16.687407 16.687407 0 0 0-16.687408 16.687407z" fill="#5E74FE" p-id="5774"></path><path d="M363.33037 590.885926m-9.86074 0a9.860741 9.860741 0 1 0 19.721481 0 9.860741 9.860741 0 1 0-19.721481 0Z" fill="#5E74FE" p-id="5775"></path><path d="M419.65037 514.654815m-19.911111 0a19.911111 19.911111 0 1 0 39.822222 0 19.911111 19.911111 0 1 0-39.822222 0Z" fill="#5E74FE" p-id="5776"></path><path d="M63.905185 637.345185m-29.771852 0a29.771852 29.771852 0 1 0 59.543704 0 29.771852 29.771852 0 1 0-59.543704 0Z" fill="#5E74FE" p-id="5777"></path><path d="M799.668148 557.321481a10.05037 10.05037 0 0 1-4.740741 0 7.205926 7.205926 0 0 1-3.223703-1.517037 10.24 10.24 0 0 1-3.223704-4.171851 9.481481 9.481481 0 0 1 0-5.12 8.343704 8.343704 0 0 1 1.137778-3.034074 9.481481 9.481481 0 0 1 4.740741-3.792593 80.402963 80.402963 0 0 0 23.703703-88.367407l-11.946666-34.133334-151.703704 54.234074 11.946667 33.564445a80.782222 80.782222 0 0 0 74.714074 53.475555 7.016296 7.016296 0 0 1 3.982222 0 7.774815 7.774815 0 0 1 3.982222 1.896297 8.912593 8.912593 0 0 1 2.844444 3.982222 9.481481 9.481481 0 0 1 0 5.12 6.637037 6.637037 0 0 1-1.137777 2.654815v1.137777a80.782222 80.782222 0 0 0-27.306667 91.211852l12.325926 33.943704 16.497778-5.878519a7.774815 7.774815 0 0 1-9.102222-4.74074 7.964444 7.964444 0 0 1 4.74074-9.860741l119.087408-42.477037a7.585185 7.585185 0 0 1 9.671111 4.740741 7.585185 7.585185 0 0 1-3.792593 9.291851l14.411852-5.12-12.136296-34.133333a80.402963 80.402963 0 0 0-75.472593-52.906667z m-36.219259 5.49926L758.518519 549.925926c-28.823704-1.896296-63.525926-17.825185-73.765926-46.26963L796.444444 463.454815c9.860741 27.496296-6.637037 54.423704-21.238518 75.851852l-2.844445 3.982222 4.740741 13.463704a7.964444 7.964444 0 0 1-4.740741 9.86074 7.585185 7.585185 0 0 1-8.912592-3.792592z m20.100741 33.564444a7.585185 7.585185 0 0 1-9.860741-4.551111l-1.327408-3.982222a7.774815 7.774815 0 0 1 5.12-9.481482 7.395556 7.395556 0 0 1 9.671112 4.551111l1.327407 3.602963a7.585185 7.585185 0 0 1-4.93037 9.860741z" fill="#5E74FE" p-id="5778"></path><path d="M770.275556 313.078519a230.58963 230.58963 0 1 0 230.589629 230.4 230.4 230.4 0 0 0-230.589629-230.4z m151.703703 335.834074l-212.764444 75.851851a7.395556 7.395556 0 0 1-9.671111-4.551111 7.585185 7.585185 0 0 1 4.551111-9.86074l21.238518-7.585186-12.136296-34.133333a92.539259 92.539259 0 0 1 22.565926-96.711111v-1.137778a1.327407 1.327407 0 0 1 0-0.948148 92.16 92.16 0 0 1-78.696296-60.491852l-11.946667-33.754074-21.238519 7.585185a7.585185 7.585185 0 0 1-5.309629-14.411852l212.764444-75.851851a7.585185 7.585185 0 0 1 9.860741 4.551111 7.964444 7.964444 0 0 1-4.740741 9.86074l-18.962963 6.447408 11.946667 33.564444a91.780741 91.780741 0 0 1-23.134815 97.46963 91.780741 91.780741 0 0 1 79.644445 60.681481l12.136296 34.133334 18.962963-6.447408a7.585185 7.585185 0 0 1 9.860741 4.551111 7.964444 7.964444 0 0 1-5.688889 11.188149z" fill="#5E74FE" p-id="5779"></path></svg>