<?xml version="1.0" standalone="no"?><!DOCTYPE svg PUBLIC "-//W3C//DTD SVG 1.1//EN" "http://www.w3.org/Graphics/SVG/1.1/DTD/svg11.dtd"><svg t="1661316327265" class="icon" viewBox="0 0 1024 1024" version="1.1" xmlns="http://www.w3.org/2000/svg" p-id="6048" xmlns:xlink="http://www.w3.org/1999/xlink" width="200" height="200"><defs><style type="text/css">@font-face { font-family: feedback-iconfont; src: url("//at.alicdn.com/t/font_1031158_u69w8yhxdu.woff2?t=1630033759944") format("woff2"), url("//at.alicdn.com/t/font_1031158_u69w8yhxdu.woff?t=1630033759944") format("woff"), url("//at.alicdn.com/t/font_1031158_u69w8yhxdu.ttf?t=1630033759944") format("truetype"); }
</style></defs><path d="M647.395556 671.478519a14.411852 14.411852 0 0 1 14.411851-14.411852h15.170371A205.558519 205.558519 0 0 1 791.893333 587.851852V207.075556a23.134815 23.134815 0 0 0-22.945185-23.134815H644.740741a215.798519 215.798519 0 0 1 30.909629 88.936296h51.2A14.411852 14.411852 0 0 1 739.555556 284.444444a11.946667 11.946667 0 0 1 0 3.602963v84.764445a11.946667 11.946667 0 0 1 0 3.602963 14.601481 14.601481 0 0 1-13.842963 10.808889H661.807407a10.998519 10.998519 0 0 1-3.413333 0 219.780741 219.780741 0 0 1-31.478518 51.579259 225.28 225.28 0 0 1-44.183704 40.77037v86.091852a14.791111 14.791111 0 0 1-2.844445 8.533334 14.222222 14.222222 0 0 1-11.567407 5.878518H504.414815a14.601481 14.601481 0 0 1-14.601482-14.411852v-49.303704a221.487407 221.487407 0 0 1-32.047407 2.654815 223.952593 223.952593 0 0 1-32.237037-2.654815v49.303704a14.601481 14.601481 0 0 1-14.411852 14.411852h-64.284444a14.601481 14.601481 0 0 1-14.411852-14.411852v-86.281481-1.517037a219.591111 219.591111 0 0 1-75.851852-92.34963 10.998519 10.998519 0 0 1-3.413333 0H189.62963a14.601481 14.601481 0 0 1-14.032593-10.808889 11.946667 11.946667 0 0 1 0-3.602963v-84.005926a11.946667 11.946667 0 0 1 0-3.602963 14.411852 14.411852 0 0 1 14.032593-10.619259h51.01037a214.281481 214.281481 0 0 1 8.533333-40.011852 224.331852 224.331852 0 0 1 22.186667-48.924444H146.394074a23.134815 23.134815 0 0 0-22.945185 23.134815v640.379259a23.134815 23.134815 0 0 1-23.134815 23.134815H75.851852a23.134815 23.134815 0 0 0-22.945185 23.134814v29.771852A23.134815 23.134815 0 0 0 75.851852 946.631111h639.431111a199.111111 199.111111 0 0 1-84.574815-162.512592 195.508148 195.508148 0 0 1 16.687408-79.454815z m0-192.094815a14.601481 14.601481 0 0 1 11.377777-14.222223H726.091852a14.601481 14.601481 0 0 1 13.842963 10.808889 12.136296 12.136296 0 0 1 0 3.792593v84.574815a11.946667 11.946667 0 0 1 0 3.602963 14.411852 14.411852 0 0 1-13.842963 10.808889H658.773333a14.601481 14.601481 0 0 1-11.377777-14.032593z m-472.557037 0a12.136296 12.136296 0 0 1 0-3.792593 14.601481 14.601481 0 0 1 14.032592-10.808889h67.128889a14.601481 14.601481 0 0 1 11.377778 14.222222v84.574815a14.601481 14.601481 0 0 1-11.377778 14.032593H189.62963a14.411852 14.411852 0 0 1-14.032593-10.808889 11.946667 11.946667 0 0 1 0-3.602963z m93.108148 276.48a14.601481 14.601481 0 0 1-14.411852 14.601481H189.62963a14.791111 14.791111 0 0 1-14.601482-14.601481v-84.385185a14.601481 14.601481 0 0 1 14.601482-14.411852h64.094814a14.411852 14.411852 0 0 1 14.411852 14.411852z m157.582222 0a14.601481 14.601481 0 0 1-14.411852 14.601481h-64.284444a14.601481 14.601481 0 0 1-14.411852-14.601481v-84.385185a13.463704 13.463704 0 0 1 3.034074-8.722963 13.842963 13.842963 0 0 1 11.377778-5.688889h64.284444a14.601481 14.601481 0 0 1 14.411852 14.411852z m157.392592 0a14.601481 14.601481 0 0 1-14.411851 14.601481H504.414815a14.791111 14.791111 0 0 1-14.601482-14.601481v-84.385185a14.601481 14.601481 0 0 1 14.601482-14.411852H568.888889a14.601481 14.601481 0 0 1 11.567407 5.688889 15.36 15.36 0 0 1 2.844445 8.722963z" fill="#5E74FE" p-id="6049"></path><path d="M331.093333 229.072593h45.511111c30.72 0 54.234074 10.808889 54.234075 43.425185s-23.703704 45.89037-53.475556 45.89037h-18.962963v49.303704h-27.306667z m44.373334 67.508148c18.962963 0 28.254815-8.154074 28.254814-24.082963s-10.05037-21.428148-29.202962-21.428148h-15.73926v45.511111zM437.854815 299.045926c0-45.700741 29.392593-72.628148 64.474074-72.628148a56.888889 56.888889 0 0 1 40.580741 17.825185l-14.601482 17.635556a36.219259 36.219259 0 0 0-25.41037-11.567408c-21.048889 0-36.788148 18.962963-36.788148 47.786667s14.222222 48.355556 36.219259 48.355555a37.925926 37.925926 0 0 0 28.634074-13.842963l14.601481 17.256297a56.888889 56.888889 0 0 1-44.183703 20.48c-35.081481 0-63.525926-25.031111-63.525926-71.300741zM556.562963 229.072593h27.685926v138.619259h-27.685926z" fill="#5E74FE" p-id="6050"></path><path d="M457.765926 108.088889a189.62963 189.62963 0 1 0 189.62963 189.62963 189.62963 189.62963 0 0 0-189.62963-189.62963z m-165.167407 189.62963a164.219259 164.219259 0 0 1 41.718518-108.088889l227.555556 237.985185a164.977778 164.977778 0 0 1-268.705186-128.379259z m289.754074 107.899259L355.745185 168.77037a164.977778 164.977778 0 0 1 227.555556 237.605926zM1000.675556 777.481481a163.84 163.84 0 0 0-159.09926-156.065185h-12.705185a162.512593 162.512593 0 1 0 171.804445 168.770371V777.481481z m-54.423704-58.405925A15.36 15.36 0 0 1 948.148148 739.555556l-1.706667 2.085925L834.37037 853.333333a15.54963 15.54963 0 0 1-18.962963 1.706667l-3.413333-1.706667L739.555556 780.325926a15.17037 15.17037 0 0 1-1.706667-18.962963L739.555556 758.518519l9.481481-9.481482a15.54963 15.54963 0 0 1 18.962963-1.896296l2.085926 1.896296 53.096296 53.096296 92.34963-92.349629a15.54963 15.54963 0 0 1 17.256296-3.223704l2.275556 1.327407 2.085926 1.896297z" fill="#5E74FE" p-id="6051"></path></svg>