<?xml version="1.0" standalone="no"?><!DOCTYPE svg PUBLIC "-//W3C//DTD SVG 1.1//EN" "http://www.w3.org/Graphics/SVG/1.1/DTD/svg11.dtd"><svg t="1659430518939" class="icon" viewBox="0 0 1024 1024" version="1.1" xmlns="http://www.w3.org/2000/svg" p-id="5798" xmlns:xlink="http://www.w3.org/1999/xlink" width="200" height="200"><defs><style type="text/css">@font-face { font-family: feedback-iconfont; src: url("//at.alicdn.com/t/font_1031158_u69w8yhxdu.woff2?t=1630033759944") format("woff2"), url("//at.alicdn.com/t/font_1031158_u69w8yhxdu.woff?t=1630033759944") format("woff"), url("//at.alicdn.com/t/font_1031158_u69w8yhxdu.ttf?t=1630033759944") format("truetype"); }
</style></defs><path d="M816.593455 148.945455H94.580364a45.986909 45.986909 0 0 0-45.986909 45.986909v536.203636a46.173091 46.173091 0 0 0 45.986909 45.986909h336.616727v55.854546H184.133818a20.48 20.48 0 0 0 0 40.773818h533.224727a198.842182 198.842182 0 0 1-49.896727-40.773818H479.976727v-55.854546H633.018182a198.656 198.656 0 0 1 1.489454-152.669091 13.777455 13.777455 0 0 1-7.819636-11.543273c-1.675636-15.825455-3.537455-31.464727-5.399273-47.104 0-7.447273-18.618182-160.861091-18.618182-160.86109l-18.618181 109.847272a14.708364 14.708364 0 0 1-14.336 12.288H539.927273a13.777455 13.777455 0 0 1-15.266909-11.729454l-3.351273-10.984728-6.144 14.149819a14.708364 14.708364 0 0 1-14.708364 8.936727h-67.956363a13.218909 13.218909 0 0 1-13.591273-8.750546l-2.234182-5.21309-7.633454-18.618182c0 1.489455-1.489455 3.537455-3.165091 6.888727s-2.606545 5.771636-3.909819 8.564364l-2.048 4.468363a7.819636 7.819636 0 0 0 0 1.861818 23.831273 23.831273 0 0 1-5.771636 8.936728 13.963636 13.963636 0 0 1-8.750545 2.606545h-24.762182c-10.426182 30.906182-19.549091 57.902545-29.975273 89.181091a11.915636 11.915636 0 0 1-11.357091 8.750546 13.218909 13.218909 0 0 1-12.474182-12.660364c-1.675636-15.825455-3.537455-31.464727-5.399272-47.104 0-7.447273-18.618182-160.861091-18.618182-160.861091l-18.618182 109.847273a14.708364 14.708364 0 0 1-14.336 12.288h-30.533818a13.963636 13.963636 0 0 1-15.266909-11.729455l-2.792728-10.984727-6.144 14.149818a14.522182 14.522182 0 0 1-14.708363 8.936727H116.363636c-7.261091 0-12.474182-7.074909-12.474181-16.384s5.213091-16.570182 12.474181-16.570181h59.578182l16.942546-38.353455A12.474182 12.474182 0 0 1 204.8 446.836364a14.149818 14.149818 0 0 1 12.660364 12.101818c2.048 7.819636 3.351273 13.591273 4.840727 18.618182s2.420364 9.681455 4.096 15.639272H242.036364l31.278545-183.947636a13.777455 13.777455 0 0 1 12.846546-12.288 12.660364 12.660364 0 0 1 12.101818 12.660364c1.675636 15.825455 3.537455 31.650909 5.399272 47.476363 0 7.447273 18.618182 167.563636 18.618182 167.563637l2.792728 24.389818c1.675636-4.840727 2.978909-8.936727 4.468363-13.032727 2.792727-8.564364 5.771636-17.128727 10.984727-32.954182a12.846545 12.846545 0 0 1 11.543273-9.122909h26.810182c3.351273-7.074909 6.144-13.405091 9.122909-19.549091l10.426182-22.714182a13.032727 13.032727 0 0 1 11.543273-8.378182 12.101818 12.101818 0 0 1 10.984727 8.564364l16.942545 41.518545h57.902546l16.942545-38.353454a12.474182 12.474182 0 0 1 10.984728-8.564364 14.149818 14.149818 0 0 1 12.660363 12.101818c2.048 7.819636 3.351273 13.591273 4.840727 18.618182s2.420364 9.681455 4.096 15.639273h15.639273l31.278546-183.947637a13.591273 13.591273 0 0 1 12.846545-12.288 12.660364 12.660364 0 0 1 12.101818 12.660364c1.675636 15.825455 3.537455 31.650909 5.399273 47.476364 0 7.447273 18.618182 167.563636 18.618182 167.563636l2.792727 24.389818c1.675636-4.840727 2.978909-8.936727 4.468364-13.032727 2.792727-8.564364 5.771636-17.128727 10.984727-32.954182a12.846545 12.846545 0 0 1 11.543273-9.122909h26.810182c3.351273-7.074909 6.144-13.405091 8.936727-19.549091s6.702545-14.149818 10.612363-22.714182a13.032727 13.032727 0 0 1 11.543273-8.378182 12.288 12.288 0 0 1 10.984727 8.564364l17.128728 42.077091h15.639272a11.543273 11.543273 0 0 1 10.053819 6.144 18.618182 18.618182 0 0 1 2.234181 6.516364 179.851636 179.851636 0 0 1 30.161455-2.420364 194.932364 194.932364 0 0 1 46.917818 5.585455v-316.509091A45.800727 45.800727 0 0 0 816.593455 148.945455z m-87.877819 345.367272l-3.165091 6.888728c-1.117091 2.792727-2.606545 5.771636-3.909818 8.564363l-2.048 4.468364v1.861818a23.831273 23.831273 0 0 1-5.771636 8.936727 13.963636 13.963636 0 0 1-8.750546 2.606546h-24.762181c-5.771636 16.942545-11.170909 32.768-16.384 48.779636a198.842182 198.842182 0 0 1 75.403636-55.854545 18.618182 18.618182 0 0 1 0-1.861819l-2.048-5.21309z" fill="#5E74FE" p-id="5799"></path><path d="M815.662545 531.549091A171.101091 171.101091 0 1 0 986.763636 702.650182a170.914909 170.914909 0 0 0-171.101091-171.101091z m100.910546 211.502545a16.384 16.384 0 0 1-11.729455 4.840728h-138.705454l8.378182 8.564363a16.384 16.384 0 0 1 0 23.272728 16.570182 16.570182 0 0 1-23.272728 0l-37.236363-37.236364a11.729455 11.729455 0 0 1-2.048-2.234182V736.349091a1.675636 1.675636 0 0 1 0-0.930909v-1.489455a2.048 2.048 0 0 1 0-1.489454 2.606545 2.606545 0 0 1 0-1.675637 6.330182 6.330182 0 0 1 0-1.861818V726.109091a16.756364 16.756364 0 0 1 8.750545-8.750546h184.133818a16.570182 16.570182 0 0 1 11.729455 28.113455z m4.654545-69.073454a2.606545 2.606545 0 0 1 0 1.675636 6.330182 6.330182 0 0 1 0 1.861818V680.308364A16.756364 16.756364 0 0 1 912.290909 688.872727H726.109091a16.570182 16.570182 0 1 1 0-32.954182h138.705454l-8.378181-6.702545a16.384 16.384 0 0 1 23.272727-23.272727l37.236364 37.236363v0.930909a5.026909 5.026909 0 0 1 1.303272 1.489455V669.696a8.005818 8.005818 0 0 1 0 0.930909v1.303273a2.606545 2.606545 0 0 1 2.978909 2.048z" fill="#5E74FE" p-id="5800"></path></svg>