<?xml version="1.0" standalone="no"?><!DOCTYPE svg PUBLIC "-//W3C//DTD SVG 1.1//EN" "http://www.w3.org/Graphics/SVG/1.1/DTD/svg11.dtd"><svg t="1661316321529" class="icon" viewBox="0 0 1024 1024" version="1.1" xmlns="http://www.w3.org/2000/svg" p-id="5913" xmlns:xlink="http://www.w3.org/1999/xlink" width="200" height="200"><defs><style type="text/css">@font-face { font-family: feedback-iconfont; src: url("//at.alicdn.com/t/font_1031158_u69w8yhxdu.woff2?t=1630033759944") format("woff2"), url("//at.alicdn.com/t/font_1031158_u69w8yhxdu.woff?t=1630033759944") format("woff"), url("//at.alicdn.com/t/font_1031158_u69w8yhxdu.ttf?t=1630033759944") format("truetype"); }
</style></defs><path d="M884.622222 188.491852H155.875556a46.26963 46.26963 0 0 0-46.26963 46.269629V777.481481a46.459259 46.459259 0 0 0 46.26963 46.45926h339.816296v56.888889H246.518519a20.66963 20.66963 0 1 0 0 41.149629h548.029629a20.66963 20.66963 0 0 0 0-41.149629H544.995556v-56.888889h339.626666A46.459259 46.459259 0 0 0 931.081481 777.481481V234.761481a46.459259 46.459259 0 0 0-46.459259-46.269629z m5.12 388.551111a12.136296 12.136296 0 0 1-10.619259 6.447407h-23.514074a14.411852 14.411852 0 0 1-14.791111-9.671111l-2.275556-5.688889-8.533333-20.859259-3.223704 7.395556c-1.517037 3.223704-2.844444 6.447407-4.361481 9.481481l-2.275556 4.740741a11.567407 11.567407 0 0 1 0 2.275555 22.755556 22.755556 0 0 1-6.068148 9.481482 14.601481 14.601481 0 0 1-9.671111 3.034074H777.481481l-32.616296 97.46963a13.274074 13.274074 0 0 1-12.515555 9.481481 14.601481 14.601481 0 0 1-13.653334-13.653333c-1.706667-17.256296-3.792593-34.512593-5.688889-51.579259l-20.48-175.597038c0 3.034074-20.29037 120.035556-20.29037 120.035556a15.739259 15.739259 0 0 1-15.739259 13.274074h-33.374815a14.980741 14.980741 0 0 1-16.687407-12.705185l-3.034075-11.946667-6.826666 15.36a15.739259 15.739259 0 0 1-15.928889 9.860741h-73.765926a14.222222 14.222222 0 0 1-14.791111-9.671111l-2.465185-5.688889s-7.016296-17.256296-8.343704-20.859259c0 1.706667-1.706667 3.982222-3.413333 7.395555s-2.844444 6.447407-4.361482 9.481482l-2.085926 4.740741a11.567407 11.567407 0 0 0-0.948148 2.275555 23.134815 23.134815 0 0 1-6.257778 9.481482 14.411852 14.411852 0 0 1-9.481481 3.034074h-26.358519l-32.616296 97.469629a12.894815 12.894815 0 0 1-12.325926 9.481482 14.222222 14.222222 0 0 1-13.653333-13.653334c-1.896296-17.256296-3.792593-34.512593-5.878519-51.579259l-20.48-175.597037c0 3.034074-20.29037 120.035556-20.29037 120.035556a15.739259 15.739259 0 0 1-15.54963 13.274074h-33.374815a15.17037 15.17037 0 0 1-16.687407-12.705185l-3.034074-11.946667-6.826667 15.36a15.36 15.36 0 0 1-15.739259 9.860741H161.943704c-7.964444 0-13.653333-7.395556-13.653334-17.825186s5.688889-17.825185 13.653334-17.825185H227.555556l18.962963-42.097778a13.463704 13.463704 0 0 1 12.136296-9.291851 15.54963 15.54963 0 0 1 13.653333 13.274074c2.085926 8.533333 3.792593 14.791111 5.30963 21.048889l4.361481 17.256296h17.256297l33.943703-200.817778a15.17037 15.17037 0 0 1 14.222222-13.463704 13.842963 13.842963 0 0 1 13.084445 13.842963c1.896296 17.256296 3.792593 34.512593 5.878518 51.768889l21.238519 182.613334s2.465185 23.134815 3.034074 26.548148c1.706667-5.30963 3.223704-9.860741 4.740741-14.222222 3.034074-9.291852 6.257778-18.962963 12.136296-36.21926a13.653333 13.653333 0 0 1 12.515556-9.671111h29.202963c3.602963-7.964444 6.826667-14.601481 9.86074-21.428148l11.377778-24.841481a14.791111 14.791111 0 0 1 12.705185-9.102223 13.842963 13.842963 0 0 1 12.136297 9.291852l18.962963 45.511111h63.146666l18.962963-42.097778a13.653333 13.653333 0 0 1 12.136296-9.291851 15.17037 15.17037 0 0 1 13.653334 13.274074c2.275556 8.533333 3.792593 14.791111 5.499259 21.048889l4.361482 17.256296h17.066666l34.133334-200.817778a15.17037 15.17037 0 0 1 14.032592-13.463704 13.653333 13.653333 0 0 1 13.084445 13.842963c1.896296 17.256296 3.982222 34.512593 5.878518 51.768889l21.238519 182.613334 3.034074 26.548148c1.896296-5.30963 3.223704-9.860741 4.74074-14.222222 3.223704-9.291852 6.447407-18.962963 12.136297-36.21926a14.032593 14.032593 0 0 1 12.515555-9.671111H796.444444l9.860741-21.428148 11.377778-24.841481a14.222222 14.222222 0 0 1 12.515556-9.102223 13.463704 13.463704 0 0 1 12.136296 9.291852l18.962963 46.08h17.066666a12.705185 12.705185 0 0 1 10.808889 6.637037 23.134815 23.134815 0 0 1 0.568889 21.617778z" fill="#5E74FE" p-id="5914"></path></svg>