<?xml version="1.0" standalone="no"?><!DOCTYPE svg PUBLIC "-//W3C//DTD SVG 1.1//EN" "http://www.w3.org/Graphics/SVG/1.1/DTD/svg11.dtd"><svg t="1659430552439" class="icon" viewBox="0 0 1024 1024" version="1.1" xmlns="http://www.w3.org/2000/svg" p-id="6622" xmlns:xlink="http://www.w3.org/1999/xlink" width="200" height="200"><defs><style type="text/css">@font-face { font-family: feedback-iconfont; src: url("//at.alicdn.com/t/font_1031158_u69w8yhxdu.woff2?t=1630033759944") format("woff2"), url("//at.alicdn.com/t/font_1031158_u69w8yhxdu.woff?t=1630033759944") format("woff"), url("//at.alicdn.com/t/font_1031158_u69w8yhxdu.ttf?t=1630033759944") format("truetype"); }
</style></defs><path d="M365.985185 297.528889c-5.12-18.962963-9.860741-40.77037-14.791111-59.733333h-0.948148c-4.551111 18.962963-9.481481 41.14963-14.222222 59.733333l-3.982223 15.739259h37.925926z" fill="#5E74FE" p-id="6623"></path><path d="M797.582222 636.207407a201.007407 201.007407 0 0 1 96.142222 24.272593V111.502222a61.819259 61.819259 0 0 0-61.629629-61.629629H174.459259A61.819259 61.819259 0 0 0 113.777778 111.502222v780.894815a61.819259 61.819259 0 0 0 60.681481 61.62963h461.748148a196.835556 196.835556 0 0 1-39.632592-118.708148 200.248889 200.248889 0 0 1 201.007407-199.111112z m-130.275555-318.008888l-23.703704-10.050371a54.613333 54.613333 0 0 1-37.925926-50.820741c0-31.288889 28.065185-56.888889 67.508148-56.888888a85.712593 85.712593 0 0 1 60.302222 24.462222l-22.186666 27.875555a59.733333 59.733333 0 0 0-37.925926-14.222222c-13.842963 0-22.186667 5.499259-22.186667 15.54963s11.757037 14.222222 28.065185 20.669629l23.324445 9.291852A51.01037 51.01037 0 0 1 739.555556 335.644444c0 30.90963-25.979259 58.216296-70.921482 58.216297a104.106667 104.106667 0 0 1-69.214815-26.737778l25.220741-30.72a74.714074 74.714074 0 0 0 45.131852 18.962963c16.497778 0 24.082963-6.257778 24.082963-16.308148s-11.188148-14.222222-26.548148-20.859259z m-134.637037-117.001482a79.265185 79.265185 0 0 1 56.888889 24.082963l-23.514075 28.444444a46.26963 46.26963 0 0 0-32.047407-14.411851c-24.082963 0-43.804444 21.428148-43.804444 56.888888s17.066667 58.405926 43.235555 58.405926a48.355556 48.355556 0 0 0 35.460741-17.066666l23.324444 28.065185A76.98963 76.98963 0 0 1 530.962963 393.860741c-47.217778 0-87.22963-32.426667-87.22963-94.814815s41.718519-97.848889 88.936297-97.848889z m-207.644445 3.413333H379.259259l56.888889 185.647408h-47.028148L379.259259 347.591111h-55.751111l-10.808889 42.666667H267.377778z m-99.555555 297.33926h555.614814a25.220741 25.220741 0 1 1 0 50.251851h-555.614814a25.220741 25.220741 0 1 1 0-50.251851z m265.481481 335.454814h-265.481481a25.220741 25.220741 0 1 1 0-50.251851h265.481481a25.220741 25.220741 0 0 1 0 50.251851z m79.454815-142.601481H225.46963a25.220741 25.220741 0 1 1 0-50.251852h344.367407a25.220741 25.220741 0 1 1 0 50.251852zM884.053333 863.194074h31.288889V853.333333h-30.909629c0 3.413333-0.18963 6.637037-0.37926 9.860741zM884.432593 835.697778h30.72v9.291852h-30.72z" fill="#5E74FE" p-id="6624"></path><path d="M793.031111 667.685926a167.632593 167.632593 0 1 0 169.14963 167.632593 168.580741 168.580741 0 0 0-169.14963-167.632593z m-35.65037 227.555555h-79.644445v-21.617777h28.444445v-83.626667H682.666667v-16.308148a85.522963 85.522963 0 0 0 30.72-10.998519h18.962963v110.933334h24.841481z m96.711111 0h-88.746667v-15.17037c36.02963-32.237037 56.888889-56.888889 56.888889-77.368889a18.962963 18.962963 0 0 0-19.911111-21.428148 34.133333 34.133333 0 0 0-24.272593 13.653333l-14.222222-14.411851a53.285926 53.285926 0 0 1 41.908148-18.962963 37.925926 37.925926 0 0 1 41.528889 40.77037c0 23.893333-18.962963 49.682963-43.804444 73.197037a214.660741 214.660741 0 0 1 21.807407-3.223704H853.333333z m65.991111-1.896296a48.545185 48.545185 0 0 1-16.877037 1.706667 44.942222 44.942222 0 0 0-3.792593-9.481482h13.463704c1.706667 0 2.465185 0 2.465185-2.275555V872.296296h-32.805926a40.77037 40.77037 0 0 1-13.084444 22.945185 37.925926 37.925926 0 0 0-7.016296-6.637037 44.562963 44.562963 0 0 0 12.705185-36.029629v-25.6h49.872592v56.888889c0 4.93037-1.327407 7.395556-4.93037 9.102222z" fill="#5E74FE" p-id="6625"></path></svg>