<?xml version="1.0" standalone="no"?><!DOCTYPE svg PUBLIC "-//W3C//DTD SVG 1.1//EN" "http://www.w3.org/Graphics/SVG/1.1/DTD/svg11.dtd"><svg t="1659430596458" class="icon" viewBox="0 0 1024 1024" version="1.1" xmlns="http://www.w3.org/2000/svg" p-id="7714" xmlns:xlink="http://www.w3.org/1999/xlink" width="200" height="200"><defs><style type="text/css">@font-face { font-family: feedback-iconfont; src: url("//at.alicdn.com/t/font_1031158_u69w8yhxdu.woff2?t=1630033759944") format("woff2"), url("//at.alicdn.com/t/font_1031158_u69w8yhxdu.woff?t=1630033759944") format("woff"), url("//at.alicdn.com/t/font_1031158_u69w8yhxdu.ttf?t=1630033759944") format("truetype"); }
</style></defs><path d="M581.073455 335.127273a34.816 34.816 0 0 0-6.144 18.618182 142.056727 142.056727 0 0 0 10.426181 32.395636 189.905455 189.905455 0 0 1 33.885091-41.704727l3.351273-2.606546a240.919273 240.919273 0 0 0-37.236364-9.681454 13.218909 13.218909 0 0 0-4.282181 2.978909zM685.707636 383.534545A133.678545 133.678545 0 0 0 651.636364 433.058909v1.861818a46.917818 46.917818 0 0 0-1.303273 13.777455l1.675636 9.309091v2.792727c50.082909 5.399273 52.689455-23.458909 52.689455-30.906182V428.218182a39.656727 39.656727 0 0 0-1.489455-10.24 138.146909 138.146909 0 0 0-14.336-28.485818 52.130909 52.130909 0 0 0-3.165091-5.957819z" fill="#5E74FE" p-id="7715"></path><path d="M498.222545 372.363636a151.179636 151.179636 0 0 0 13.21891 61.067637 93.090909 93.090909 0 0 1 10.053818 0h1.117091a78.568727 78.568727 0 0 1 10.984727 1.117091h5.026909l3.351273 0.930909h3.537454a14.522182 14.522182 0 0 0 11.543273 0 13.963636 13.963636 0 0 0 5.585455-4.840728c4.654545-7.633455 11.729455-22.341818 18.618181-35.746909 0-0.930909-2.420364-10.24-2.792727-11.357091v-1.675636a101.841455 101.841455 0 0 1-9.495273-35.374545 34.257455 34.257455 0 0 1 5.957819-18.618182 8.750545 8.750545 0 0 1 8.192-4.096 441.623273 441.623273 0 0 1 45.986909 11.543273l2.420363-1.861819c4.654545-2.978909 9.309091-5.957818 14.149818-8.564363l2.97891-1.489455 2.420363-1.303273a85.085091 85.085091 0 0 0-59.578182-70.74909c-43.752727-11.357091-91.973818 25.320727-93.090909 60.50909v56.785455zM929.605818 326.749091a236.078545 236.078545 0 0 1 7.819637 31.278545 17.128727 17.128727 0 0 1-9.681455 6.516364c-10.426182 3.351273-3.537455 8.564364-13.963636 27.741091s5.213091 18.618182-3.351273 37.236364-5.213091 10.426182-1.861818 29.602909 17.501091 6.888727 17.501091 20.852363a18.618182 18.618182 0 0 0 10.612363 17.501091c-1.861818 8.378182-3.909818 16.942545-6.516363 25.506909a5.213091 5.213091 0 0 0 3.351272 6.330182 5.585455 5.585455 0 0 0 3.909819 0 6.144 6.144 0 0 0 2.606545-3.165091 360.448 360.448 0 0 0 0-201.821091 5.957818 5.957818 0 0 0-2.606545-2.978909 5.585455 5.585455 0 0 0-3.909819 0 5.213091 5.213091 0 0 0-3.537454 4.840727 5.399273 5.399273 0 0 0-0.372364 0.558546zM840.052364 531.735273a5.213091 5.213091 0 0 0 3.537454-6.330182c-2.792727-9.122909-4.840727-18.618182-6.702545-26.810182a17.314909 17.314909 0 0 1 9.681454-6.516364c10.426182-3.351273 3.537455-8.564364 13.963637-27.74109s-5.213091-18.618182 3.537454-37.236364 5.213091-10.426182 1.675637-29.416727-17.501091-7.074909-17.501091-21.038546a18.618182 18.618182 0 0 0-11.543273-18.618182 214.481455 214.481455 0 0 1 7.447273-29.602909 5.585455 5.585455 0 0 0 0-3.909818 5.771636 5.771636 0 0 0-2.978909-2.606545 5.585455 5.585455 0 0 0-3.909819 0 4.654545 4.654545 0 0 0-2.606545 2.978909 338.664727 338.664727 0 0 0-14.894546 102.958545 346.670545 346.670545 0 0 0 14.149819 98.862546 5.771636 5.771636 0 0 0 2.420363 3.165091 5.771636 5.771636 0 0 0 3.723637 1.861818zM883.246545 324.887273h7.819637V526.894545h-7.819637z" fill="#5E74FE" p-id="7716"></path><path d="M887.156364 543.464727A118.225455 118.225455 0 1 1 1005.381818 425.239273a118.411636 118.411636 0 0 1-118.225454 118.225454z m0-229.934545a111.709091 111.709091 0 1 0 111.709091 111.709091 111.709091 111.709091 0 0 0-111.709091-111.709091zM697.250909 567.482182a24.203636 24.203636 0 0 1-10.984727 7.447273 32.395636 32.395636 0 0 1-9.867637 1.489454 45.986909 45.986909 0 0 1-8.192-0.930909v15.080727h34.629819c-1.861818-7.074909-3.723636-14.522182-5.585455-22.900363zM707.490909 524.101818a131.630545 131.630545 0 0 1 15.453091 14.149818V502.690909h-37.236364c2.048 3.165091 3.909818 6.144 5.771637 9.681455 5.957818 3.909818 11.357091 7.819636 16.011636 11.729454zM704.325818 528.756364l-7.447273-5.399273c0 1.675636 1.303273 3.165091 2.048 4.654545a101.282909 101.282909 0 0 1 6.888728 18.618182 13.777455 13.777455 0 0 0 0 2.234182 6.330182 6.330182 0 0 1 0 1.675636v4.282182c0 2.978909 0.930909 6.144 1.489454 9.122909 1.489455 8.378182 3.351273 16.570182 5.026909 24.203637h9.867637v-43.008l-0.930909-0.930909a123.997091 123.997091 0 0 0-16.942546-15.453091zM684.404364 569.344a18.618182 18.618182 0 0 0 10.798545-11.170909v-7.074909a85.829818 85.829818 0 0 0-6.516364-16.384A244.084364 244.084364 0 0 0 670.254545 502.690909h-2.048v67.770182h6.888728a28.672 28.672 0 0 0 9.309091-1.117091zM728.157091 494.312727l24.948364-20.666182-3.537455-5.585454a136.657455 136.657455 0 0 0-39.470545-38.912v1.303273c0 7.633455 0 39.842909-50.08291 37.236363l14.708364 18.618182 2.978909 3.909818 2.234182 2.978909h46.917818s1.117091 1.117091 1.303273 1.117091z" fill="#5E74FE" p-id="7717"></path><path d="M801.885091 612.165818a322.094545 322.094545 0 0 0-44.683636-131.444363L731.694545 502.690909v44.683636a16.011636 16.011636 0 0 0 2.420364 2.606546 94.766545 94.766545 0 0 0 9.309091 7.261091 39.098182 39.098182 0 0 1 9.495273 8.936727 26.065455 26.065455 0 0 1 3.537454 12.474182v1.489454h-2.978909v-1.489454a21.038545 21.038545 0 0 0-3.351273-10.612364 31.278545 31.278545 0 0 0-8.750545-7.633454 88.250182 88.250182 0 0 1-9.495273-6.888728V595.781818a4.282182 4.282182 0 0 1-4.282182 4.282182H726.109091a53.806545 53.806545 0 0 1 7.633454 7.074909 32.395636 32.395636 0 0 1 2.048 3.351273 18.618182 18.618182 0 0 0 1.675637 2.420363 18.618182 18.618182 0 0 0 4.282182 4.282182 13.218909 13.218909 0 0 0 7.633454 2.420364h3.351273a7.447273 7.447273 0 0 1 6.702545 3.723636 10.612364 10.612364 0 0 1 0.930909 7.074909 24.576 24.576 0 0 1-1.489454 6.144 25.320727 25.320727 0 0 1-1.675636 4.282182l1.303272 1.489455 2.606546 2.048a35.746909 35.746909 0 0 0 6.516363 2.978909h1.303273l-0.930909 3.165091h-1.489455a38.912 38.912 0 0 1-7.26109-2.978909l-3.537455-2.420364a8.750545 8.750545 0 0 1-2.978909-3.723636V638.603636a26.624 26.624 0 0 0 1.489454-4.096 26.065455 26.065455 0 0 0 1.117091-5.213091 6.702545 6.702545 0 0 0 0-4.096 2.792727 2.792727 0 0 0-2.420363-1.303272 19.921455 19.921455 0 0 1-4.654546 0 18.618182 18.618182 0 0 1-10.426182-2.978909 29.044364 29.044364 0 0 1-5.585454-5.213091l-2.048-3.165091a13.591273 13.591273 0 0 0-1.675636-2.420364 70.749091 70.749091 0 0 0-9.867637-8.564363l-2.792727-2.048v2.234181a37.236364 37.236364 0 0 0 1.303273 4.282182v2.792727a7.633455 7.633455 0 0 1 0 1.861819 20.852364 20.852364 0 0 1 0 11.729454 74.472727 74.472727 0 0 1-8.378182 18.618182l-1.861818 2.978909a147.269818 147.269818 0 0 0 18.618181 25.693091 62.929455 62.929455 0 0 0 12.474182 10.426182 26.810182 26.810182 0 0 0 14.522182 5.026909v2.420364h-1.489454a30.72 30.72 0 0 1-15.453091-4.654546 63.674182 63.674182 0 0 1-13.777455-10.612364 128.093091 128.093091 0 0 1-11.543273-12.660363c-2.606545-3.165091-5.026909-6.516364-7.447272-10.053818l-3.723637 6.702545V664.110545c0 2.048 0 4.096-1.489454 5.957819s0 2.234182 0 3.351272a87.877818 87.877818 0 0 0-2.606546 18.618182 58.461091 58.461091 0 0 0 0 11.915637q7.261091 3.909818 13.963637 6.702545a117.666909 117.666909 0 0 0 16.197818 5.771636 32.768 32.768 0 0 0 7.633454 1.117091 25.134545 25.134545 0 0 0 6.702546-1.489454h1.675636l8.192-2.792728 3.723637-1.675636s2.048-1.303273 2.048-1.861818V707.490909h3.351272v1.489455a5.957818 5.957818 0 0 1-2.978909 4.096l-4.096 2.234181-8.378182 3.165091h-1.861818a28.113455 28.113455 0 0 1-7.074909 1.675637h-1.675636a50.641455 50.641455 0 0 1-7.819637 0 124.369455 124.369455 0 0 1-17.128727-5.213091l-8.936727-3.537455a51.2 51.2 0 0 0 22.341818 21.597091h1.303273l-1.861818 3.723637h-1.303273l-2.978909-1.489455-5.585455-2.792727-4.096-2.792728-2.048-1.303272-1.861818-1.861818-3.537455-3.351273-3.16509-3.909818a8.192 8.192 0 0 1-1.489455-2.048l-2.606545 1.675636a26.065455 26.065455 0 0 1-6.702546 2.420364 63.115636 63.115636 0 0 1-13.777454 1.675636 102.027636 102.027636 0 0 1-13.405091 0c-4.282182 0-8.564364-1.117091-12.846546-1.861818h-1.303273v-3.351273h1.489455l12.846545 1.117091h12.846546a45.242182 45.242182 0 0 0 12.288-2.234182 27.554909 27.554909 0 0 0 5.399273-2.234182l2.048-1.489454v-1.117091a63.488 63.488 0 0 1-1.675637-37.050182 30.906182 30.906182 0 0 1-6.144 0h-2.420363a53.806545 53.806545 0 0 1-10.426182-1.117091 18.618182 18.618182 0 0 0-10.612364 4.468364l-5.399273 4.468363a15.825455 15.825455 0 0 1-7.633454 2.97891h-2.420364a57.716364 57.716364 0 0 1-12.288-1.675637 124.183273 124.183273 0 0 1-13.405091-4.282182h-1.489454l1.489454-3.537454h1.303273a106.309818 106.309818 0 0 0 13.218909 3.537454 42.449455 42.449455 0 0 0 10.053818 1.303273h2.978909a8.378182 8.378182 0 0 0 4.840728-2.048l5.399272-4.654545a39.284364 39.284364 0 0 1 6.330182-4.096 22.155636 22.155636 0 0 1 7.819637-2.048h11.915636a15.825455 15.825455 0 0 0 8.192-2.420364v-6.702545-2.420364l0.930909-2.606546v-2.420363c2.048-4.282182 4.096-8.005818 6.144-11.729455a47.290182 47.290182 0 0 0 2.978909-5.213091 59.205818 59.205818 0 0 0 6.888727-15.825454 11.170909 11.170909 0 0 0 0-6.516364 6.144 6.144 0 0 1 0-1.117091l-0.930909-2.792727 1.303273-3.723636c0-1.861818-0.930909-3.723636-1.489454-5.399273h-41.89091a4.282182 4.282182 0 0 1-4.282181-4.282182v-21.038545a99.607273 99.607273 0 0 1-12.288-3.723637h-2.234182l-6.516364-2.234182a11.729455 11.729455 0 0 0-3.537454 0 6.888727 6.888727 0 0 0-3.165091 1.489455h-1.117091l-2.606546-2.978909 1.303273-0.930909a9.681455 9.681455 0 0 1 5.213091-2.420364h1.489455a13.963636 13.963636 0 0 1 3.909818 0l6.888727 2.048h2.420364a107.054545 107.054545 0 0 0 10.798545 2.978909v-69.818182a4.096 4.096 0 0 1 4.096-4.096 64.791273 64.791273 0 0 0-5.399273-5.957818 57.716364 57.716364 0 0 1-10.798545-21.038545l-1.675636-1.675637a46.359273 46.359273 0 0 1-2.97891-32.023272 13.032727 13.032727 0 0 1 0-2.606546 138.891636 138.891636 0 0 1 37.236364-53.434182l1.675636-1.489454 2.792728-2.048a61.44 61.44 0 0 1 52.689454-6.330182 15.825455 15.825455 0 0 0 18.618182-8.192 33.885091 33.885091 0 0 0-6.888727-41.890909 16.942545 16.942545 0 0 0-8.564364-4.282182 136.657455 136.657455 0 0 0-86.388363 16.384l-2.97891 1.675637a161.047273 161.047273 0 0 0-14.149818 8.750545l-3.909818 2.606545a13.218909 13.218909 0 0 1-2.606545 1.861819l-6.702546 5.213091a196.421818 196.421818 0 0 0-35.188363 44.497454c-13.405091 21.969455-22.528 42.449455-25.320728 47.104a18.618182 18.618182 0 0 1-21.597091 4.654546h-3.723636l-3.537455-0.93091H529.501091a86.016 86.016 0 0 0-11.729455-1.11709h-0.186181a81.92 81.92 0 0 0-10.984728 0 41.146182 41.146182 0 0 1-6.702545-14.894546 134.795636 134.795636 0 0 1-10.798546-53.992727v-2.234182c-1.675636-30.533818 0-60.881455 0-60.881455a28.299636 28.299636 0 0 0-42.821818-9.867636 18.618182 18.618182 0 0 0-8.378182 17.314909 893.672727 893.672727 0 0 1-3.351272 111.709091A144.663273 144.663273 0 0 0 409.6 514.420364c15.639273 154.158545 80.430545 179.479273 143.36 199.959272s194.373818 35.188364 216.157091 10.984728 37.050182-41.146182 32.768-113.198546z" fill="#5E74FE" p-id="7718"></path><path d="M774.888727 459.310545l-15.639272-1.675636h-1.489455a4.654545 4.654545 0 0 0 0 1.303273v4.096a2.234182 2.234182 0 0 0 1.675636 2.234182h7.447273l-37.236364 30.533818a2.048 2.048 0 0 0 0 2.792727l2.606546 3.165091a2.048 2.048 0 0 0 2.792727 0l37.236364-30.533818v7.261091a1.675636 1.675636 0 0 0 1.675636 2.048h4.096a2.048 2.048 0 0 0 1.489455 0 1.675636 1.675636 0 0 0 0-1.303273l1.489454-15.639273a5.399273 5.399273 0 0 0-6.144-4.282182zM108.544 568.413091a100.538182 100.538182 0 1 0 100.538182 100.352 100.538182 100.538182 0 0 0-100.538182-100.352z m61.067636 72.052364L105.751273 707.490909a12.288 12.288 0 0 1-8.750546 3.909818 12.474182 12.474182 0 0 1-8.936727-3.909818l-35.002182-35.002182a12.474182 12.474182 0 0 1-3.537454-8.750545 10.984727 10.984727 0 0 1 3.537454-8.750546 12.474182 12.474182 0 0 1 17.501091 0l26.065455 25.879273 55.854545-57.530182a12.846545 12.846545 0 0 1 17.687273 0 11.729455 11.729455 0 0 1 3.723636 8.750546 12.288 12.288 0 0 1-4.282182 8.378182z" fill="#5E74FE" p-id="7719"></path><path d="M388.189091 513.489455a157.509818 157.509818 0 0 1 24.203636-93.09091 795.927273 795.927273 0 0 0 2.792728-102.586181 45.056 45.056 0 0 1 0-10.053819 126.603636 126.603636 0 0 0-245.573819 34.443637h-68.887272a74.472727 74.472727 0 0 0-74.472728 74.472727v158.254546a125.114182 125.114182 0 0 1 207.220364 94.208 123.066182 123.066182 0 0 1-18.618182 64.046545h277.783273a73.355636 73.355636 0 0 0 37.236364-9.867636C473.460364 703.767273 404.014545 670.254545 388.189091 513.489455z m-91.973818-260.654546a98.304 98.304 0 0 1 97.745454 90.298182H198.283636a98.117818 98.117818 0 0 1 97.931637-91.229091zM336.802909 484.072727a10.426182 10.426182 0 0 1-10.426182 10.426182H279.272727v47.290182a10.426182 10.426182 0 0 1-10.426182 10.426182h-32.581818a10.426182 10.426182 0 0 1-10.426182-10.426182v-46.545455H178.734545A10.426182 10.426182 0 0 1 167.563636 484.072727v-31.650909a10.426182 10.426182 0 0 1 10.612364-10.426182h47.104v-47.104a10.426182 10.426182 0 0 1 10.426182-10.612363h32.395636a10.426182 10.426182 0 0 1 10.426182 10.612363v47.104h47.290182a10.426182 10.426182 0 0 1 10.426182 10.426182z" fill="#5E74FE" p-id="7720"></path></svg>