<?xml version="1.0" standalone="no"?><!DOCTYPE svg PUBLIC "-//W3C//DTD SVG 1.1//EN" "http://www.w3.org/Graphics/SVG/1.1/DTD/svg11.dtd"><svg t="1659430601231" class="icon" viewBox="0 0 1024 1024" version="1.1" xmlns="http://www.w3.org/2000/svg" p-id="7854" xmlns:xlink="http://www.w3.org/1999/xlink" width="200" height="200"><defs><style type="text/css">@font-face { font-family: feedback-iconfont; src: url("//at.alicdn.com/t/font_1031158_u69w8yhxdu.woff2?t=1630033759944") format("woff2"), url("//at.alicdn.com/t/font_1031158_u69w8yhxdu.woff?t=1630033759944") format("woff"), url("//at.alicdn.com/t/font_1031158_u69w8yhxdu.ttf?t=1630033759944") format("truetype"); }
</style></defs><path d="M392.471273 512.930909a157.696 157.696 0 0 1 24.203636-93.090909 824.226909 824.226909 0 0 0 2.978909-102.4 36.119273 36.119273 0 0 1 0-10.053818 126.417455 126.417455 0 0 0-245.201454 34.629818h-68.887273a74.472727 74.472727 0 0 0-74.472727 74.472727v242.036364a74.472727 74.472727 0 0 0 74.472727 74.472727h390.981818a72.797091 72.797091 0 0 0 37.236364-9.867636c-56.226909-20.293818-125.486545-52.875636-141.312-210.199273z m-91.787637-260.654545a98.117818 98.117818 0 0 1 97.745455 90.112H202.938182a98.117818 98.117818 0 0 1 97.745454-90.484364z m45.428364 307.758545a14.149818 14.149818 0 0 1-14.149818 14.149818h-63.488v63.488a14.149818 14.149818 0 0 1-14.149818 14.149818h-43.566546a14.149818 14.149818 0 0 1-14.149818-14.149818v-63.860363H133.12a14.336 14.336 0 0 1-14.336-14.149819v-43.566545a14.336 14.336 0 0 1 14.336-13.405091h63.488v-64.232727a14.149818 14.149818 0 0 1 14.149818-14.149818h43.566546a14.149818 14.149818 0 0 1 14.149818 14.149818V502.690909h63.488a14.149818 14.149818 0 0 1 14.149818 14.149818zM585.728 333.265455a33.512727 33.512727 0 0 0-5.957818 18.618181 135.354182 135.354182 0 0 0 10.24 32.023273 186.181818 186.181818 0 0 1 33.512727-41.146182l3.165091-2.606545a214.853818 214.853818 0 0 0-37.236364-9.495273 8.750545 8.750545 0 0 0-3.723636 2.606546zM688.872727 381.858909a132.747636 132.747636 0 0 0-34.257454 48.965818 6.702545 6.702545 0 0 1 0 1.861818 53.434182 53.434182 0 0 0-1.303273 13.591273l1.675636 9.309091v2.792727c49.524364 5.399273 52.130909-23.272727 52.130909-30.533818v-1.675636a40.773818 40.773818 0 0 0-1.489454-10.24 144.663273 144.663273 0 0 0-13.218909-28.672 37.236364 37.236364 0 0 0-3.537455-5.399273z" fill="#5E74FE" p-id="7855"></path><path d="M503.808 369.943273a152.482909 152.482909 0 0 0 13.032727 60.509091 93.090909 93.090909 0 0 1 10.053818 0h1.117091a74.472727 74.472727 0 0 1 10.798546 0.930909h5.026909l3.165091 0.930909a5.957818 5.957818 0 0 1 1.675636 0h1.861818a14.522182 14.522182 0 0 0 11.543273 0 11.357091 11.357091 0 0 0 5.399273-4.840727c4.840727-7.447273 11.543273-21.969455 18.618182-35.188364 0-0.930909-2.234182-10.24-2.606546-11.170909v-1.861818a94.766545 94.766545 0 0 1-9.495273-34.816 34.816 34.816 0 0 1 5.957819-18.618182 8.564364 8.564364 0 0 1 8.005818-3.909818A465.454545 465.454545 0 0 1 633.018182 335.127273l2.606545-1.675637a133.492364 133.492364 0 0 1 13.963637-8.564363l2.792727-1.489455 2.420364-1.303273A84.154182 84.154182 0 0 0 595.781818 251.904c-43.008-11.170909-90.856727 24.948364-91.973818 59.950545v55.854546z" fill="#5E74FE" p-id="7856"></path><path d="M804.119273 607.883636A336.616727 336.616727 0 0 0 752.360727 465.454545a135.168 135.168 0 0 0-38.912-38.353454V428.218182c0 7.447273 0 39.470545-49.524363 37.236363l14.336 18.618182 2.978909 3.909818a31.092364 31.092364 0 0 1 2.234182 2.97891v1.11709c3.537455 5.399273 6.888727 11.170909 10.426181 17.687273s11.543273 7.819636 16.384 11.729455a151.924364 151.924364 0 0 1 18.618182 16.756363l1.303273 1.675637a60.509091 60.509091 0 0 0 6.516364 7.261091 85.085091 85.085091 0 0 0 9.122909 7.074909 33.140364 33.140364 0 0 1 9.495272 8.936727 25.320727 25.320727 0 0 1 3.537455 12.288v1.303273h-2.792727v-1.489455a21.038545 21.038545 0 0 0-3.351273-10.612363 32.581818 32.581818 0 0 0-8.564364-7.447273 76.520727 76.520727 0 0 1-10.053818-7.261091 91.787636 91.787636 0 0 1-7.261091-7.447273L726.109091 539.927273a146.525091 146.525091 0 0 0-18.618182-15.453091 86.016 86.016 0 0 0-7.447273-5.026909 47.662545 47.662545 0 0 1 2.048 4.468363 87.691636 87.691636 0 0 1 6.702546 18.618182 6.702545 6.702545 0 0 1 0 2.048v6.888727c0 2.978909 0.930909 5.957818 1.303273 8.936728 1.675636 8.378182 3.351273 16.570182 5.21309 24.017454l8.936728 6.702546a77.451636 77.451636 0 0 1 10.053818 9.309091 23.272727 23.272727 0 0 1 2.048 3.351272 18.618182 18.618182 0 0 0 1.675636 2.420364 18.618182 18.618182 0 0 0 4.096 4.282182 13.777455 13.777455 0 0 0 7.819637 2.234182h3.909818a7.819636 7.819636 0 0 1 6.702545 3.723636 11.915636 11.915636 0 0 1 0 7.074909 25.320727 25.320727 0 0 1-1.489454 5.957818 40.587636 40.587636 0 0 1-1.675637 4.282182l1.303273 1.489455 2.792727 2.048a28.858182 28.858182 0 0 0 6.330182 2.978909h1.303273l-0.930909 3.165091h-1.489455a45.056 45.056 0 0 1-7.261091-2.978909l-3.351272-2.420364a8.750545 8.750545 0 0 1-2.978909-3.723636V631.528727a32.023273 32.023273 0 0 0 1.303272-3.909818 18.618182 18.618182 0 0 0 1.303273-5.213091 8.378182 8.378182 0 0 0 0-4.096 2.606545 2.606545 0 0 0-2.420364-1.117091h-4.654545a17.128727 17.128727 0 0 1-10.24-2.978909 23.645091 23.645091 0 0 1-5.399273-5.213091 15.453091 15.453091 0 0 1-2.234182-2.978909 13.591273 13.591273 0 0 0-1.675636-2.420363 57.902545 57.902545 0 0 0-9.681455-8.378182l-0.186181 0.558545v2.048c0 1.489455 0.930909 2.978909 1.303272 4.282182l0.930909 2.792727a7.633455 7.633455 0 0 1 0 1.861818 20.852364 20.852364 0 0 1 0 11.729455 74.472727 74.472727 0 0 1-8.378181 18.618182l-1.675637 2.978909a134.423273 134.423273 0 0 0 18.618182 25.320727 57.157818 57.157818 0 0 0 12.288 10.426182 25.879273 25.879273 0 0 0 14.336 4.840727v2.420364h-1.489454a31.650909 31.650909 0 0 1-15.26691-4.468364 67.956364 67.956364 0 0 1-13.591272-10.426182c-3.909818-3.909818-7.819636-8.192-11.543273-12.660363l-7.261091-9.867637c-1.489455 2.420364-2.606545 4.468364-3.723636 6.516364V660.014545c0 2.048 0 3.909818-1.303273 5.771637s0 2.420364 0 3.537454a81.733818 81.733818 0 0 0-2.420364 17.501091 47.662545 47.662545 0 0 0 0 11.915637c4.654545 2.420364 9.309091 4.654545 13.777455 6.516363a89.553455 89.553455 0 0 0 16.011636 5.585455 31.278545 31.278545 0 0 0 7.633455 1.117091 25.320727 25.320727 0 0 0 6.516363-1.303273h1.675637l8.005818-2.792727 3.723636-1.675637s1.861818-1.303273 2.048-1.861818v-1.117091h3.351273v1.675637a5.026909 5.026909 0 0 1-2.978909 3.909818l-4.096 2.234182-8.378182 3.165091h-1.675636a28.113455 28.113455 0 0 1-7.074909 1.675636h-3.165091a32.954182 32.954182 0 0 1-7.633455-0.930909 103.330909 103.330909 0 0 1-17.128727-5.026909l-8.750545-3.537455a50.082909 50.082909 0 0 0 22.155636 21.224727h1.117091l-1.675637 3.723637h-1.303272l-2.978909-1.303273-5.585455-2.978909-3.909818-2.606545-2.234182-1.303273-1.861818-1.861818-3.537455-3.165091-3.165091-3.909818-1.303272-2.048-2.606546 1.489454a35.746909 35.746909 0 0 1-6.702545 2.606546 60.509091 60.509091 0 0 1-13.591273 1.489454h-13.218909l-12.660364-1.861818h-1.489454v-3.165091h1.303273l12.846545 1.117091h12.660364a64.605091 64.605091 0 0 0 12.101818-2.234182 21.969455 21.969455 0 0 0 5.213091-2.234182l2.234182-1.675636a2.606545 2.606545 0 0 1 0-1.117091 62.184727 62.184727 0 0 1-1.489455-36.305455l-6.144 0.93091h-2.234182a52.317091 52.317091 0 0 1-10.426182-1.117091 18.618182 18.618182 0 0 0-10.612363 4.468363l-5.213091 4.282182a13.591273 13.591273 0 0 1-7.633455 2.978909h-2.234182a52.689455 52.689455 0 0 1-12.101818-1.675636 111.709091 111.709091 0 0 1-13.405091-4.282182h-1.303272l1.303272-3.537455h1.303273a103.517091 103.517091 0 0 0 13.032727 3.537455 53.248 53.248 0 0 0 10.053819 1.117091h2.792727a9.495273 9.495273 0 0 0 5.026909-2.048l5.213091-4.654546a27.927273 27.927273 0 0 1 6.330182-4.096 20.852364 20.852364 0 0 1 7.633454-1.861818 70.190545 70.190545 0 0 0 8.192 0h3.537455a15.825455 15.825455 0 0 0 8.192-2.606545V655.36a9.495273 9.495273 0 0 1 0-2.420364v-2.606545l1.117091-2.420364a113.198545 113.198545 0 0 1 6.144-11.543272l2.792727-5.02691a59.205818 59.205818 0 0 0 6.888727-15.825454 12.288 12.288 0 0 0 0-6.330182 3.909818 3.909818 0 0 0 0-1.117091l-1.117091-2.792727c0-1.675636 0-3.165091-1.489454-4.654546-3.351273-10.798545-6.330182-22.528-9.309091-37.236363a24.576 24.576 0 0 1-10.984727 7.447273 32.023273 32.023273 0 0 1-9.681455 1.489454 53.620364 53.620364 0 0 1-10.24-1.117091 100.910545 100.910545 0 0 1-18.618182-5.213091h-2.234182l-6.330181-2.234182h-3.537455a8.750545 8.750545 0 0 0-3.165091 1.303273l-1.117091 0.930909 0.372364-4.096 1.117091-0.930909a9.867636 9.867636 0 0 1 5.213091-2.234182h1.489454a14.149818 14.149818 0 0 1 3.909818 0l6.888728 2.048h2.234181a101.841455 101.841455 0 0 0 18.618182 4.282182 42.635636 42.635636 0 0 0 8.005818 0 27.554909 27.554909 0 0 0 9.12291-1.489454 16.942545 16.942545 0 0 0 10.612363-10.984728v-5.026909-1.117091c0-1.117091 0 0 0 0v-0.930909a96.442182 96.442182 0 0 0-6.516363-16.011636 239.988364 239.988364 0 0 0-18.618182-31.278546 81.92 81.92 0 0 0-10.984728-13.40509 54.551273 54.551273 0 0 1-12.474181-20.48s0-1.117091-0.930909-1.117091a46.359273 46.359273 0 0 1-2.97891-31.650909v-2.420364a136.098909 136.098909 0 0 1 37.236364-52.875636l1.489455-1.489455L688.872727 372.363636a61.626182 61.626182 0 0 1 52.130909-6.330181 15.266909 15.266909 0 0 0 18.618182-8.005819 33.512727 33.512727 0 0 0-6.144-41.518545 14.894545 14.894545 0 0 0-8.378182-4.096 134.981818 134.981818 0 0 0-85.457454 16.197818l-2.978909 1.489455c-4.654545 2.792727-9.495273 5.585455-13.963637 8.750545l-3.909818 2.606546a13.218909 13.218909 0 0 1-2.606545 1.861818l-6.516364 5.026909a198.656 198.656 0 0 0-35.002182 44.125091c-13.218909 21.597091-22.155636 41.890909-24.948363 46.545454a18.618182 18.618182 0 0 1-21.224728 4.654546H544.581818l-3.351273-0.930909H535.831273a91.973818 91.973818 0 0 0-11.729455-1.117091h-1.117091a77.824 77.824 0 0 0-10.798545 0 41.518545 41.518545 0 0 1-6.702546-14.708364 134.609455 134.609455 0 0 1-10.798545-54.551273v-2.234181c-1.675636-30.347636 0-60.322909 0-60.32291a27.927273 27.927273 0 0 0-42.449455-9.867636 18.618182 18.618182 0 0 0-8.192 17.128727 875.054545 875.054545 0 0 1-3.351272 110.219637 142.429091 142.429091 0 0 0-23.831273 84.712727c15.453091 152.669091 79.499636 177.617455 141.870545 197.911273s192.139636 34.816 213.736728 10.798545 35.933091-41.518545 31.650909-112.826182z" fill="#5E74FE" p-id="7857"></path><path d="M730.577455 595.781818h-62.743273a4.096 4.096 0 0 1-4.282182-4.096V495.243636a4.282182 4.282182 0 0 1 4.282182-4.282181h62.743273a4.096 4.096 0 0 1 4.096 4.282181v95.511273a4.096 4.096 0 0 1-4.096 5.026909z m-58.647273-8.378182H726.109091v-88.064h-54.178909z" fill="#FFFFFF" p-id="7858"></path><path d="M930.909091 325.632a301.242182 301.242182 0 0 1 7.633454 30.906182 15.639273 15.639273 0 0 1-9.495272 6.330182c-10.426182 3.537455-3.537455 8.750545-13.777455 27.554909s5.026909 18.618182-3.537454 36.119272-5.213091 10.426182-1.675637 29.416728 17.128727 6.888727 17.128728 20.666182a18.618182 18.618182 0 0 0 10.612363 17.314909c-1.861818 8.192-3.909818 16.570182-6.516363 25.134545a5.213091 5.213091 0 0 0 3.537454 6.330182 4.840727 4.840727 0 0 0 6.144-3.537455 357.469091 357.469091 0 0 0 0-199.586909 5.399273 5.399273 0 0 0-2.606545-2.792727 4.840727 4.840727 0 0 0-3.909819 0 5.213091 5.213091 0 0 0-3.351272 4.840727 2.792727 2.792727 0 0 0-0.186182 1.303273zM841.914182 528.197818a4.840727 4.840727 0 0 0 3.351273-6.888727c-2.606545-8.936727-4.654545-17.687273-6.516364-26.437818a15.825455 15.825455 0 0 1 9.495273-6.516364c10.426182-3.351273 3.537455-8.564364 13.777454-27.554909s-5.026909-18.618182 3.537455-36.119273 5.213091-10.24 1.675636-29.230545-17.128727-6.888727-17.128727-20.666182a18.618182 18.618182 0 0 0-11.543273-18.618182 260.654545 260.654545 0 0 1 7.261091-29.230545 5.213091 5.213091 0 0 0-2.978909-6.516364 5.585455 5.585455 0 0 0-3.909818 0 5.957818 5.957818 0 0 0-2.606546 2.978909 335.127273 335.127273 0 0 0-14.708363 101.655273 347.787636 347.787636 0 0 0 13.963636 97.931636 5.213091 5.213091 0 0 0 2.606545 2.978909 4.282182 4.282182 0 0 0 3.723637 2.234182zM884.549818 323.770182h7.819637v199.773091h-7.819637z" fill="#5E74FE" p-id="7859"></path><path d="M888.459636 539.927273A116.922182 116.922182 0 1 1 1005.381818 423.005091 117.108364 117.108364 0 0 1 888.459636 539.927273z m0-227.328a110.592 110.592 0 1 0 110.592 110.405818 110.592 110.592 0 0 0-110.592-110.405818z" fill="#5E74FE" p-id="7860"></path><path d="M773.771636 456.704l-15.453091-1.675636a2.048 2.048 0 0 0-1.489454 0 1.675636 1.675636 0 0 0 0 1.303272v4.096a2.234182 2.234182 0 0 0 1.675636 2.048h7.447273l-37.236364 30.347637a1.861818 1.861818 0 0 0 0 2.606545l2.606546 3.165091a1.861818 1.861818 0 0 0 2.606545 0l37.236364-30.161454v7.26109a2.234182 2.234182 0 0 0 1.675636 2.048h5.585455a2.048 2.048 0 0 0 0-1.303272l1.303273-15.453091a4.840727 4.840727 0 0 0-5.957819-4.282182z" fill="#FFFFFF" p-id="7861"></path><path d="M777.495273 456.704l-15.639273-1.675636h-1.303273a4.654545 4.654545 0 0 0 0 1.303272v4.096a1.675636 1.675636 0 0 0 1.675637 2.048h7.261091l-37.236364 30.347637a1.861818 1.861818 0 0 0 0 2.606545l2.606545 3.165091a2.048 2.048 0 0 0 2.792728 0l37.236363-30.161454v7.26109a1.675636 1.675636 0 0 0 1.675637 2.048H781.963636a2.420364 2.420364 0 0 0 0-1.303272l1.303273-15.453091a5.213091 5.213091 0 0 0-5.771636-4.282182z" fill="#5E74FE" p-id="7862"></path></svg>