<?xml version="1.0" standalone="no"?><!DOCTYPE svg PUBLIC "-//W3C//DTD SVG 1.1//EN" "http://www.w3.org/Graphics/SVG/1.1/DTD/svg11.dtd"><svg t="1659430528875" class="icon" viewBox="0 0 1024 1024" version="1.1" xmlns="http://www.w3.org/2000/svg" p-id="6071" xmlns:xlink="http://www.w3.org/1999/xlink" width="200" height="200"><defs><style type="text/css">@font-face { font-family: feedback-iconfont; src: url("//at.alicdn.com/t/font_1031158_u69w8yhxdu.woff2?t=1630033759944") format("woff2"), url("//at.alicdn.com/t/font_1031158_u69w8yhxdu.woff?t=1630033759944") format("woff"), url("//at.alicdn.com/t/font_1031158_u69w8yhxdu.ttf?t=1630033759944") format("truetype"); }
</style></defs><path d="M362.951111 293.925926c-5.12-18.962963-9.860741-40.580741-14.791111-59.543704h-0.948148c-4.551111 18.962963-9.481481 41.14963-14.222222 59.543704l-3.982223 15.739259h37.925926z" fill="#5E74FE" p-id="6072"></path><path d="M794.548148 632.604444a201.007407 201.007407 0 0 1 96.711111 24.272593V108.088889a61.819259 61.819259 0 0 0-61.629629-61.819259H170.666667A61.819259 61.819259 0 0 0 109.795556 108.088889v780.894815A61.819259 61.819259 0 0 0 170.666667 950.613333h462.506666a197.594074 197.594074 0 0 1-39.632592-118.708148 200.438519 200.438519 0 0 1 201.007407-199.300741zM663.703704 314.595556l-23.703704-9.860741a54.613333 54.613333 0 0 1-37.925926-51.010371c0-31.099259 27.875556-56.888889 67.318519-56.888888a86.471111 86.471111 0 0 1 60.302222 24.462222l-22.186667 27.875555a60.871111 60.871111 0 0 0-37.925926-14.222222c-13.653333 0-22.186667 5.499259-22.186666 15.54963s11.757037 14.222222 28.254814 20.669629l23.134815 9.291852a51.2 51.2 0 0 1 36.598519 50.820741c0 31.099259-25.78963 58.216296-70.731852 58.216296a103.158519 103.158519 0 0 1-69.404445-26.737778l25.220741-30.72a73.576296 73.576296 0 0 0 45.131852 18.962963c16.497778 0 24.272593-6.068148 24.272593-16.118518s-9.481481-12.515556-26.168889-20.29037z m-134.637037-117.001482a78.696296 78.696296 0 0 1 56.888889 24.272593l-23.514075 28.444444a45.700741 45.700741 0 0 0-31.478518-14.601481c-24.082963 0-43.804444 21.617778-43.804444 56.888889s17.066667 58.405926 43.235555 58.405925a48.165926 48.165926 0 0 0 35.460741-16.877037l23.514074 27.875556a77.368889 77.368889 0 0 1-60.681482 27.496296c-47.217778 0-87.04-32.426667-87.04-94.814815s40.77037-97.09037 87.988149-97.09037z m-206.696297 3.602963h53.285926l57.837037 185.647407h-47.407407l-10.808889-42.666666H320.474074l-10.808889 42.666666h-45.321481z m-99.934814 297.339259H777.481481a25.220741 25.220741 0 1 1 0 50.251852H222.435556a25.220741 25.220741 0 1 1 0-50.251852zM487.348148 834.37037h-265.481481a25.220741 25.220741 0 0 1 0-50.441481h265.481481a25.220741 25.220741 0 1 1 0 50.441481z m79.454815-142.601481H222.435556a25.220741 25.220741 0 1 1 0-50.251852h344.367407a25.220741 25.220741 0 1 1 0 50.251852zM879.312593 869.262222h-36.21926v11.188148h36.977778zM843.093333 848.023704h36.21926v10.998518h-36.21926z" fill="#5E74FE" p-id="6073"></path><path d="M790.945185 663.703704a167.632593 167.632593 0 1 0 169.14963 167.632592A168.580741 168.580741 0 0 0 790.945185 663.703704z m-25.6 257.137777c-31.478519 0-59.354074-25.031111-59.354074-83.247407 0-61.44 30.53037-87.798519 63.715556-87.798518a61.060741 61.060741 0 0 1 44.752592 18.962963l-17.445926 18.962962a35.65037 35.65037 0 0 0-25.41037-11.946666c-18.962963 0-34.322963 14.222222-35.84 55.371852a48.545185 48.545185 0 0 1 33.943704-17.445926c27.685926 0 47.217778 16.497778 47.217777 51.768889a51.38963 51.38963 0 0 1-51.579259 55.371851z m125.914074-16.687407c0 6.447407-1.517037 9.481481-5.688889 11.377778a54.992593 54.992593 0 0 1-20.10074 2.085926 43.994074 43.994074 0 0 0-4.361482-11.377778h15.928889c2.085926 0 2.844444 0 2.844444-2.654815V891.259259h-37.925925a48.545185 48.545185 0 0 1-15.36 26.927408 40.580741 40.580741 0 0 0-8.343704-7.774815 52.527407 52.527407 0 0 0 14.980741-42.666667v-30.151111H891.259259z" fill="#5E74FE" p-id="6074"></path><path d="M763.448889 837.214815a32.237037 32.237037 0 0 0-26.927408 17.256296c3.223704 30.151111 14.222222 41.718519 28.065186 41.718519s22.376296-10.24 22.376296-30.340741-9.481481-28.634074-23.514074-28.634074z" fill="#5E74FE" p-id="6075"></path></svg>