<?xml version="1.0" standalone="no"?><!DOCTYPE svg PUBLIC "-//W3C//DTD SVG 1.1//EN" "http://www.w3.org/Graphics/SVG/1.1/DTD/svg11.dtd"><svg t="1659430623714" class="icon" viewBox="0 0 1024 1024" version="1.1" xmlns="http://www.w3.org/2000/svg" p-id="8551" xmlns:xlink="http://www.w3.org/1999/xlink" width="200" height="200"><defs><style type="text/css">@font-face { font-family: feedback-iconfont; src: url("//at.alicdn.com/t/font_1031158_u69w8yhxdu.woff2?t=1630033759944") format("woff2"), url("//at.alicdn.com/t/font_1031158_u69w8yhxdu.woff?t=1630033759944") format("woff"), url("//at.alicdn.com/t/font_1031158_u69w8yhxdu.ttf?t=1630033759944") format("truetype"); }
</style></defs><path d="M809.908148 582.731852a23.324444 23.324444 0 0 0-21.807407-21.048889l-106.951111-0.948148v28.065185h81.351111l-161.754074 162.133333 18.962963 18.962963 161.374814-161.374815v80.971852h28.254815v-105.623703zM426.097778 595.437037a21.238519 21.238519 0 0 0-21.617778 21.428148v11.567408H417.185185v-11.567408a8.343704 8.343704 0 0 1 8.343704-8.154074h39.632592a8.343704 8.343704 0 0 1 8.154075 8.343704v11.567407h13.274074v-11.757037a21.428148 21.428148 0 0 0-21.428149-21.617778zM433.493333 727.798519l23.324445 0.189629v-19.911111l19.911111 0.18963 0.18963-23.324445H457.007407l0.18963-19.911111-23.324444-0.18963-0.18963 19.911112-19.721482-0.18963-0.189629 23.324444 19.911111 0.18963-0.18963 19.721482zM179.579259 128.948148c0 7.964444 2.085926 10.24 10.24 10.42963l159.478519 0.948148H358.020741V116.053333 64.474074a18.962963 18.962963 0 0 0-22.186667-21.997037H208.592593l-4.930371 1.327407a71.68 71.68 0 0 0-11.946666 3.602963 18.962963 18.962963 0 0 0-12.325926 18.962963v46.08z m16.497778-74.334815a75.851852 75.851852 0 0 1 10.42963-3.034074l4.361481-1.137778h126.293333c8.912593 0 11.946667 3.034074 11.946667 11.757038V128.948148H189.62963v-18.962963-46.269629a9.291852 9.291852 0 0 1 6.447407-9.102223zM357.831111 173.700741c0-6.068148 0.948148-12.136296 1.137778-18.014815V142.222222l-180.148148-1.137778v21.238519a85.522963 85.522963 0 0 0 23.893333 61.44 92.539259 92.539259 0 0 0 37.925926 24.651852 33.943704 33.943704 0 0 0-8.533333 3.223704h-1.706667a14.032593 14.032593 0 0 0-5.12 2.465185 12.325926 12.325926 0 0 0-5.30963 10.05037 109.416296 109.416296 0 0 0 32.426667 71.300741 31.857778 31.857778 0 0 0 20.29037 8.343704 33.943704 33.943704 0 0 0 22.945186-9.671112 105.244444 105.244444 0 0 0 29.771851-59.543703c2.654815-14.980741 1.327407-17.635556-12.325925-23.324445h-1.517038a26.737778 26.737778 0 0 0-13.653333-2.275555 87.22963 87.22963 0 0 0 60.112593-75.851852z m-50.441481 87.04h1.327407a40.96 40.96 0 0 1 7.395556 3.413333 33.943704 33.943704 0 0 1-1.137778 8.533333 93.108148 93.108148 0 0 1-26.737778 53.854815 20.29037 20.29037 0 0 1-29.202963 1.327408A99.934815 99.934815 0 0 1 229.831111 265.481481a5.688889 5.688889 0 0 1 1.896296-2.085925h1.706667l3.223704-1.327408a16.497778 16.497778 0 0 1 7.964444-2.465185 11.946667 11.946667 0 0 1 9.481482 6.257778 68.456296 68.456296 0 0 0 10.429629 10.619259l6.447408 6.068148 3.792592 3.792593 3.602963-4.171852 4.740741-5.12c3.602963-3.982222 7.016296-7.964444 10.24-12.136296s7.016296-7.205926 14.032593-4.171852zM284.444444 257.327407a109.605926 109.605926 0 0 1-9.671111 11.377778l-1.137777 1.517037-2.844445-2.654815a65.801481 65.801481 0 0 1-8.912592-9.102222 29.202963 29.202963 0 0 0-5.688889-6.068148 72.438519 72.438519 0 0 0 12.894814 1.137778 91.591111 91.591111 0 0 0 23.703704-3.223704 21.428148 21.428148 0 0 0-8.343704 7.016296z m-74.334814-40.58074A73.386667 73.386667 0 0 1 189.62963 162.512593V151.703704h159.099259v2.844444a164.598519 164.598519 0 0 1-1.137778 17.066667 77.937778 77.937778 0 0 1-33.943704 56.888889 79.454815 79.454815 0 0 1-102.968888-11.757037z" fill="#5E74FE" p-id="8552"></path><path d="M361.244444 594.488889a52.148148 52.148148 0 0 0-1.517037 10.998518l-2.275555 355.176297a40.391111 40.391111 0 0 1-80.213333 9.481481 122.88 122.88 0 0 1 0-15.17037v-124.965926q0-86.281481 0.948148-171.994074a28.444444 28.444444 0 0 0-1.327408-8.343704v-3.034074a5.30963 5.30963 0 0 0-5.878518-4.171852h-4.171852a4.93037 4.93037 0 0 0-4.361482 4.930371v85.902222c0 75.851852 0 150.376296-1.327407 225.659259a41.339259 41.339259 0 0 1-27.685926 43.235556 40.011852 40.011852 0 0 1-36.02963-5.688889 44.562963 44.562963 0 0 1-17.445925-36.788148V742.968889v-136.533333a47.786667 47.786667 0 0 0-2.085926-11.757037c0-1.896296-1.137778-3.982222-1.517037-5.878519v-3.223704a83.626667 83.626667 0 0 1-2.085926-16.308148V429.700741a5.30963 5.30963 0 0 0-3.602963-5.12h-3.413334a5.30963 5.30963 0 0 0-5.12 4.361481c0 4.740741-1.517037 9.291852-2.465185 14.032593A258.654815 258.654815 0 0 0 154.358519 474.074074a701.62963 701.62963 0 0 0 0 71.68 42.666667 42.666667 0 0 1-10.998519 32.805926 31.857778 31.857778 0 0 1-24.272593 9.291852 32.616296 32.616296 0 0 1-29.771851-25.78963 351.762963 351.762963 0 0 1 15.739259-170.666666 210.678519 210.678519 0 0 1 79.834074-98.607408c6.257778-4.361481 12.515556-8.533333 18.962963-12.325926l1.896296-1.327407c1.137778 3.413333 2.465185 6.826667 3.602963 10.05037 4.171852 12.136296 8.343704 23.514074 13.463704 34.702222a66.56 66.56 0 0 0 34.133333 34.133334 5.12 5.12 0 0 1 1.327408 2.654815 58.216296 58.216296 0 0 0 16.497777 45.70074 36.788148 36.788148 0 0 1-2.085926 51.768889 11.377778 11.377778 0 0 1-3.792592 1.137778h-1.327408a22.755556 22.755556 0 0 0 8.722963 44.562963 22.565926 22.565926 0 0 0 15.36-9.860741 21.048889 21.048889 0 0 0 2.654815-16.877037 14.601481 14.601481 0 0 1 2.465185-11.946667 164.408889 164.408889 0 0 0 8.343704-17.445925 48.545185 48.545185 0 0 0-10.24-56.888889 31.668148 31.668148 0 0 1-11.188148-29.013334A9.481481 9.481481 0 0 1 284.444444 360.296296a65.232593 65.232593 0 0 0 37.925926-33.943703c5.499259-11.567407 10.05037-23.893333 14.411852-35.84 1.327407-3.223704 2.465185-6.826667 3.792593-10.24a286.90963 286.90963 0 0 1 49.303704 37.925926A223.762963 223.762963 0 0 1 455.111111 470.281481a652.515556 652.515556 0 0 1 0 66.74963c0 6.637037 0 13.084444-0.948148 18.962963a29.013333 29.013333 0 0 1-18.962963 25.979259 143.54963 143.54963 0 0 1-29.961481 0 35.081481 35.081481 0 0 1-17.445926-35.46074 338.10963 338.10963 0 0 0-4.171852-110.364445 37.925926 37.925926 0 0 0-5.878519-13.653333 5.12 5.12 0 0 0-5.878518-1.896296 5.30963 5.30963 0 0 0-3.602963 4.74074v144.687408a57.837037 57.837037 0 0 1-3.413334 15.17037c-1.896296 2.654815-2.844444 6.257778-3.602963 9.291852z" fill="#5E74FE" p-id="8553"></path><path d="M377.196316 743.888126m0.051233-8.153914l0.499226-79.453246q0.051233-8.153913 8.205146-8.10268l119.085057 0.748243q8.153913 0.051233 8.10268 8.205147l-0.499226 79.453246q-0.051233 8.153913-8.205147 8.10268l-119.085056-0.748243q-8.153913-0.051233-8.10268-8.205147Z" fill="#5E74FE" p-id="8554"></path><path d="M349.108148 63.336296c0-8.722963-3.034074-11.757037-11.946667-11.757037H210.868148l-4.361481 1.137778a75.851852 75.851852 0 0 0-10.42963 3.034074 9.291852 9.291852 0 0 0-5.878518 10.05037v65.232593l158.909629 1.137778v-17.445926c0-17.066667 0.18963-34.322963 0-51.38963zM303.407407 98.607407h-25.6v24.841482h-16.687407V98.417778h-25.031111V81.540741h25.031111V56.888889h16.497778v25.031111H303.407407zM307.38963 260.740741h1.327407a40.96 40.96 0 0 1 7.395556 3.413333 33.943704 33.943704 0 0 1-1.137778 8.533333 93.108148 93.108148 0 0 1-26.737778 53.854815 20.29037 20.29037 0 0 1-29.202963 1.327408A99.934815 99.934815 0 0 1 229.831111 265.481481a5.688889 5.688889 0 0 1 1.896296-2.085925h1.706667l3.223704-1.327408a16.497778 16.497778 0 0 1 7.964444-2.465185 11.946667 11.946667 0 0 1 9.481482 6.257778 68.456296 68.456296 0 0 0 10.429629 10.619259l6.447408 6.068148 3.792592 3.792593 3.602963-4.171852 4.740741-5.12c3.602963-3.982222 7.016296-7.964444 10.24-12.136296s7.016296-7.205926 14.032593-4.171852zM930.133333 102.4H555.235556A23.893333 23.893333 0 0 0 530.962963 126.293333v278.755556a24.082963 24.082963 0 0 0 23.893333 23.893333h175.217778v29.013334h-128.379259a10.619259 10.619259 0 1 0 0 21.048888H883.674074a10.619259 10.619259 0 0 0 0-21.048888h-128.379259v-29.013334h174.838518a23.893333 23.893333 0 0 0 23.703704-23.893333V126.293333a23.703704 23.703704 0 0 0-23.703704-23.893333z m2.465186 199.86963a6.068148 6.068148 0 0 1-5.49926 3.223703h-11.946666a7.395556 7.395556 0 0 1-7.585186-4.93037l-1.327407-3.034074-4.361481-10.808889a40.391111 40.391111 0 0 1-1.706667 3.982222 51.579259 51.579259 0 0 1-2.085926 4.740741l-1.137778 2.465185v1.137778a12.325926 12.325926 0 0 1-3.223704 4.93037 7.205926 7.205926 0 0 1-4.93037 1.517037h-13.463704c-5.878519 17.445926-10.998519 32.616296-16.687407 50.062223a7.016296 7.016296 0 0 1-6.447407 4.93037 7.395556 7.395556 0 0 1-7.016297-7.016296c0-8.912593-1.896296-17.825185-3.034074-26.548149 0-4.171852-10.42963-90.263704-10.429629-90.263703l-10.42963 61.629629a8.343704 8.343704 0 0 1-8.154074 6.826667H796.444444a7.585185 7.585185 0 0 1-8.533333-6.447407l-1.706667-6.257778-3.413333 7.964444a8.154074 8.154074 0 0 1-8.154074 5.12h-37.925926a7.395556 7.395556 0 0 1-7.585185-4.93037l-1.327407-3.034074-4.361482-10.808889a40.391111 40.391111 0 0 1-1.706667 3.982222c0 1.517037-1.517037 3.223704-2.275555 4.740741v3.602963a12.325926 12.325926 0 0 1-3.223704 4.93037 7.585185 7.585185 0 0 1-4.93037 1.517037h-13.463704c-5.878519 17.445926-10.998519 32.616296-16.687407 50.062223a7.016296 7.016296 0 0 1-6.447408 4.93037 7.395556 7.395556 0 0 1-7.016296-7.016296c0-8.912593-1.896296-17.825185-3.034074-26.548149 0-4.171852-10.42963-90.263704-10.42963-90.263703l-10.429629 61.629629a8.343704 8.343704 0 0 1-8.154074 6.826667h-17.066667a7.585185 7.585185 0 0 1-8.533333-6.447407l-3.223704-6.068148-3.413334 7.964444a8.154074 8.154074 0 0 1-8.154074 5.12h-36.029629c-3.982222 0-7.016296-3.792593-7.016297-9.102222s3.034074-9.291852 7.016297-9.291852h33.564444l9.481482-21.617778a7.205926 7.205926 0 0 1 6.068148-4.740741 7.585185 7.585185 0 0 1 7.016296 6.826667c1.137778 4.361481 2.085926 7.585185 2.844445 10.998519s1.327407 5.30963 2.275555 8.722963h8.722963l17.635556-103.348149a7.585185 7.585185 0 0 1 7.205926-6.826666 7.016296 7.016296 0 0 1 6.826666 7.016296c0.948148 8.912593 1.896296 17.825185 3.034074 26.737778 0 4.171852 10.808889 94.814815 10.808889 94.814815l1.517037 13.653333c0-2.654815 1.706667-4.93037 2.465185-7.395556s3.223704-9.481481 6.257778-18.962963a7.395556 7.395556 0 0 1 6.447408-4.93037h15.17037l4.93037-10.998518c1.896296-3.982222 3.792593-7.964444 5.878519-12.705186a7.395556 7.395556 0 0 1 6.447407-4.74074 6.637037 6.637037 0 0 1 6.257778 4.74074l9.481482 23.324445h32.616296l9.481481-21.617778a7.205926 7.205926 0 0 1 6.068148-4.740741c3.413333 0 6.068148 2.654815 7.205926 6.826667s1.896296 7.585185 2.654815 10.998518 1.327407 5.30963 2.275556 8.722963h8.912592l17.445926-103.348148a7.774815 7.774815 0 0 1 7.205926-6.826666 7.016296 7.016296 0 0 1 6.826667 7.016296c0.948148 8.912593 1.896296 17.825185 3.034074 26.737778 0 4.171852 10.808889 94.814815 10.808889 94.814814l1.517037 13.653334 2.465185-7.395556c1.706667-4.740741 3.413333-9.481481 6.257778-18.962963a7.395556 7.395556 0 0 1 6.447407-4.93037h15.170371l4.93037-10.998519c1.896296-3.982222 3.792593-7.964444 5.878519-12.705185a7.585185 7.585185 0 0 1 6.637037-4.740741 6.637037 6.637037 0 0 1 6.068148 4.740741l9.671111 23.703704h8.722963a6.826667 6.826667 0 0 1 5.688889 3.413333 12.136296 12.136296 0 0 1-0.948148 10.050371z" fill="#5E74FE" p-id="8555"></path></svg>