<?xml version="1.0" standalone="no"?><!DOCTYPE svg PUBLIC "-//W3C//DTD SVG 1.1//EN" "http://www.w3.org/Graphics/SVG/1.1/DTD/svg11.dtd"><svg t="1659430575975" class="icon" viewBox="0 0 1024 1024" version="1.1" xmlns="http://www.w3.org/2000/svg" p-id="7305" xmlns:xlink="http://www.w3.org/1999/xlink" width="200" height="200"><defs><style type="text/css">@font-face { font-family: feedback-iconfont; src: url("//at.alicdn.com/t/font_1031158_u69w8yhxdu.woff2?t=1630033759944") format("woff2"), url("//at.alicdn.com/t/font_1031158_u69w8yhxdu.woff?t=1630033759944") format("woff"), url("//at.alicdn.com/t/font_1031158_u69w8yhxdu.ttf?t=1630033759944") format("truetype"); }
</style></defs><path d="M362.192593 301.700741c-4.93037-18.962963-9.671111-40.77037-14.601482-59.733334h-1.137778c-4.361481 18.962963-9.481481 41.14963-14.222222 59.733334l-3.982222 15.739259h37.925926z" fill="#5E74FE" p-id="7306"></path><path d="M793.78963 640.379259a201.197037 201.197037 0 0 1 96.331851 24.272593V115.674074a61.819259 61.819259 0 0 0-61.819259-61.62963H170.666667A61.62963 61.62963 0 0 0 109.226667 115.674074v780.894815A61.62963 61.62963 0 0 0 170.666667 958.388148h461.937777a196.645926 196.645926 0 0 1-39.822222-118.897778 200.438519 200.438519 0 0 1 201.007408-199.111111zM663.703704 322.37037l-23.703704-10.05037a54.044444 54.044444 0 0 1-37.925926-50.820741c0-31.288889 28.065185-56.888889 67.508148-56.888889a86.091852 86.091852 0 0 1 60.302222 24.462223l-22.186666 27.875555a61.25037 61.25037 0 0 0-37.925926-14.222222c-13.842963 0-22.376296 5.499259-22.376296 15.54963s11.757037 14.222222 28.254814 20.669629l23.324445 9.291852a51.01037 51.01037 0 0 1 36.598518 50.820741c0 30.90963-25.979259 58.216296-70.921481 58.216296a104.865185 104.865185 0 0 1-69.404445-26.737778L620.468148 341.333333a75.851852 75.851852 0 0 0 45.131852 18.962963c16.497778 0 24.272593-6.257778 24.272593-16.118518S679.632593 329.197037 663.703704 322.37037z m-134.826667-117.001481a78.885926 78.885926 0 0 1 56.888889 24.272592l-23.514074 28.444445a46.08 46.08 0 0 0-32.237037-14.601482c-23.893333 0-43.614815 21.428148-43.614815 56.888889S502.897778 360.296296 529.256296 360.296296a48.734815 48.734815 0 0 0 35.460741-16.877037L587.851852 370.536296A77.368889 77.368889 0 0 1 527.36 398.222222c-47.028148 0-87.04-32.426667-87.04-94.814815s41.528889-98.038519 88.557037-98.038518zM321.232593 208.592593h53.475555l56.888889 185.647407h-46.08l-10.808889-42.666667h-54.992592l-10.61926 42.856297h-45.511111zM221.866667 506.121481H777.481481a25.220741 25.220741 0 1 1 0 50.441482H221.866667a25.220741 25.220741 0 0 1 0-50.441482z m265.481481 335.454815h-265.481481a25.220741 25.220741 0 1 1 0-50.251852h265.481481a25.220741 25.220741 0 1 1 0 50.251852z m79.644445-142.411852H221.866667a25.220741 25.220741 0 0 1 0-50.441481h344.367407a25.220741 25.220741 0 0 1 0 50.441481zM878.554074 877.037037h-36.219259v10.998519h36.788148zM842.334815 855.798519h36.219259v10.998518h-36.219259z" fill="#5E74FE" p-id="7307"></path><path d="M790.186667 671.857778a167.632593 167.632593 0 1 0 169.149629 167.632592 168.580741 168.580741 0 0 0-169.149629-167.632592zM758.518519 929.185185a69.594074 69.594074 0 0 1-55.182223-22.945185l15.36-20.66963a51.958519 51.958519 0 0 0 36.788148 16.877037c16.687407 0 28.065185-8.154074 28.065186-22.945185S773.688889 853.333333 737.848889 853.333333v-24.272592c30.340741 0 40.201481-10.42963 40.201481-25.220741a18.962963 18.962963 0 0 0-22.186666-20.66963 46.648889 46.648889 0 0 0-31.09926 14.791111L708.077037 777.481481a72.628148 72.628148 0 0 1 49.303704-18.962962c32.047407 0 53.665185 15.54963 53.665185 43.804444a39.063704 39.063704 0 0 1-27.685926 37.925926v1.137778a41.339259 41.339259 0 0 1 32.995556 40.58074c0 29.202963-26.548148 47.217778-57.837037 47.217778z m131.792592-16.877037c0 6.637037-1.706667 9.671111-5.878518 11.377778a53.854815 53.854815 0 0 1-19.911112 2.085926 46.26963 46.26963 0 0 0-4.551111-11.188148h15.928889c1.896296 0 2.844444 0 2.844445-2.654815v-13.084445h-37.925926a48.165926 48.165926 0 0 1-15.170371 27.117037 46.08 46.08 0 0 0-8.343703-7.774814 52.906667 52.906667 0 0 0 14.98074-42.666667v-30.151111h58.785186z" fill="#5E74FE" p-id="7308"></path></svg>