<?xml version="1.0" standalone="no"?><!DOCTYPE svg PUBLIC "-//W3C//DTD SVG 1.1//EN" "http://www.w3.org/Graphics/SVG/1.1/DTD/svg11.dtd"><svg t="1659430561628" class="icon" viewBox="0 0 1024 1024" version="1.1" xmlns="http://www.w3.org/2000/svg" p-id="6895" xmlns:xlink="http://www.w3.org/1999/xlink" width="200" height="200"><defs><style type="text/css">@font-face { font-family: feedback-iconfont; src: url("//at.alicdn.com/t/font_1031158_u69w8yhxdu.woff2?t=1630033759944") format("woff2"), url("//at.alicdn.com/t/font_1031158_u69w8yhxdu.woff?t=1630033759944") format("woff"), url("//at.alicdn.com/t/font_1031158_u69w8yhxdu.ttf?t=1630033759944") format("truetype"); }
</style></defs><path d="M303.976296 103.537778h27.685926v11.567407h-27.685926zM576.663704 103.537778h27.685926v11.567407h-27.685926zM193.991111 103.537778h27.685926v11.567407h-27.685926zM248.604444 103.537778h27.685926v11.567407h-27.685926zM467.626667 103.537778h27.685926v11.567407h-27.685926zM137.860741 157.202963h10.619259V183.940741h-10.619259zM358.58963 103.537778h27.685926v11.567407h-27.685926zM522.24 103.537778H549.925926v11.567407h-27.685926zM413.013333 103.537778h27.685926v11.567407h-27.685926zM170.666667 117.001481l-4.361482-9.86074a56.888889 56.888889 0 0 0-23.324444 20.669629l10.05037 4.930371A43.235556 43.235556 0 0 1 170.666667 117.001481zM683.045926 180.527407h10.619259v13.463704h-10.619259zM137.860741 211.816296h10.619259v27.685926h-10.619259zM658.204444 116.242963l3.413334-10.808889a79.265185 79.265185 0 0 0-13.463704-1.706667h-15.17037V113.777778h15.17037a37.925926 37.925926 0 0 1 10.05037 2.465185zM682.666667 152.841481h11.567407V151.703704a49.114074 49.114074 0 0 0-8.912593-26.927408l-8.912592 6.447408A41.718519 41.718519 0 0 1 682.666667 151.703704zM137.860741 266.24h10.619259v27.685926h-10.619259zM137.860741 320.853333h10.619259v27.685926h-10.619259zM137.860741 375.466667h10.619259v27.685926h-10.619259zM170.666667 712.248889a55.371852 55.371852 0 1 0-55.371852-55.371852A55.182222 55.182222 0 0 0 170.666667 712.248889z m9.86074-82.10963a6.257778 6.257778 0 0 1 6.447408-6.257778 6.068148 6.068148 0 0 1 6.257778 6.257778v48.355556a6.068148 6.068148 0 0 1-6.257778 6.257778 6.257778 6.257778 0 0 1-6.447408-6.257778z m-32.047407 0a6.257778 6.257778 0 0 1 12.515556 0v48.355556a7.585185 7.585185 0 0 1-6.257778 6.257778 6.068148 6.068148 0 0 1-6.257778-6.257778z" fill="#5E74FE" p-id="6896"></path><path d="M248.414815 438.992593H147.531852v-8.154074h-10.619259v8.154074H90.074074a47.786667 47.786667 0 0 0-47.407407 47.407407v358.58963a47.976296 47.976296 0 0 0 47.407407 47.407407h158.340741a48.165926 48.165926 0 0 0 47.407407-48.355556V486.4a47.597037 47.597037 0 0 0-47.407407-47.407407z m-75.851852 437.285926a16.118519 16.118519 0 1 1 16.118518-16.118519 16.118519 16.118519 0 0 1-17.066666 16.118519z m99.176296-51.010371H73.197037v-341.333333h197.594074z" fill="#5E74FE" p-id="6897"></path><path d="M944.545185 204.61037H260.171852a43.614815 43.614815 0 0 0-43.614815 43.425186v157.961481h51.01037a56.888889 56.888889 0 0 1 56.888889 56.888889v337.92h254.862223V853.333333H344.936296a18.962963 18.962963 0 0 0 0 37.925926h514.844445a18.962963 18.962963 0 0 0 0-37.925926H625.777778v-52.527407h318.767407a43.614815 43.614815 0 0 0 43.614815-43.614815V248.035556a43.614815 43.614815 0 0 0-43.614815-43.425186zM303.407407 292.219259a10.619259 10.619259 0 0 1-10.619259 0 10.808889 10.808889 0 0 1-5.309629-9.291852 10.619259 10.619259 0 0 1 5.309629-9.481481 11.567407 11.567407 0 0 1 10.619259 0 11.188148 11.188148 0 0 1 5.30963 9.481481 10.998519 10.998519 0 0 1-5.30963 9.291852z m41.908149 0a10.619259 10.619259 0 0 1-10.61926 0 11.188148 11.188148 0 0 1-5.309629-9.291852 10.998519 10.998519 0 0 1 5.309629-9.481481 11.567407 11.567407 0 0 1 10.61926 0 10.998519 10.998519 0 0 1 5.499259 9.481481 10.619259 10.619259 0 0 1-6.068148 9.291852z m42.097777 0a10.619259 10.619259 0 0 1-10.619259 0 10.808889 10.808889 0 0 1-5.30963-9.291852 10.619259 10.619259 0 0 1 5.30963-9.481481 11.567407 11.567407 0 0 1 10.619259 0 10.998519 10.998519 0 0 1 5.49926 9.481481 10.619259 10.619259 0 0 1-6.068149 9.291852z m97.848889 395.188148h-84.764444V587.851852h84.195555z m117.76 0h-84.764444v-179.579259h84.195555z m134.447408 0h-84.574815v-339.437037h84.005926z m134.637037 0h-84.764445V427.804444H872.296296z" fill="#5E74FE" p-id="6898"></path></svg>