<?xml version="1.0" standalone="no"?><!DOCTYPE svg PUBLIC "-//W3C//DTD SVG 1.1//EN" "http://www.w3.org/Graphics/SVG/1.1/DTD/svg11.dtd"><svg t="1659430546792" class="icon" viewBox="0 0 1024 1024" version="1.1" xmlns="http://www.w3.org/2000/svg" p-id="6481" xmlns:xlink="http://www.w3.org/1999/xlink" width="200" height="200"><defs><style type="text/css">@font-face { font-family: feedback-iconfont; src: url("//at.alicdn.com/t/font_1031158_u69w8yhxdu.woff2?t=1630033759944") format("woff2"), url("//at.alicdn.com/t/font_1031158_u69w8yhxdu.woff?t=1630033759944") format("woff"), url("//at.alicdn.com/t/font_1031158_u69w8yhxdu.ttf?t=1630033759944") format("truetype"); }
</style></defs><path d="M39.822222 335.834074a18.962963 18.962963 0 0 0 6.447408-1.137778c1.137778 0-13.653333 2.085926 59.922963-13.653333a62.577778 62.577778 0 0 1 25.031111 36.219259c14.032593 39.442963 33.374815 12.515556 107.14074 50.820741s59.543704-10.808889 100.882963 11.188148c65.422222 34.702222 40.201481 18.962963 112.82963 4.171852s25.031111-66.74963 78.127407-67.887407a63.336296 63.336296 0 0 0 12.325926-1.137778 279.324444 279.324444 0 0 1 71.300741-78.506667C237.037037 186.026667 36.02963 296.96 32.616296 298.287407a18.962963 18.962963 0 0 0-10.998518 10.050371 18.962963 18.962963 0 0 0 18.962963 27.496296zM559.976296 661.048889a75.851852 75.851852 0 0 0-29.013333-6.257778c-52.906667-1.517037-5.12-53.285926-77.558519-68.645926s-47.217778-30.72-112.829629 3.602963c-41.528889 21.617778-26.927407-27.306667-100.882963 10.42963s-93.108148 10.619259-107.52 50.062222a62.957037 62.957037 0 0 1-25.410371 35.84c-73.386667-16.118519-58.595556-13.463704-59.733333-14.032593a18.962963 18.962963 0 0 0-6.447407-1.137777 18.962963 18.962963 0 0 0-18.962963 27.306666 18.962963 18.962963 0 0 0 10.808889 10.24c3.413333 1.327407 211.816296 118.139259 604.349629 21.048889a272.877037 272.877037 0 0 1-76.8-68.456296zM73.576296 472.936296a26.548148 26.548148 0 1 0-26.548148 26.548148 26.548148 26.548148 0 0 0 26.548148-26.548148zM119.845926 529.256296a23.324444 23.324444 0 1 0 23.324444-23.134815 23.324444 23.324444 0 0 0-23.324444 23.134815z" fill="#5E74FE" p-id="6482"></path><path d="M229.262222 456.248889m-29.771852 0a29.771852 29.771852 0 1 0 59.543704 0 29.771852 29.771852 0 1 0-59.543704 0Z" fill="#5E74FE" p-id="6483"></path><path d="M280.082963 489.434074a16.687407 16.687407 0 1 0 33.185185 0 16.687407 16.687407 0 0 0-33.185185 0z" fill="#5E74FE" p-id="6484"></path><path d="M369.588148 542.53037m-9.860741 0a9.860741 9.860741 0 1 0 19.721482 0 9.860741 9.860741 0 1 0-19.721482 0Z" fill="#5E74FE" p-id="6485"></path><path d="M425.908148 466.299259m-19.911111 0a19.911111 19.911111 0 1 0 39.822222 0 19.911111 19.911111 0 1 0-39.822222 0Z" fill="#5E74FE" p-id="6486"></path><path d="M70.162963 588.8m-29.771852 0a29.771852 29.771852 0 1 0 59.543704 0 29.771852 29.771852 0 1 0-59.543704 0Z" fill="#5E74FE" p-id="6487"></path><path d="M777.481481 265.481481a230.58963 230.58963 0 1 0 229.641482 229.641482A230.4 230.4 0 0 0 777.481481 265.481481z m0 368.260741a123.06963 123.06963 0 0 1-120.414814-125.155555 18.962963 18.962963 0 1 1 37.925926 0 82.488889 82.488889 0 1 0 82.488888-87.22963v18.962963c0 10.808889-7.205926 14.980741-16.308148 9.481481l-56.888889-35.271111a10.998519 10.998519 0 0 1 0-20.29037l56.888889-35.081481a15.928889 15.928889 0 0 1 7.585186-2.654815c5.12 0 8.722963 4.361481 8.722962 11.946666v13.274074a125.155556 125.155556 0 0 1 0 250.311112z" fill="#5E74FE" p-id="6488"></path></svg>