<?xml version="1.0" standalone="no"?><!DOCTYPE svg PUBLIC "-//W3C//DTD SVG 1.1//EN" "http://www.w3.org/Graphics/SVG/1.1/DTD/svg11.dtd"><svg t="1659430571359" class="icon" viewBox="0 0 1024 1024" version="1.1" xmlns="http://www.w3.org/2000/svg" p-id="7168" xmlns:xlink="http://www.w3.org/1999/xlink" width="200" height="200"><defs><style type="text/css">@font-face { font-family: feedback-iconfont; src: url("//at.alicdn.com/t/font_1031158_u69w8yhxdu.woff2?t=1630033759944") format("woff2"), url("//at.alicdn.com/t/font_1031158_u69w8yhxdu.woff?t=1630033759944") format("woff"), url("//at.alicdn.com/t/font_1031158_u69w8yhxdu.ttf?t=1630033759944") format("truetype"); }
</style></defs><path d="M360.296296 484.503704h58.026667c20.100741 0 36.788148-10.42963 36.788148-31.857778s-15.17037-30.72-37.925926-31.288889c-64.474074-1.706667-64.474074-2.275556-81.161481-63.146667-11.757037-42.287407-21.428148-49.682963-69.783704-51.958518-7.395556 26.548148-15.17037 53.475556-22.945185 80.592592h-4.930371l-4.93037-83.437037-16.877037 1.137778c-2.275556 27.496296-4.361481 56.888889-6.257778 81.540741h-6.637037c-7.205926-24.462222-14.032593-55.182222-21.617778-81.540741-25.6 4.361481-54.234074 3.602963-62.957037 32.047408-18.962963 62.957037-35.081481 127.241481-51.389629 191.146666-5.12 18.962963 0 37.925926 22.186666 43.614815s34.133333-8.154074 39.632593-28.444444 11.377778-40.96 16.877037-61.62963c3.413333 120.604444 3.413333 240.45037 3.413333 360.296296 0 40.011852 7.585185 52.717037 31.288889 53.285926s31.478519-13.084444 31.478519-53.285926V622.933333h22.945185v213.143704a239.122963 239.122963 0 0 0 2.085926 32.995556 27.306667 27.306667 0 0 0 30.53037 25.22074 30.72 30.72 0 0 0 31.857778-28.254814 154.737778 154.737778 0 0 0 0-24.841482v-360.296296c22.376296 1.896296 41.339259 3.223704 60.302222 3.602963zM837.594074 728.936296c-60.871111-3.602963-83.626667 8.154074-87.988148 42.097778-11.946667-48.165926-52.527407-41.908148-85.143704-42.287407s-73.197037-5.30963-84.005926 45.511111c-9.102222-40.201481-35.271111-50.820741-100.693333-44.942222-68.266667 6.257778-58.405926 3.792593-79.644444 102.21037H929.185185c-23.324444-101.451852-12.325926-97.848889-91.591111-102.58963z" fill="#5E74FE" p-id="7169"></path><path d="M954.216296 228.882963a34.322963 34.322963 0 0 0-8.722963-25.78963 35.081481 35.081481 0 0 0-26.358518-8.154074h-502.518519a43.045926 43.045926 0 0 0-31.857777 9.860741 43.235556 43.235556 0 0 0-9.291852 32.047407c0.948148 31.478519 0 58.785185 0 87.608889v56.888889a11.377778 11.377778 0 0 0 11.567407 11.377778 11.757037 11.757037 0 0 0 11.377778-11.567407v-56.888889-88.177778c0-10.24 1.327407-14.032593 2.654815-15.36s5.12-3.034074 15.36-3.034074h503.466666c7.205926 0 9.102222 1.137778 9.481482 1.517037a14.791111 14.791111 0 0 1 1.896296 9.291852v323.508148a16.308148 16.308148 0 0 1-1.896296 9.860741s-2.844444 1.896296-11.377778 1.896296H411.496296a24.272593 24.272593 0 0 1-9.86074-2.085926 5.30963 5.30963 0 0 1-3.413334-5.499259v-8.533334-39.063703a11.377778 11.377778 0 0 0-10.808889-11.946667 11.567407 11.567407 0 0 0-12.136296 10.808889V556.183704a28.444444 28.444444 0 0 0 15.739259 25.979259 47.407407 47.407407 0 0 0 20.48 4.551111h506.311111a36.598519 36.598519 0 0 0 27.685926-8.722963 35.460741 35.460741 0 0 0 8.533334-26.168889c-0.568889-93.108148-0.568889-192.663704 0.189629-322.939259z" fill="#5E74FE" p-id="7170"></path><path d="M758.518519 285.582222v230.779259h94.814814V285.582222zM693.475556 517.688889c5.499259 0 10.998519 0 18.962963-1.517037v-163.271111h-94.814815v164.977778zM222.435556 295.253333A69.594074 69.594074 0 0 0 289.374815 227.555556a67.697778 67.697778 0 0 0-67.128889-65.801482A65.422222 65.422222 0 0 0 155.875556 227.555556a68.456296 68.456296 0 0 0 66.56 67.697777zM476.539259 413.771852v102.779259H568.888889v-102.779259zM543.857778 675.081481a49.303704 49.303704 0 0 0-98.607408 0A47.597037 47.597037 0 0 0 493.037037 722.299259a48.355556 48.355556 0 0 0 50.820741-47.217778zM710.731852 674.322963a45.511111 45.511111 0 0 0-48.924445-47.407407 47.028148 47.028148 0 0 0-47.217777 46.838518 48.165926 48.165926 0 1 0 96.142222 0zM880.82963 674.133333a48.165926 48.165926 0 0 0-50.441482-47.217777 49.682963 49.682963 0 0 0-48.545185 46.838518 48.924444 48.924444 0 0 0 49.493333 48.545185 47.597037 47.597037 0 0 0 49.493334-48.165926z" fill="#5E74FE" p-id="7171"></path></svg>