<?xml version="1.0" standalone="no"?><!DOCTYPE svg PUBLIC "-//W3C//DTD SVG 1.1//EN" "http://www.w3.org/Graphics/SVG/1.1/DTD/svg11.dtd"><svg t="1659430581912" class="icon" viewBox="0 0 1024 1024" version="1.1" xmlns="http://www.w3.org/2000/svg" p-id="7442" xmlns:xlink="http://www.w3.org/1999/xlink" width="200" height="200"><defs><style type="text/css">@font-face { font-family: feedback-iconfont; src: url("//at.alicdn.com/t/font_1031158_u69w8yhxdu.woff2?t=1630033759944") format("woff2"), url("//at.alicdn.com/t/font_1031158_u69w8yhxdu.woff?t=1630033759944") format("woff"), url("//at.alicdn.com/t/font_1031158_u69w8yhxdu.ttf?t=1630033759944") format("truetype"); }
</style></defs><path d="M471.608889 829.25037v-54.044444h151.703704a186.974815 186.974815 0 0 1-14.601482-72.248889 189.62963 189.62963 0 0 1 9.860741-59.922963V383.620741h94.814815v151.703703a183.940741 183.940741 0 0 1 80.971852-18.962963 187.164444 187.164444 0 0 1 47.597037 6.068149V210.10963a44.562963 44.562963 0 0 0-44.562963-44.562963H98.038519a44.562963 44.562963 0 0 0-44.562963 44.562963v520.533333a44.752593 44.752593 0 0 0 44.562963 44.562963h326.352592v54.044444H184.888889a18.962963 18.962963 0 0 0 0 39.442963H711.111111a183.751111 183.751111 0 0 1-52.337778-39.442963z m-194.56-151.703703h-94.814815v-113.588148h94.814815z m132.740741 0h-94.814815V474.074074h94.814815z m56.888889-383.241482h94.814814v382.293334h-94.814814z" fill="#5E74FE" p-id="7443"></path><path d="M794.927407 537.031111a165.925926 165.925926 0 1 0 165.925926 165.925926 165.925926 165.925926 0 0 0-165.925926-165.925926z m70.162963 188.302222H817.303704v47.786667a22.376296 22.376296 0 0 1-44.752593 0v-47.786667h-47.786667a22.376296 22.376296 0 1 1 0-44.752592h47.786667v-47.976297a22.376296 22.376296 0 0 1 44.752593 0v47.976297h47.786666a22.376296 22.376296 0 0 1 0 44.752592z" fill="#5E74FE" p-id="7444"></path></svg>