<?xml version="1.0" standalone="no"?><!DOCTYPE svg PUBLIC "-//W3C//DTD SVG 1.1//EN" "http://www.w3.org/Graphics/SVG/1.1/DTD/svg11.dtd"><svg t="1651225381580" class="icon" viewBox="0 0 1024 1024" version="1.1" xmlns="http://www.w3.org/2000/svg" p-id="5441" xmlns:xlink="http://www.w3.org/1999/xlink" width="200" height="200"><defs><style type="text/css">@font-face { font-family: feedback-iconfont; src: url("//at.alicdn.com/t/font_1031158_u69w8yhxdu.woff2?t=1630033759944") format("woff2"), url("//at.alicdn.com/t/font_1031158_u69w8yhxdu.woff?t=1630033759944") format("woff"), url("//at.alicdn.com/t/font_1031158_u69w8yhxdu.ttf?t=1630033759944") format("truetype"); }
</style></defs><path d="M576.963441 643.027957v-28.627957c11.010753-11.010753 35.234409-41.84086 44.043011-81.47957 8.808602-4.404301 17.617204-13.212903 22.021505-28.627957 6.606452-19.819355 6.606452-46.245161-6.606452-61.660215 2.202151-24.223656 8.808602-88.086022-28.627957-127.724731-22.021505-24.223656-55.053763-41.84086-96.894623-44.043011-41.84086 2.202151-74.873118 19.819355-96.894624 44.043011-37.436559 41.84086-30.830108 105.703226-28.627957 127.724731-13.212903 17.617204-13.212903 44.043011-6.606452 61.660215 4.404301 13.212903 13.212903 24.223656 22.021506 28.627957 8.808602 39.63871 33.032258 70.468817 44.043011 81.47957v26.425806c0 94.692473-220.215054 74.873118-220.215054 171.767742v26.425807h572.55914V814.795699c0-99.096774-220.215054-77.075269-220.215054-171.767742z m0 0M497.686022 251.045161c-88.086022 0-182.778495-19.819355-182.778495-57.255914s94.692473-57.255914 182.778495-57.255914 182.778495 19.819355 182.778494 57.255914-92.490323 57.255914-182.778494 57.255914z m0-101.298924c-103.501075 0-167.363441 24.223656-167.363441 44.04301s63.862366 44.043011 167.363441 44.043011 167.363441-24.223656 167.36344-44.043011-61.660215-44.043011-167.36344-44.04301z" p-id="5442"></path></svg>