<?xml version="1.0" standalone="no"?><!DOCTYPE svg PUBLIC "-//W3C//DTD SVG 1.1//EN" "http://www.w3.org/Graphics/SVG/1.1/DTD/svg11.dtd"><svg t="1651225360943" class="icon" viewBox="0 0 1024 1024" version="1.1" xmlns="http://www.w3.org/2000/svg" p-id="4864" xmlns:xlink="http://www.w3.org/1999/xlink" width="200" height="200"><defs><style type="text/css">@font-face { font-family: feedback-iconfont; src: url("//at.alicdn.com/t/font_1031158_u69w8yhxdu.woff2?t=1630033759944") format("woff2"), url("//at.alicdn.com/t/font_1031158_u69w8yhxdu.woff?t=1630033759944") format("woff"), url("//at.alicdn.com/t/font_1031158_u69w8yhxdu.ttf?t=1630033759944") format("truetype"); }
</style></defs><path d="M598.984946 299.492473c-61.660215-24.223656-136.533333-37.436559-215.810752-37.436559-114.511828 0-215.810753 28.627957-288.481721 72.670968 0 0 17.617204-8.808602 39.63871 0s39.63871-17.617204 52.851613 0c13.212903 17.617204 46.245161 70.468817 61.660215 66.064516 15.415054-4.404301 55.053763 22.021505 55.053763 22.021505s11.010753 4.404301 59.458065 0 85.883871 2.202151 85.883871 2.202151 79.277419-11.010753 72.670967-28.627957l-6.606451-17.617205s26.425806-19.819355 37.436559-35.234408c8.808602-17.617204 46.245161-44.043011 46.245161-44.043011zM596.782796 680.464516c-68.266667 26.425806-140.937634 37.436559-213.608602 37.436559-114.511828 0-215.810753-28.627957-288.481721-72.670967 0 0 17.617204 8.808602 39.63871 0s39.63871 17.617204 52.851613 0c13.212903-17.617204 46.245161-70.468817 61.660215-66.064517 15.415054 4.404301 55.053763-22.021505 55.053763-22.021505s11.010753-4.404301 59.458065 0c46.245161 4.404301 85.883871-2.202151 85.883871-2.202151 19.819355-2.202151 50.649462 2.202151 63.862365 19.819355 8.808602 11.010753 11.010753 24.223656 17.617205 37.436559 13.212903 28.627957 37.436559 52.851613 66.064516 68.266667z" p-id="4865"></path><path d="M134.331183 469.058065m-17.617205 0a17.617204 17.617204 0 1 0 35.234409 0 17.617204 17.617204 0 1 0-35.234409 0Z" p-id="4866"></path><path d="M213.608602 504.292473m-17.617204 0a17.617204 17.617204 0 1 0 35.234408 0 17.617204 17.617204 0 1 0-35.234408 0Z" p-id="4867"></path><path d="M449.23871 469.058065m-17.617205 0a17.617204 17.617204 0 1 0 35.234409 0 17.617204 17.617204 0 1 0-35.234409 0Z" p-id="4868"></path><path d="M345.737634 475.664516m-17.617204 0a17.617204 17.617204 0 1 0 35.234409 0 17.617204 17.617204 0 1 0-35.234409 0Z" p-id="4869"></path><path d="M394.184946 504.292473m-17.617204 0a17.617204 17.617204 0 1 0 35.234409 0 17.617204 17.617204 0 1 0-35.234409 0Z" p-id="4870"></path><path d="M151.948387 554.941935m-26.425806 0a26.425806 26.425806 0 1 0 52.851613 0 26.425806 26.425806 0 1 0-52.851613 0Z" p-id="4871"></path><path d="M279.673118 451.44086m-26.425806 0a26.425806 26.425806 0 1 0 52.851613 0 26.425806 26.425806 0 1 0-52.851613 0Z" p-id="4872"></path><path d="M748.731183 286.27957c-112.309677 0-200.395699 90.288172-200.395699 200.395699 0 112.309677 90.288172 200.395699 200.395699 200.395699 112.309677 0 200.395699-90.288172 200.395699-200.395699 2.202151-110.107527-88.086022-200.395699-200.395699-200.395699z m0 317.109677c-57.255914 0-103.501075-46.245161-103.501075-103.501075h26.425806c0 41.84086 35.234409 77.075269 77.075269 77.075269s77.075269-35.234409 77.075269-77.075269c0-35.234409-26.425806-66.064516-59.458065-74.873118v28.627957l-72.670968-41.84086 72.670968-41.840861v28.627957c48.447312 8.808602 85.883871 50.649462 85.883871 101.298925 0 57.255914-46.245161 103.501075-103.501075 103.501075z" p-id="4873"></path></svg>