<?xml version="1.0" standalone="no"?><!DOCTYPE svg PUBLIC "-//W3C//DTD SVG 1.1//EN" "http://www.w3.org/Graphics/SVG/1.1/DTD/svg11.dtd"><svg t="1651225395208" class="icon" viewBox="0 0 1024 1024" version="1.1" xmlns="http://www.w3.org/2000/svg" p-id="5862" xmlns:xlink="http://www.w3.org/1999/xlink" width="200" height="200"><defs><style type="text/css">@font-face { font-family: feedback-iconfont; src: url("//at.alicdn.com/t/font_1031158_u69w8yhxdu.woff2?t=1630033759944") format("woff2"), url("//at.alicdn.com/t/font_1031158_u69w8yhxdu.woff?t=1630033759944") format("woff"), url("//at.alicdn.com/t/font_1031158_u69w8yhxdu.ttf?t=1630033759944") format("truetype"); }
</style></defs><path d="M821.402151 669.453763v-440.430107h-594.580646v438.227957H506.494624v50.649462h-187.182796c-8.808602 0-17.617204 6.606452-17.617204 17.617205 0 8.808602 6.606452 17.617204 17.617204 17.617204H726.709677c8.808602 0 17.617204-6.606452 17.617205-17.617204 0-8.808602-6.606452-17.617204-17.617205-17.617205h-187.182795v-50.649462h281.875269zM484.473118 513.101075l-24.223656-2.20215-39.638709 83.68172-15.415054-224.619355-30.830108 162.95914-19.819354-72.670968-30.830108 57.255914h-44.043011v-8.808602h39.63871l39.63871-72.670968 15.415053 57.255914 35.234409-191.587096 17.617204 257.651613 28.627957-59.458065 24.223656 2.202151 15.415054-66.064517L528.516129 506.494624h35.234409l24.223656-63.862366 17.617204 57.255914h24.223656l17.617204-207.00215 30.830108 264.258064 19.819354-61.660215H726.709677l28.627957-57.255914 17.617205 57.255914h17.617204v8.808602h-24.223656l-13.212903-41.84086-19.819355 41.84086H704.688172l-30.830107 92.490323-26.425807-218.012904-11.010753 132.129033h-39.638709l-11.010753-39.63871-17.617204 46.245161h-48.447312L495.483871 462.451613l-11.010753 50.649462z" p-id="5863"></path></svg>