<?xml version="1.0" standalone="no"?><!DOCTYPE svg PUBLIC "-//W3C//DTD SVG 1.1//EN" "http://www.w3.org/Graphics/SVG/1.1/DTD/svg11.dtd"><svg t="1651225399052" class="icon" viewBox="0 0 1024 1024" version="1.1" xmlns="http://www.w3.org/2000/svg" p-id="6000" xmlns:xlink="http://www.w3.org/1999/xlink" width="200" height="200"><defs><style type="text/css">@font-face { font-family: feedback-iconfont; src: url("//at.alicdn.com/t/font_1031158_u69w8yhxdu.woff2?t=1630033759944") format("woff2"), url("//at.alicdn.com/t/font_1031158_u69w8yhxdu.woff?t=1630033759944") format("woff"), url("//at.alicdn.com/t/font_1031158_u69w8yhxdu.ttf?t=1630033759944") format("truetype"); }
</style></defs><path d="M660.645161 471.260215c-4.404301-2.202151-8.808602-4.404301-15.415053-4.404301-4.404301 0-11.010753-2.202151-15.415054-2.202151-30.830108 0-61.660215 17.617204-72.670968 48.447312l-37.436559 94.692473-11.010753 28.627957-22.021505 52.851613c-15.415054 39.63871 2.202151 85.883871 44.043011 103.501076 4.404301 2.202151 8.808602 4.404301 15.415053 4.404301 4.404301 0 11.010753 2.202151 15.415054 2.20215 30.830108 0 61.660215-17.617204 72.670968-48.447312l22.021505-52.851613 11.010753-28.627957L704.688172 572.55914c15.415054-39.63871-4.404301-85.883871-44.043011-101.298925z m15.415054 90.288172L638.623656 654.03871s-2.202151 2.202151-2.202151 0l-88.086021-35.234409s-2.202151-2.202151 0-2.20215l37.436559-92.490323c4.404301-8.808602 11.010753-17.617204 17.617204-22.021505 8.808602-4.404301 17.617204-8.808602 26.425807-8.808603 6.606452 0 13.212903 2.202151 17.617204 4.404302 26.425806 11.010753 39.63871 39.63871 28.627957 63.862365z m264.258065-26.425806c-8.808602-8.808602-17.617204-13.212903-26.425807-17.617205-8.808602-4.404301-19.819355-6.606452-28.627957-6.606451-19.819355 0-39.63871 8.808602-55.053763 24.223656l-39.63871 39.638709-92.490323 92.490323c-30.830108 30.830108-30.830108 81.47957 0 112.309677 8.808602 8.808602 17.617204 13.212903 26.425807 17.617205 8.808602 4.404301 19.819355 6.606452 28.627957 6.606451 19.819355 0 39.63871-8.808602 55.053763-24.223656l132.129033-132.129032c30.830108-30.830108 30.830108-81.47957 0-112.309677z m-83.681721 154.150537l-70.468817 70.468817c-8.808602 8.808602-22.021505 15.415054-35.234409 13.212904-11.010753 0-24.223656-4.404301-33.032258-13.212904-19.819355-19.819355-19.819355-50.649462 0-70.468817l70.468817-70.468817h2.202151l66.064516 66.064516v4.404301z m0 0" p-id="6001"></path><path d="M493.28172 777.35914h-44.04301c-22.021505 0-39.63871-19.819355-39.63871-44.043011v-103.501075c0-4.404301-4.404301-8.808602-8.808602-8.808602h-96.894624c-4.404301 0-6.606452 4.404301-8.808602 8.808602v103.501075c0 11.010753-4.404301 22.021505-11.010753 30.830108-6.606452 8.808602-17.617204 13.212903-28.627957 13.212903h-132.129032c-22.021505 0-39.63871-19.819355-39.63871-44.043011V436.025806c0-13.212903 6.606452-26.425806 15.415054-35.234408l224.619355-193.789247c13.212903-13.212903 35.234409-13.212903 48.447312 0l226.821505 193.789247c8.808602 8.808602 15.415054 22.021505 15.415054 35.234408v22.021506h-33.032258v-22.021506c0-2.202151 0-4.404301-2.202151-6.606451l-224.619354-193.789247c-2.202151-2.202151-2.202151-2.202151-4.404302-2.202151s-4.404301 0-4.404301 2.202151L118.916129 429.419355c-2.202151 2.202151-2.202151 4.404301-2.202151 6.606451v297.290323c0 4.404301 4.404301 8.808602 8.808603 8.808602h129.926881c4.404301 0 6.606452-4.404301 8.808603-8.808602v-103.501075c0-24.223656 17.617204-44.043011 39.638709-44.043011h96.894624c22.021505 0 39.63871 19.819355 39.63871 44.043011v103.501075c0 4.404301 4.404301 8.808602 8.808602 8.808602h33.032258l11.010752 35.234409z m-191.587096-189.384946" p-id="6002"></path><path d="M431.621505 513.101075h-160.756989c-6.606452 0-11.010753-4.404301-13.212903-8.808602-2.202151-4.404301-2.202151-11.010753 0-17.617204 2.202151-4.404301 8.808602-8.808602 13.212903-8.808602h160.756989c6.606452 0 11.010753 4.404301 13.212904 8.808602 2.202151 4.404301 2.202151 11.010753 0 17.617204-2.202151 4.404301-6.606452 8.808602-13.212904 8.808602z m0 0" p-id="6003"></path></svg>