<?xml version="1.0" standalone="no"?><!DOCTYPE svg PUBLIC "-//W3C//DTD SVG 1.1//EN" "http://www.w3.org/Graphics/SVG/1.1/DTD/svg11.dtd"><svg t="1651225376847" class="icon" viewBox="0 0 1024 1024" version="1.1" xmlns="http://www.w3.org/2000/svg" p-id="5299" xmlns:xlink="http://www.w3.org/1999/xlink" width="200" height="200"><defs><style type="text/css">@font-face { font-family: feedback-iconfont; src: url("//at.alicdn.com/t/font_1031158_u69w8yhxdu.woff2?t=1630033759944") format("woff2"), url("//at.alicdn.com/t/font_1031158_u69w8yhxdu.woff?t=1630033759944") format("woff"), url("//at.alicdn.com/t/font_1031158_u69w8yhxdu.ttf?t=1630033759944") format("truetype"); }
</style></defs><path d="M594.580645 779.56129c-33.032258-2.202151-63.862366-15.415054-85.883871-39.638709-17.617204-17.617204-30.830108-41.84086-37.436559-66.064516-6.606452-22.021505-2.202151-46.245161 15.415054-63.862366 11.010753-11.010753 26.425806-17.617204 44.043011-17.617204 33.032258 2.202151 63.862366 15.415054 85.883871 39.638709 17.617204 17.617204 30.830108 41.84086 37.436559 66.064516 6.606452 22.021505 2.202151 46.245161-15.415054 63.862366-11.010753 13.212903-26.425806 17.617204-44.043011 17.617204z m-63.862365-165.16129c-11.010753 0-22.021505 4.404301-28.627957 11.010753-24.223656 24.223656-2.202151 74.873118 22.021505 99.096774 19.819355 19.819355 44.043011 30.830108 70.468817 33.032258 11.010753 0 22.021505-4.404301 28.627957-11.010753 24.223656-24.223656 2.202151-74.873118-22.021505-99.096774-19.819355-19.819355-44.043011-30.830108-70.468817-33.032258z m0 0" p-id="5300"></path><path d="M554.941935 693.677419c-11.010753-11.010753-19.819355-26.425806-26.425806-41.84086l22.021505-6.606451c4.404301 13.212903 11.010753 24.223656 19.819355 33.032258 8.808602 8.808602 19.819355 15.415054 33.032258 19.819354l-6.606451 22.021506c-15.415054-6.606452-30.830108-15.415054-41.840861-26.425807z m0 0M711.294624 693.677419c-15.415054 0-33.032258-6.606452-44.043011-17.617204-15.415054-17.617204-22.021505-41.84086-15.415054-63.862366 6.606452-24.223656 19.819355-48.447312 37.436559-66.064516 22.021505-24.223656 52.851613-37.436559 85.883871-39.638709 15.415054 0 33.032258 6.606452 44.043011 17.617204 15.415054 17.617204 22.021505 41.84086 15.415054 63.862366-6.606452 24.223656-19.819355 48.447312-37.436559 66.064516-22.021505 22.021505-52.851613 37.436559-85.883871 39.638709z m66.064516-167.363441c-26.425806 2.202151-52.851613 13.212903-70.468817 33.032259-26.425806 26.425806-48.447312 74.873118-22.021506 99.096774 6.606452 6.606452 17.617204 11.010753 28.627957 11.010752 26.425806-2.202151 52.851613-15.415054 70.468817-33.032258 13.212903-13.212903 24.223656-30.830108 30.830108-50.649462 6.606452-17.617204 4.404301-35.234409-6.606452-50.649462-11.010753-4.404301-19.819355-8.808602-30.830107-8.808603z m0 0" p-id="5301"></path><path d="M704.688172 612.197849c13.212903-4.404301 24.223656-11.010753 33.032258-19.819354 8.808602-8.808602 15.415054-19.819355 19.819355-33.032258l22.021505 6.606451c-4.404301 15.415054-13.212903 30.830108-26.425806 41.84086-11.010753 11.010753-26.425806 19.819355-41.84086 26.425807l-6.606452-22.021506z m0 0M554.941935 539.526882c-22.021505 0-41.84086-6.606452-59.458064-17.617205-17.617204-11.010753-26.425806-28.627957-28.627957-48.447311 0-19.819355 11.010753-37.436559 28.627957-48.447312 17.617204-11.010753 37.436559-17.617204 59.458064-17.617205 22.021505 0 41.84086 6.606452 59.458065 17.617205 17.617204 11.010753 26.425806 28.627957 28.627957 48.447312 0 19.819355-11.010753 37.436559-28.627957 48.447311-17.617204 13.212903-37.436559 17.617204-59.458065 17.617205z m0-107.905377c-26.425806 0-66.064516 15.415054-66.064516 44.043011s37.436559 44.043011 66.064516 44.043011c26.425806 0 66.064516-15.415054 66.064517-44.043011s-37.436559-44.043011-66.064517-44.043011z m0 0" p-id="5302"></path><path d="M515.303226 471.260215l17.617204-13.212903c6.606452 4.404301 15.415054 6.606452 24.223656 6.606451 8.808602 0 17.617204-2.202151 24.223656-6.606451l17.617204 13.212903c-11.010753 11.010753-26.425806 15.415054-39.638709 15.415054-19.819355 0-33.032258-4.404301-44.043011-15.415054z m0 0M772.954839 779.56129c-24.223656 0-44.043011-13.212903-44.043011-33.032258 0-17.617204 19.819355-33.032258 44.043011-33.032258s44.043011 13.212903 44.04301 33.032258-19.819355 33.032258-44.04301 33.032258z m0-44.04301c-13.212903 0-22.021505 6.606452-22.021506 11.010752s8.808602 11.010753 22.021506 11.010753 22.021505-6.606452 22.021505-11.010753-8.808602-11.010753-22.021505-11.010752z m0 0M713.496774 486.675269c-13.212903 0-24.223656-6.606452-33.032258-15.415054-8.808602-6.606452-13.212903-17.617204-15.415054-28.627957-2.202151-8.808602 0-17.617204 6.606452-24.223656 4.404301-4.404301 13.212903-8.808602 19.819355-8.808602 13.212903 0 24.223656 6.606452 33.032258 15.415054 15.415054 15.415054 22.021505 39.63871 8.808602 52.851613-4.404301 6.606452-13.212903 8.808602-19.819355 8.808602z m-22.021505-55.053764c-2.202151 0-4.404301 0-4.404301 2.202151-2.202151 2.202151-2.202151 13.212903 8.808602 22.021505 4.404301 4.404301 11.010753 8.808602 17.617204 8.808602 2.202151 0 4.404301 0 4.404301-2.20215 4.404301-4.404301 0-15.415054-8.808602-22.021505-4.404301-4.404301-11.010753-8.808602-17.617204-8.808603z m0 0M405.195699 301.694624c6.606452 0 13.212903 8.808602 13.212903 22.021505s-4.404301 22.021505-13.212903 24.223656h-107.905376c-6.606452 0-13.212903-8.808602-13.212904-22.021505s4.404301-22.021505 13.212904-24.223656h107.905376z m0 0M350.141935 508.696774v147.544086h-46.245161v-147.544086c0-8.808602 4.404301-15.415054 11.010753-19.819355 6.606452-4.404301 15.415054-4.404301 22.021505 0 8.808602 4.404301 13.212903 13.212903 13.212903 19.819355z m0 0" p-id="5303"></path><path d="M482.270968 742.124731H251.045161c-4.404301 0-8.808602-2.202151-13.212903-6.606451-4.404301-4.404301-4.404301-11.010753-4.404301-15.415054v-286.27957c0-6.606452 2.202151-11.010753 4.404301-15.415054l52.851613-68.266667c6.606452-8.808602 11.010753-19.819355 11.010753-30.830107v-44.043011c0-8.808602 2.202151-15.415054 6.606451-22.021505 4.404301-6.606452 11.010753-8.808602 17.617205-8.808602h127.724731c6.606452 0 13.212903 2.202151 17.617204 8.808602 4.404301 6.606452 6.606452 13.212903 6.606452 22.021505v44.043011c0 11.010753 4.404301 24.223656 11.010752 30.830107L528.516129 396.387097c17.617204-4.404301 33.032258-6.606452 48.447312-4.404301 0-2.202151-2.202151-2.202151-2.202151-4.404301l-55.053763-68.266667v-44.043011c0-19.819355-6.606452-39.63871-17.617204-55.053763s-28.627957-22.021505-44.043011-22.021506H330.322581c-17.617204 0-33.032258 8.808602-44.043011 22.021506-11.010753 15.415054-17.617204 33.032258-17.617204 55.053763v44.043011l-52.851613 68.266667c-8.808602 13.212903-15.415054 28.627957-15.415054 46.245161v286.27957c0 37.436559 24.223656 68.266667 55.053763 68.266666H528.516129c-15.415054-15.415054-39.63871-30.830108-46.245161-46.245161z" p-id="5304"></path></svg>