<?xml version="1.0" standalone="no"?><!DOCTYPE svg PUBLIC "-//W3C//DTD SVG 1.1//EN" "http://www.w3.org/Graphics/SVG/1.1/DTD/svg11.dtd"><svg t="1651225371264" class="icon" viewBox="0 0 1024 1024" version="1.1" xmlns="http://www.w3.org/2000/svg" p-id="5154" xmlns:xlink="http://www.w3.org/1999/xlink" width="200" height="200"><defs><style type="text/css">@font-face { font-family: feedback-iconfont; src: url("//at.alicdn.com/t/font_1031158_u69w8yhxdu.woff2?t=1630033759944") format("woff2"), url("//at.alicdn.com/t/font_1031158_u69w8yhxdu.woff?t=1630033759944") format("woff"), url("//at.alicdn.com/t/font_1031158_u69w8yhxdu.ttf?t=1630033759944") format("truetype"); }
</style></defs><path d="M290.683871 233.427957m-77.075269 0a77.075269 77.075269 0 1 0 154.150538 0 77.075269 77.075269 0 1 0-154.150538 0Z" p-id="5155"></path><path d="M279.673118 460.249462v-33.032258c0-13.212903 11.010753-22.021505 22.021506-22.021505 13.212903 0 22.021505 11.010753 22.021505 22.021505v33.032258s0 57.255914-33.032258 59.458065c0 0-22.021505 4.404301-37.436559-19.819355 0 0 13.212903 44.043011 22.021505 77.075269 8.808602 30.830108 28.627957 125.522581 13.212903 242.236559-15.415054 116.713978-90.288172 66.064516-90.288172 66.064516s-22.021505-24.223656 0-88.086021c22.021505-66.064516 0-193.789247 0-193.789248S154.150538 572.55914 147.544086 539.526882c-6.606452-30.830108 0-116.713978 0-116.713979s2.202151-99.096774 66.064516-114.511828c63.862366-15.415054 61.660215 70.468817 61.660215 70.468817l4.404301 81.47957zM336.929032 400.791398l33.032258-61.660215 11.010753 22.021505 30.830108-33.032258-30.830108 52.851613-13.212903-26.425806zM347.939785 438.227957l57.255914-2.202151-6.606452 24.223656 44.043011 4.404301-57.255914 4.404302 6.606452-28.627957zM347.939785 416.206452l66.064516-37.43656 2.202151 24.223656 48.447311-15.415053-57.255914 33.032258-2.20215-28.627957zM737.72043 246.64086v15.415054c0 33.032258-26.425806 57.255914-57.255914 57.255914s-57.255914-26.425806-57.255914-57.255914v-15.415054h114.511828m11.010753-11.010752h-140.937635V264.258065c0 39.63871 30.830108 70.468817 70.468818 70.468817S748.731183 303.896774 748.731183 264.258065v-28.627957z" p-id="5156"></path><path d="M640.825806 325.91828s6.606452 33.032258 24.223656 41.84086c17.617204 8.808602 28.627957 0 28.627957 0s19.819355-13.212903 24.223656-41.84086c0-2.202151 4.404301-4.404301 6.606452-4.404302h2.20215V308.301075l-46.245161 19.819355-48.447312-19.819355v15.415054h2.202151c2.202151-2.202151 6.606452 0 6.606451 2.202151z" p-id="5157"></path><path d="M733.316129 325.91828h-4.404301v2.20215c-4.404301 35.234409-26.425806 50.649462-28.627957 50.649462 0 0-6.606452 4.404301-15.415054 4.404302 0 6.606452 2.202151 11.010753 4.404301 15.415053 0 2.202151 2.202151 2.202151 2.202151 4.404301 4.404301 4.404301 8.808602 11.010753 11.010753 19.819355 0 8.808602-2.202151 17.617204-4.404302 24.223656-2.202151 4.404301-4.404301 8.808602-6.606451 11.010753 2.202151 2.202151 2.202151 4.404301 2.20215 8.808602 0 6.606452-6.606452 13.212903-13.212903 13.212903s-13.212903-6.606452-13.212903-13.212903 6.606452-13.212903 13.212903-13.212903c2.202151-2.202151 4.404301-6.606452 6.606452-11.010753 2.202151-6.606452 4.404301-13.212903 4.404301-19.819355 0-6.606452-2.202151-8.808602-6.606452-13.212903 0-2.202151-2.202151-2.202151-4.404301-4.404301-4.404301-6.606452-6.606452-13.212903-8.808602-24.223656-4.404301 0-8.808602-2.202151-15.415054-4.404301-24.223656-13.212903-30.830108-48.447312-30.830107-50.649462v-2.202151h-6.606452c-85.883871 41.84086-85.883871 140.937634-85.883871 140.937634v77.075269c0 13.212903 11.010753 26.425806 26.425807 26.425807 13.212903 0 26.425806-11.010753 26.425806-26.425807v-77.075269s6.606452-41.84086 15.415054-28.627957v409.6c0 17.617204 15.415054 33.032258 33.032258 33.032259h2.20215c17.617204 0 33.032258-15.415054 33.032258-33.032259V601.187097h17.617205v246.64086c0 17.617204 15.415054 33.032258 33.032258 33.032258h2.20215c17.617204 0 33.032258-15.415054 33.032258-33.032258V438.227957c8.808602-13.212903 15.415054 28.627957 15.415054 28.627957v77.075269c0 13.212903 11.010753 26.425806 26.425807 26.425806 13.212903 0 26.425806-11.010753 26.425806-26.425806v-77.075269c-2.202151 0-2.202151-99.096774-90.288172-140.937634zM733.316129 160.756989h-107.905376c-8.808602 0-17.617204 6.606452-17.617205 17.617205v52.851612c0 8.808602 6.606452 17.617204 17.617205 17.617205h107.905376c8.808602 0 17.617204-6.606452 17.617204-17.617205V178.374194c-2.202151-8.808602-8.808602-17.617204-17.617204-17.617205z m-39.63871 50.649463H682.666667v8.808602h-11.010753v-8.808602H660.645161V198.193548h11.010753v-8.808602h11.010753V198.193548h11.010752v13.212904z" p-id="5158"></path><path d="M834.615054 603.389247h-13.212903v-19.819355l-50.649463-2.20215-2.20215 22.021505h-13.212904v-19.819355c0-8.808602 6.606452-15.415054 15.415054-15.415053h50.649463c8.808602 0 15.415054 6.606452 15.415053 15.415053v19.819355z" p-id="5159"></path><path d="M850.030108 709.092473h-110.107527c-11.010753 0-19.819355-8.808602-19.819355-19.819355v-68.266666c0-11.010753 8.808602-19.819355 19.819355-19.819355h110.107527c11.010753 0 19.819355 8.808602 19.819354 19.819355v68.266666c2.202151 11.010753-8.808602 19.819355-19.819354 19.819355z m-110.107527-94.692473c-4.404301 0-6.606452 2.202151-6.606452 6.606452v68.266666c0 4.404301 2.202151 6.606452 6.606452 6.606452h110.107527c4.404301 0 6.606452-2.202151 6.606451-6.606452v-68.266666c0-4.404301-2.202151-6.606452-6.606451-6.606452h-110.107527z" p-id="5160"></path><path d="M825.806452 647.432258h-19.819355v-19.819355h-22.021506v19.819355h-19.819354v24.223656h19.819354v17.617204h22.021506v-17.617204h19.819355zM477.866667 570.356989h-132.129033c-4.404301 0-8.808602-4.404301-8.808602-8.808602s4.404301-8.808602 8.808602-8.808602h132.129033c4.404301 0 8.808602 4.404301 8.808602 8.808602s-4.404301 8.808602-8.808602 8.808602z" p-id="5161"></path><path d="M425.015054 612.197849c-2.202151 0-4.404301 0-6.606452-2.20215-2.202151-4.404301-2.202151-8.808602 2.202151-11.010753l44.04301-35.234408-44.04301-35.234409c-4.404301-2.202151-4.404301-8.808602-2.202151-11.010753 2.202151-4.404301 8.808602-4.404301 11.010753-2.20215l61.660215 48.447312-61.660215 48.447311h-4.404301z" p-id="5162"></path></svg>