<?xml version="1.0" standalone="no"?><!DOCTYPE svg PUBLIC "-//W3C//DTD SVG 1.1//EN" "http://www.w3.org/Graphics/SVG/1.1/DTD/svg11.dtd"><svg t="1642137055585" class="icon" viewBox="0 0 1024 1024" version="1.1" xmlns="http://www.w3.org/2000/svg" p-id="5788" xmlns:xlink="http://www.w3.org/1999/xlink" width="200" height="200"><defs><style type="text/css"></style></defs><path d="M443.112727 884.363636H195.490909c-20.48 0-37.236364-16.756364-37.236364-37.236363V597.643636c0-14.894545-13.032727-27.927273-27.927272-27.927272s-27.927273 13.032727-27.927273 27.927272v249.483637c0 52.130909 40.96 93.090909 93.090909 93.090909h247.621818c14.894545 0 27.927273-13.032727 27.927273-27.927273s-11.170909-27.927273-27.927273-27.927273zM862.021818 87.505455H614.4c-14.894545 0-27.927273 13.032727-27.927273 27.927272s13.032727 27.927273 27.927273 27.927273h247.621818c20.48 0 37.236364 16.756364 37.236364 37.236364V428.218182c0 14.894545 13.032727 27.927273 27.927273 27.927273s27.927273-13.032727 27.927272-27.927273V180.596364c0-52.130909-40.96-93.090909-93.090909-93.090909zM130.327273 456.145455c14.894545 0 27.927273-13.032727 27.927272-27.927273V180.596364c0-20.48 16.756364-37.236364 37.236364-37.236364h247.621818c14.894545 0 27.927273-13.032727 27.927273-27.927273s-13.032727-27.927273-27.927273-27.927272H195.490909c-52.130909 0-93.090909 40.96-93.090909 93.090909V428.218182c0 14.894545 13.032727 27.927273 27.927273 27.927273zM927.185455 569.716364c-14.894545 0-27.927273 13.032727-27.927273 27.927272v249.483637c0 20.48-16.756364 37.236364-37.236364 37.236363H614.4c-14.894545 0-27.927273 13.032727-27.927273 27.927273s13.032727 27.927273 27.927273 27.927273h247.621818c52.130909 0 93.090909-40.96 93.090909-93.090909V597.643636c0-14.894545-13.032727-27.927273-27.927272-27.927272zM245.76 513.861818c0 76.334545 29.789091 147.083636 83.781818 199.214546 31.650909 31.650909 68.887273 53.992727 109.847273 67.025454-52.130909-37.236364-89.367273-91.229091-106.123636-154.530909-20.48-33.512727-31.650909-72.610909-31.65091-113.570909 0-61.44 24.203636-117.294545 67.025455-160.116364s100.538182-67.025455 160.116364-67.025454c24.203636 0 48.407273 3.723636 72.610909 11.170909 67.025455 1.861818 126.603636 29.789091 171.287272 72.610909-11.170909-20.48-26.065455-39.098182-42.821818-55.854545-53.992727-53.992727-124.741818-83.781818-199.214545-83.781819-76.334545 0-147.083636 29.789091-199.214546 83.781819-55.854545 53.992727-85.643636 124.741818-85.643636 201.076363z" fill="#5E74FE" p-id="5789"></path><path d="M727.970909 713.076364c-53.992727 53.992727-124.741818 83.781818-199.214545 83.781818-31.650909 0-61.44-5.585455-91.229091-14.894546 42.821818 29.789091 94.952727 48.407273 152.669091 48.407273 147.083636 0 266.24-119.156364 266.24-266.24 0-76.334545-31.650909-145.221818-83.781819-193.629091 26.065455 42.821818 39.098182 93.090909 39.098182 143.36 0 74.472727-29.789091 147.083636-83.781818 199.214546z" fill="#5E74FE" opacity=".25" p-id="5790"></path><path d="M528.756364 741.003636c61.44 0 117.294545-24.203636 160.116363-67.025454s67.025455-100.538182 67.025455-160.116364c0-61.44-24.203636-117.294545-67.025455-160.116363-26.065455-26.065455-55.854545-44.683636-89.367272-53.992728h-9.309091c-147.083636 0-266.24 119.156364-266.24 266.24 0 22.341818 3.723636 42.821818 7.447272 63.301818 9.309091 16.756364 22.341818 31.650909 35.374546 46.545455 44.683636 40.96 102.4 65.163636 161.978182 65.163636z m-44.683637-390.981818c0-14.894545 13.032727-27.927273 27.927273-27.927273s27.927273 13.032727 27.927273 27.927273v163.84h124.741818c14.894545 0 27.927273 13.032727 27.927273 27.927273s-13.032727 27.927273-27.927273 27.927273h-152.669091c-7.447273 0-14.894545-3.723636-20.48-7.447273s-7.447273-13.032727-7.447273-20.48V350.021818z" fill="#5E74FE" opacity=".25" p-id="5791"></path><path d="M688.872727 353.745455c42.821818 42.821818 67.025455 100.538182 67.025455 160.116363 0 61.44-24.203636 117.294545-67.025455 160.116364s-100.538182 67.025455-160.116363 67.025454c-61.44 0-117.294545-24.203636-160.116364-67.025454-14.894545-14.894545-26.065455-29.789091-35.374545-46.545455 14.894545 63.301818 53.992727 117.294545 106.123636 154.530909 29.789091 9.309091 59.578182 14.894545 91.229091 14.894546 74.472727 0 147.083636-29.789091 199.214545-83.781818 53.992727-53.992727 83.781818-124.741818 83.781818-199.214546 0-52.130909-13.032727-100.538182-39.098181-143.36-44.683636-42.821818-106.123636-68.887273-171.287273-72.610909 29.789091 11.170909 61.44 29.789091 85.643636 55.854546z" fill="#5E74FE" p-id="5792"></path><path d="M688.872727 353.745455c42.821818 42.821818 67.025455 100.538182 67.025455 160.116363 0 61.44-24.203636 117.294545-67.025455 160.116364s-100.538182 67.025455-160.116363 67.025454c-61.44 0-117.294545-24.203636-160.116364-67.025454-14.894545-14.894545-26.065455-29.789091-35.374545-46.545455 14.894545 63.301818 53.992727 117.294545 106.123636 154.530909 29.789091 9.309091 59.578182 14.894545 91.229091 14.894546 74.472727 0 147.083636-29.789091 199.214545-83.781818 53.992727-53.992727 83.781818-124.741818 83.781818-199.214546 0-52.130909-13.032727-100.538182-39.098181-143.36-44.683636-42.821818-106.123636-68.887273-171.287273-72.610909 29.789091 11.170909 61.44 29.789091 85.643636 55.854546z" fill="#5E74FE" opacity=".25" p-id="5793"></path><path d="M512 569.716364h152.669091c14.894545 0 27.927273-13.032727 27.927273-27.927273s-13.032727-27.927273-27.927273-27.927273H539.927273v-163.84c0-14.894545-13.032727-27.927273-27.927273-27.927273S484.072727 335.127273 484.072727 350.021818v191.767273c0 7.447273 3.723636 14.894545 7.447273 20.48s13.032727 7.447273 20.48 7.447273z" fill="#5E74FE" p-id="5794"></path><path d="M512 569.716364h152.669091c14.894545 0 27.927273-13.032727 27.927273-27.927273s-13.032727-27.927273-27.927273-27.927273H539.927273v-163.84c0-14.894545-13.032727-27.927273-27.927273-27.927273S484.072727 335.127273 484.072727 350.021818v191.767273c0 7.447273 3.723636 14.894545 7.447273 20.48s13.032727 7.447273 20.48 7.447273z" fill="#5E74FE" opacity=".25" p-id="5795"></path></svg>