<?xml version="1.0" standalone="no"?><!DOCTYPE svg PUBLIC "-//W3C//DTD SVG 1.1//EN" "http://www.w3.org/Graphics/SVG/1.1/DTD/svg11.dtd"><svg t="1642130859658" class="icon" viewBox="0 0 1024 1024" version="1.1" xmlns="http://www.w3.org/2000/svg" p-id="4630" xmlns:xlink="http://www.w3.org/1999/xlink" width="200" height="200"><defs><style type="text/css"></style></defs><path d="M949.527273 554.821818c-14.894545 0-26.065455 11.170909-26.065455 26.065455v305.338182c0 29.789091-24.203636 53.992727-53.992727 53.992727H219.694545c-29.789091 0-53.992727-24.203636-53.992727-53.992727V238.312727c0-29.789091 24.203636-53.992727 53.992727-53.992727H633.018182c14.894545 0 26.065455-11.170909 26.065454-26.065455s-11.170909-26.065455-26.065454-26.065454H219.694545c-59.578182 0-106.123636 48.407273-106.123636 106.123636v649.774546c0 59.578182 48.407273 106.123636 106.123636 106.123636h649.774546c59.578182 0 106.123636-48.407273 106.123636-106.123636V582.749091c0-14.894545-11.170909-27.927273-26.065454-27.927273z" fill="#5E74FE" p-id="4631"></path><path d="M498.967273 608.814545c5.585455 5.585455 11.170909 7.447273 18.618182 7.447273s13.032727-1.861818 18.618181-7.447273l402.152728-402.152727c11.170909-11.170909 11.170909-27.927273 0-37.236363-11.170909-11.170909-27.927273-11.170909-37.236364 0L498.967273 571.578182c-9.309091 9.309091-9.309091 26.065455 0 37.236363z" fill="#5E74FE" p-id="4632"></path></svg>