<?xml version="1.0" standalone="no"?><!DOCTYPE svg PUBLIC "-//W3C//DTD SVG 1.1//EN" "http://www.w3.org/Graphics/SVG/1.1/DTD/svg11.dtd"><svg t="1642064022623" class="icon" viewBox="0 0 1024 1024" version="1.1" xmlns="http://www.w3.org/2000/svg" p-id="4238" xmlns:xlink="http://www.w3.org/1999/xlink" width="200" height="200"><defs><style type="text/css"></style></defs><path d="M821.061818 55.854545h-595.781818c-55.854545 0-100.538182 50.269091-100.538182 113.57091V856.436364c0 61.44 44.683636 113.570909 100.538182 113.570909h595.781818c55.854545 0 100.538182-50.269091 100.538182-113.570909V169.425455c0-63.301818-44.683636-113.570909-100.538182-113.57091z m44.683637 798.72c0 31.650909-20.48 57.716364-44.683637 57.716364h-595.781818c-24.203636 0-44.683636-26.065455-44.683636-57.716364V169.425455c0-31.650909 20.48-57.716364 44.683636-57.716364h595.781818c24.203636 0 44.683636 26.065455 44.683637 57.716364v685.14909z" fill="#5E74FE" p-id="4239"></path><path d="M754.036364 242.036364h-446.836364c-14.894545 0-27.927273 13.032727-27.927273 27.927272s13.032727 27.927273 27.927273 27.927273h446.836364c14.894545 0 27.927273-13.032727 27.927272-27.927273s-13.032727-27.927273-27.927272-27.927272z" fill="#5E74FE" p-id="4240"></path></svg>