<?xml version="1.0" standalone="no"?><!DOCTYPE svg PUBLIC "-//W3C//DTD SVG 1.1//EN" "http://www.w3.org/Graphics/SVG/1.1/DTD/svg11.dtd"><svg t="1642131183258" class="icon" viewBox="0 0 1024 1024" version="1.1" xmlns="http://www.w3.org/2000/svg" p-id="4886" xmlns:xlink="http://www.w3.org/1999/xlink" width="200" height="200"><defs><style type="text/css"></style></defs><path d="M608.814545 461.730909c48.407273 0 94.952727 18.618182 130.327273 46.545455-26.065455-98.676364-115.432727-173.149091-223.418182-173.149091-126.603636 0-229.003636 102.4-229.003636 229.003636 0 100.538182 65.163636 188.043636 156.392727 217.832727-24.203636-33.512727-39.098182-74.472727-39.098182-117.294545 1.861818-113.570909 93.090909-202.938182 204.8-202.938182z" fill="#5E74FE" opacity=".25" p-id="4887"></path><path d="M737.28 623.709091c-16.756364-53.992727-67.025455-94.952727-128.465455-94.952727-74.472727 0-134.050909 59.578182-134.050909 134.050909 0 57.716364 35.374545 106.123636 85.643637 124.741818 85.643636-16.756364 152.669091-80.058182 176.872727-163.84z" fill="#5E74FE" opacity=".25" p-id="4888"></path><path d="M808.029091 107.985455H182.458182c-61.44 0-111.709091 50.269091-111.709091 111.70909v625.57091c0 61.44 50.269091 111.709091 111.709091 111.70909h294.167273c18.618182 0 33.512727-14.894545 33.512727-33.512727s-14.894545-33.512727-33.512727-33.512727H182.458182c-24.203636 0-42.821818-18.618182-42.821818-42.821818V219.694545c0-24.203636 18.618182-42.821818 42.821818-42.821818h625.570909c24.203636 0 42.821818 18.618182 42.821818 42.821818v398.429091c0 18.618182 14.894545 33.512727 33.512727 33.512728s33.512727-14.894545 33.512728-33.512728V219.694545c1.861818-61.44-48.407273-111.709091-109.847273-111.70909z" fill="#5E74FE" p-id="4889"></path><path d="M906.705455 882.501818l-132.189091-106.123636c22.341818-31.650909 33.512727-70.749091 33.512727-111.709091 0-61.44-27.927273-117.294545-72.610909-154.530909-35.374545-29.789091-80.058182-46.545455-130.327273-46.545455-111.709091 0-201.076364 91.229091-201.076364 201.076364 0 44.683636 14.894545 83.781818 39.098182 117.294545 37.236364 50.269091 96.814545 83.781818 163.84 83.781819 44.683636 0 87.505455-14.894545 121.018182-40.96l135.912727 109.847272c5.585455 5.585455 13.032727 7.447273 20.48 7.447273 9.309091 0 20.48-3.723636 26.065455-13.032727 13.032727-14.894545 11.170909-35.374545-3.723636-46.545455z m-297.89091-85.643636c-16.756364 0-33.512727-3.723636-48.407272-9.309091-50.269091-18.618182-85.643636-68.887273-85.643637-124.741818 0-74.472727 59.578182-134.050909 134.050909-134.050909 59.578182 0 111.709091 39.098182 128.465455 94.952727 3.723636 13.032727 5.585455 26.065455 5.585455 39.098182 0 74.472727-61.44 134.050909-134.05091 134.050909z" fill="#5E74FE" p-id="4890"></path></svg>