<?xml version="1.0" standalone="no"?><!DOCTYPE svg PUBLIC "-//W3C//DTD SVG 1.1//EN" "http://www.w3.org/Graphics/SVG/1.1/DTD/svg11.dtd"><svg t="1642063825791" class="icon" viewBox="0 0 1024 1024" version="1.1" xmlns="http://www.w3.org/2000/svg" p-id="4109" xmlns:xlink="http://www.w3.org/1999/xlink" width="200" height="200"><defs><style type="text/css"></style></defs><path d="M673.978182 223.418182H325.818182c-16.756364 0-31.650909 7.447273-42.821818 18.618182h433.803636c-11.170909-11.170909-26.065455-18.618182-42.821818-18.618182zM269.963636 297.890909h-3.723636v448.698182c0 31.650909 26.065455 57.716364 57.716364 57.716364h350.021818c31.650909 0 57.716364-26.065455 57.716363-57.716364V292.305455c-3.723636 3.723636-9.309091 5.585455-14.894545 5.585454h-446.836364z" fill="#5E74FE" opacity=".25" p-id="4110"></path><path d="M783.825455 55.854545h-595.781819c-55.854545 0-100.538182 50.269091-100.538181 113.57091V856.436364c0 61.44 44.683636 113.570909 100.538181 113.570909h595.781819c55.854545 0 100.538182-50.269091 100.538181-113.570909V169.425455c0-63.301818-44.683636-113.570909-100.538181-113.57091z m44.683636 798.72c0 31.650909-20.48 57.716364-44.683636 57.716364h-595.781819c-24.203636 0-44.683636-26.065455-44.683636-57.716364V169.425455C141.498182 137.774545 161.978182 111.709091 188.043636 111.709091h595.781819c24.203636 0 44.683636 26.065455 44.683636 57.716364v685.14909z" fill="#5E74FE" p-id="4111"></path><path d="M716.8 242.036364h-446.836364c-14.894545 0-27.927273 13.032727-27.927272 27.927272s11.170909 26.065455 24.203636 27.927273h450.56c5.585455 0 11.170909-1.861818 14.894545-5.585454 7.447273-5.585455 13.032727-13.032727 13.032728-22.341819 0-14.894545-13.032727-27.927273-27.927273-27.927272z" fill="#5E74FE" p-id="4112"></path></svg>