<?xml version="1.0" standalone="no"?><!DOCTYPE svg PUBLIC "-//W3C//DTD SVG 1.1//EN" "http://www.w3.org/Graphics/SVG/1.1/DTD/svg11.dtd"><svg t="1642131151258" class="icon" viewBox="0 0 1024 1024" version="1.1" xmlns="http://www.w3.org/2000/svg" p-id="4758" xmlns:xlink="http://www.w3.org/1999/xlink" width="200" height="200"><defs><style type="text/css"></style></defs><path d="M826.647273 107.985455H201.076364c-61.44 0-111.709091 50.269091-111.709091 111.70909v625.57091c0 61.44 50.269091 111.709091 111.709091 111.70909h294.167272c18.618182 0 33.512727-14.894545 33.512728-33.512727s-14.894545-33.512727-33.512728-33.512727H201.076364c-24.203636 0-42.821818-18.618182-42.821819-42.821818V219.694545c0-24.203636 18.618182-42.821818 42.821819-42.821818h625.570909c24.203636 0 42.821818 18.618182 42.821818 42.821818v398.429091c0 18.618182 14.894545 33.512727 33.512727 33.512728s33.512727-14.894545 33.512727-33.512728V219.694545c1.861818-61.44-48.407273-111.709091-109.847272-111.70909z" fill="#5E74FE" p-id="4759"></path><path d="M925.323636 882.501818l-132.189091-106.123636c22.341818-31.650909 33.512727-70.749091 33.512728-111.709091 0-111.709091-91.229091-201.076364-201.076364-201.076364s-201.076364 91.229091-201.076364 201.076364 91.229091 201.076364 201.076364 201.076364c44.683636 0 87.505455-14.894545 121.018182-40.96l135.912727 109.847272c5.585455 5.585455 13.032727 7.447273 20.48 7.447273 9.309091 0 20.48-3.723636 26.065455-13.032727 13.032727-14.894545 11.170909-35.374545-3.723637-46.545455z m-297.890909-85.643636c-74.472727 0-134.050909-59.578182-134.050909-134.050909s59.578182-134.050909 134.050909-134.050909 134.050909 59.578182 134.050909 134.050909-61.44 134.050909-134.050909 134.050909z" fill="#5E74FE" p-id="4760"></path></svg>